<?xml version="1.0" encoding="utf-8"?>
<!-- Generator: Adobe Illustrator 16.0.3, SVG Export Plug-In . SVG Version: 6.00 Build 0)  -->
<!DOCTYPE svg PUBLIC "-//W3C//DTD SVG 1.1//EN" "http://www.w3.org/Graphics/SVG/1.1/DTD/svg11.dtd">
<svg version="1.1" id="Laag_1" xmlns="http://www.w3.org/2000/svg" xmlns:xlink="http://www.w3.org/1999/xlink" x="0px" y="0px"
	 width="26px" height="26px" viewBox="0 0 26 26" enable-background="new 0 0 26 26" xml:space="preserve">
<g id="Back_1_">
	<path fill="#FFFFFF" d="M24.146,11.108H6.328l7.938-7.944c0.726-0.725,0.726-1.899,0-2.623c-0.724-0.723-1.898-0.725-2.622,0
		L0.543,11.65c-0.002,0.003-0.004,0.003-0.004,0.005c-0.085,0.084-0.158,0.177-0.23,0.278c-0.029,0.047-0.052,0.099-0.079,0.149
		c-0.031,0.056-0.066,0.108-0.091,0.168c-0.025,0.065-0.041,0.129-0.056,0.195c-0.017,0.05-0.039,0.1-0.048,0.152
		c-0.046,0.241-0.046,0.486,0,0.729c0.012,0.055,0.033,0.105,0.048,0.159c0.018,0.062,0.033,0.126,0.056,0.186
		c0.029,0.065,0.064,0.122,0.099,0.182c0.023,0.045,0.044,0.091,0.072,0.138c0.072,0.102,0.145,0.199,0.234,0.283l11.179,11.185
		C12.086,25.818,12.56,26,13.034,26c0.472,0,0.948-0.182,1.31-0.543c0.726-0.725,0.726-1.896,0-2.622l-8.016-8.02h17.818
		c1.025,0,1.855-0.83,1.855-1.854S25.172,11.108,24.146,11.108z"/>
</g>
</svg>
