<?xml version="1.0" encoding="utf-8"?>
<!-- Generator: Adobe Illustrator 16.0.0, SVG Export Plug-In . SVG Version: 6.00 Build 0)  -->
<!DOCTYPE svg PUBLIC "-//W3C//DTD SVG 1.1//EN" "http://www.w3.org/Graphics/SVG/1.1/DTD/svg11.dtd">
<svg version="1.1" id="Layer_1" xmlns="http://www.w3.org/2000/svg" xmlns:xlink="http://www.w3.org/1999/xlink" x="0px" y="0px"
	 width="397.919px" height="828.984px" viewBox="0 0 397.919 828.984" enable-background="new 0 0 397.919 828.984"
	 xml:space="preserve">
<path fill="#262827" d="M337.453,9H60.447c-29.823,0-54,24.177-54,54v706.984c0,29.823,24.177,54,54,54h277.006
	c29.823,0,54-24.177,54-54V63C391.453,33.177,367.276,9,337.453,9z M365.417,712.958H32.482V122h332.935V712.958z"/>
<circle fill="#353736" cx="198.95" cy="46" r="6.875"/>
<path fill="#353736" d="M234.762,77.5c0,4.004-3.246,7.25-7.25,7.25h-57.125c-4.004,0-7.25-3.246-7.25-7.25l0,0
	c0-4.004,3.246-7.25,7.25-7.25h57.125C231.516,70.25,234.762,73.496,234.762,77.5L234.762,77.5z"/>
<g>
	<path fill="#F26722" d="M338.91,828.984H61.904c-32.532,0-59-26.468-59-59V63c0-32.533,26.468-59,59-59H338.91
		c32.532,0,59,26.467,59,59v706.984C397.91,802.517,371.442,828.984,338.91,828.984z M61.904,14c-27.019,0-49,21.981-49,49v706.984
		c0,27.019,21.981,49,49,49H338.91c27.019,0,49-21.981,49-49V63c0-27.019-21.981-49-49-49H61.904z"/>
	<path fill="#DB5E1E" d="M329.997,4h-62.998V2c0-1.104,0.896-2,2-2h58.998c1.104,0,2,0.896,2,2V4z"/>
	<path fill="#DB5E1E" d="M2.991,117.984V156h-1c-1.104,0-2-0.896-2-2v-34.016c0-1.104,0.896-2,2-2H2.991z"/>
	<path fill="#DB5E1E" d="M2.991,178.984V235h-1c-1.104,0-2-0.896-2-2v-52.016c0-1.104,0.896-2,2-2H2.991z"/>
	<path fill="#DB5E1E" d="M2.991,255v56.016h-1c-1.104,0-2-0.896-2-2V257c0-1.104,0.896-2,2-2H2.991z"/>
</g>
<circle fill="#353736" cx="198.95" cy="766.418" r="36.25"/>
<path fill="#4B4D4D" d="M206.7,780.418h-15.5c-3.446,0-6.25-2.804-6.25-6.25v-15.5c0-3.446,2.804-6.25,6.25-6.25h15.5
	c3.446,0,6.25,2.804,6.25,6.25v15.5C212.95,777.614,210.146,780.418,206.7,780.418z M191.2,754.918c-2.067,0-3.75,1.683-3.75,3.75
	v15.5c0,2.067,1.683,3.75,3.75,3.75h15.5c2.067,0,3.75-1.683,3.75-3.75v-15.5c0-2.067-1.683-3.75-3.75-3.75H191.2z"/>
<rect x="107.266" y="-329" fill="#F26722" width="190" height="190"/>
<g>
	<rect x="32.482" y="121.99" fill="#F26722" width="332.935" height="20.809"/>
	<text transform="matrix(1 0 0 1 295.2178 137.1045)" fill="#FFFFFF" font-family="'HelveticaNeue-Light'" font-size="12.728">100%</text>
	<path fill="#FFFFFF" d="M353.072,137.233h-19.68c-0.927,0-1.68-0.755-1.68-1.68v-6.022c0-0.927,0.753-1.681,1.68-1.681h19.68
		c0.927,0,1.68,0.754,1.68,1.681v6.022C354.752,136.478,353.999,137.233,353.072,137.233z M333.392,128.109
		c-0.785,0-1.422,0.638-1.422,1.421v6.022c0,0.784,0.638,1.421,1.422,1.421h19.68c0.785,0,1.421-0.637,1.421-1.421v-6.022
		c0-0.783-0.637-1.421-1.421-1.421H333.392z"/>
	<path fill="#FFFFFF" d="M345.361,136.511h-12.027c-0.36,0-0.653-0.464-0.653-1.035v-5.719c0-0.571,0.292-1.034,0.653-1.034h12.027
		V136.511z"/>
	<path fill="#FFFFFF" d="M356.9,132.649c0,0.847-0.687,1.533-1.534,1.533v-3.067C356.213,131.116,356.9,131.802,356.9,132.649z"/>
	<text transform="matrix(1 0 0 1 182.6807 137.1865)" fill="#FFFFFF" font-family="'HelveticaNeueMedium'" font-size="13.0053">20:56</text>
	<g>
		<text transform="matrix(1 0 0 1 82.4492 137.1865)" fill="#FFFFFF" font-family="'HelveticaNeueMedium'" font-size="12.4851">AT&amp;T</text>
	</g>
	<circle fill="#FFFFFF" cx="43.563" cy="132.676" r="2.758"/>
	<circle fill="#FFFFFF" cx="50.823" cy="132.676" r="2.757"/>
	<circle fill="#FFFFFF" cx="58.083" cy="132.676" r="2.757"/>
	<path fill="#FFFFFF" d="M72.604,130.436c1.235,0,2.24,1.005,2.24,2.24c0,1.236-1.005,2.241-2.24,2.241
		c-1.236,0-2.241-1.005-2.241-2.241C70.363,131.44,71.368,130.436,72.604,130.436 M72.604,129.918c-1.523,0-2.759,1.235-2.759,2.757
		c0,1.523,1.236,2.757,2.759,2.757c1.522,0,2.757-1.233,2.757-2.757C75.361,131.153,74.126,129.918,72.604,129.918L72.604,129.918z"
		/>
	<path fill="#FFFFFF" d="M65.344,130.436c1.236,0,2.24,1.005,2.24,2.24c0,1.236-1.004,2.241-2.24,2.241
		c-1.235,0-2.24-1.005-2.24-2.241C63.104,131.44,64.108,130.436,65.344,130.436 M65.344,129.918c-1.523,0-2.758,1.235-2.758,2.757
		c0,1.523,1.235,2.757,2.758,2.757c1.522,0,2.758-1.233,2.758-2.757C68.102,131.153,66.866,129.918,65.344,129.918L65.344,129.918z"
		/>
	<g>
		<g>
			<g id="Wifi__x7C__Top_10_">
				<g>
					<path fill-rule="evenodd" clip-rule="evenodd" fill="#FFFFFF" d="M117.876,131.45c1.414-1.418,3.369-2.295,5.529-2.295
						c2.104,0,4.011,0.836,5.415,2.19l1.067-1.211c-1.689-1.604-3.968-2.594-6.482-2.594c-2.606,0-4.965,1.059-6.671,2.769
						L117.876,131.45z"/>
				</g>
			</g>
			<g id="Wifi__x7C__Middle_10_">
				<g>
					<path fill-rule="evenodd" clip-rule="evenodd" fill="#FFFFFF" d="M119.019,132.592l1.142,1.142
						c0.829-0.833,1.976-1.349,3.244-1.349c1.285,0,2.444,0.531,3.275,1.384l1.072-1.215c-1.118-1.102-2.652-1.785-4.347-1.785
						C121.69,130.769,120.139,131.466,119.019,132.592z"/>
				</g>
			</g>
			<g id="Wifi__x7C__Bottom_9_">
				<path fill-rule="evenodd" clip-rule="evenodd" fill="#FFFFFF" d="M121.068,134.911l2.337,2.337l2.26-2.401
					c-0.612-0.521-1.393-0.848-2.26-0.848C122.502,134,121.689,134.351,121.068,134.911z"/>
			</g>
		</g>
	</g>
</g>
<g>
	<rect x="32.482" y="661.477" fill="#F7F8F8" width="332.935" height="51.482"/>
	<g>
		<path fill-rule="evenodd" clip-rule="evenodd" fill="#FFFFFF" d="M80.947,686.809c0.308-0.045,0.633-0.041,0.877-0.264
			c1.037,0.159,2.088-0.097,2.902-0.668c0.43-0.347,0.816-0.748,1.13-1.187c0.275-0.387,0.492-0.747,0.632-1.18
			c0.105-0.267,0.188-0.545,0.25-0.831c0.296-1.345,0.14-2.849-0.298-4.128c-0.08-0.237-0.17-0.468-0.271-0.688
			c-0.547-1.129-1.291-2.348-2.436-3.063c-0.645-0.403-1.24-1.024-1.604-1.668c-0.199-0.18-0.388-0.416-0.645-0.459
			c0.071,0.114,0.148,0.229,0.167,0.364l-0.015,0.019c-0.272,0.008-0.485-0.135-0.67-0.309l0.205-0.186
			c-0.077-0.042-0.167-0.055-0.252-0.075c-0.783-0.09-1.427,0.272-2.123,0.446l-0.011,0.039c0.427,0.191,0.516,0.66,0.764,0.978
			c0.061-0.073,0.167-0.02,0.252-0.026c0.124,0.006,0.241,0.098,0.361,0.064c0.003-0.104-0.055-0.186-0.074-0.278
			c0.074-0.035,0.164-0.004,0.245,0c0.225,0.131,0.585-0.024,0.725,0.278c-0.256,0.017-0.497,0.071-0.737,0.13
			c0.016,0.096,0.113,0.174,0.105,0.271c-0.205-0.084-0.423-0.14-0.652-0.167l-0.011,0.034c0.291,0.342,0.69,0.545,1.098,0.665
			c0.586,0.137,1.103-0.144,1.668-0.047c1.391,0.638,2.578,2.093,3.094,3.474c0.025,0.067,0.05,0.134,0.073,0.203
			c0.432,1.262,0.515,2.813,0.081,4.128c-0.23,0.547-0.485,1.065-0.892,1.51c-0.154,0.19-0.323,0.359-0.508,0.501
			c-0.583,0.453-1.301,0.655-2.041,0.45c-0.048-0.032-0.139-0.039-0.125-0.12c0.025-0.109,0.05-0.217,0.071-0.33
			c0.123-0.63,0.18-1.294,0.147-1.958c-0.001-0.028-0.002-0.057-0.002-0.084c-0.042-0.964-0.233-1.831-0.586-2.663
			c-0.228-0.479-0.497-1-0.837-1.467c-0.405-0.557-0.909-1.039-1.555-1.281c-0.396-0.104-0.885-0.124-1.183,0.206
			c-0.213,0.188-0.302,0.438-0.273,0.714c-0.333,0.212-0.708,0.326-1.117,0.361c-0.101,0.008-0.203,0.045-0.307,0.044
			c-0.098,0.006-0.194,0-0.289-0.011c-0.492-0.061-0.988-0.325-1.367-0.63c-0.007-0.201-0.019-0.391-0.027-0.604
			c-0.216-0.112-0.396-0.327-0.411-0.578l0.019-0.02c0.125,0.04,0.232,0.099,0.346,0.166c-0.05-0.303-0.108-0.601-0.26-0.865
			c-0.14-0.059-0.279-0.105-0.411-0.176c-0.152-0.099-0.249-0.283-0.271-0.448c0.135,0.133,0.372,0.085,0.476,0.225
			c-0.183-0.54-0.186-1.157-0.484-1.649c-0.152-0.363-0.547-0.532-0.818-0.799c-0.106-0.129-0.148-0.307-0.338-0.328
			c-0.156-0.039-0.167-0.211-0.195-0.326c0.098,0.013,0.179,0.078,0.26,0.095c-0.224-0.597-0.422-1.263-1.032-1.643l-0.104,0.065
			c-0.237,0.035-0.489,0.052-0.726,0.059c0.106-0.154,0.292-0.222,0.438-0.292c-0.171-0.127-0.311-0.159-0.524-0.194
			c-0.123,0.124-0.348,0.187-0.507,0.222l-0.02-0.016c-0.003-0.139-0.035-0.31,0.175-0.346c-0.202-0.097-0.536-0.057-0.742,0
			c-0.059,0.151-0.225,0.288-0.212,0.467c-0.12,0.123-0.205,0.291-0.331,0.38c-0.003-0.3,0.124-0.575,0.178-0.828
			c-0.174,0.067-0.352,0.161-0.523,0.241c-0.274-0.16-0.565-0.317-0.86-0.439c-0.026-0.012-0.085-0.023-0.074,0.028
			c0.253,0.182,0.156,0.522,0.181,0.783l-0.158-0.132c-0.077-0.198-0.302-0.341-0.34-0.558c-0.264,0.05-0.433,0.12-0.678,0.225
			l-0.033,0.02c0.182,0,0.336,0.142,0.426,0.288c-0.276,0.013-0.52-0.095-0.792-0.122c-0.028-0.027-0.05-0.058-0.093-0.055
			c-0.136,0.05-0.252,0.149-0.372,0.24c-0.268,0.265-0.54,0.556-0.668,0.906c0.089,0.016,0.203,0.012,0.269,0.065
			c-0.148,0.089-0.275,0.241-0.419,0.325c-0.051,0.203-0.043,0.433-0.055,0.653c-0.114,0.171-0.264,0.321-0.338,0.512
			c-0.24,0.78-0.302,1.646-0.267,2.531c-0.078,0.073-0.179,0.118-0.252,0.177l0.008,0.792h0.019
			c0.035-0.167,0.233-0.259,0.354-0.372h0.039c-0.019,0.178-0.042,0.355-0.047,0.54l-0.224,0.186
			c-0.226,0.197-0.036,0.497-0.055,0.745c0.017,0.066,0.027,0.163,0.073,0.179c0.028-0.098,0.114-0.167,0.168-0.253
			c0.098-0.022,0.183-0.101,0.272-0.112c-0.05,0.195-0.116,0.385-0.194,0.573c-0.037,0.022-0.082,0.056-0.118,0.095
			c-0.039,0.043-0.072,0.088-0.08,0.144c0.175,0.918,0.45,1.827,0.765,2.693c-0.214,0.36-0.335,0.786-0.513,1.158
			c-0.025,0.052-0.048,0.105-0.07,0.159c-0.177,0.453-0.232,0.956-0.454,1.389c-0.09-0.061-0.188-0.108-0.287-0.15
			c-0.419-0.139-0.905-0.051-1.212,0.271c-0.272-0.049-0.551-0.003-0.764,0.14c-0.153,0.115-0.271,0.255-0.34,0.416
			c-0.046,0.112-0.067,0.236-0.061,0.368c-0.173,0.121-0.267,0.306-0.325,0.494c-0.081,0.419,0.066,0.855,0.306,1.177H80.947
			L80.947,686.809z"/>
		<path fill-rule="evenodd" clip-rule="evenodd" fill="#FFFFFF" d="M78.379,678.083c-0.004,0.102-0.077,0.214-0.012,0.299
			c0.094-0.106,0.249-0.103,0.373-0.147c0.345-0.032,0.676,0.078,0.998,0.154c-0.081-0.129-0.136-0.271-0.224-0.388
			c-0.18-0.046-0.451,0.078-0.481-0.186c-0.11-0.093-0.281-0.027-0.393-0.021C78.531,677.873,78.441,677.97,78.379,678.083
			L78.379,678.083z"/>
		<rect x="66.511" y="674.728" fill-rule="evenodd" clip-rule="evenodd" fill="#FFFFFF" width="0.006" height="0.002"/>
		<path fill-rule="evenodd" clip-rule="evenodd" fill="#FFFFFF" d="M67.928,678.182l0.233-0.226c0.02,0,0.036,0.005,0.047,0.019
			l-0.02,0.432c0.113,0.104,0.253,0.138,0.399,0.146c0.012-0.116,0.102-0.199,0.152-0.299c0.043-0.081,0.016-0.201,0.102-0.26
			l0.026,0.029c0.029,0.126,0.021,0.271,0.086,0.384c0.008,0.06,0.019,0.138,0.027,0.193c0.171,0.007,0.325-0.039,0.458-0.101
			c-0.007-0.148,0.044-0.268,0.065-0.404c0.037-0.047-0.042-0.132,0.056-0.126c0.054,0.115,0.152,0.235,0.205,0.358
			c0.226-0.228,0.318-0.526,0.374-0.836c-0.066-0.091-0.167-0.091-0.245-0.148c-0.66-0.213-1.507-0.256-2.143,0.074
			C67.708,677.681,67.76,677.973,67.928,678.182L67.928,678.182z"/>
		<path fill-rule="evenodd" clip-rule="evenodd" fill="#FFFFFF" d="M61.76,685.463c-0.022,0.3,0,0.583,0.02,0.876
			c0.062,0.097,0.174,0.209,0.287,0.217l0.02-0.199c0.047-0.275-0.101-0.568,0.055-0.8c0.109,0.034,0.217,0.089,0.31,0.139
			c0.046-0.257-0.02-0.555-0.264-0.71L61.76,685.463L61.76,685.463z"/>
		<path fill-rule="evenodd" clip-rule="evenodd" fill="#FFFFFF" d="M62.719,685.045c-0.152,0.455-0.265,1.015-0.081,1.492
			c0.104-0.069,0.213-0.137,0.306-0.233c-0.019-0.366-0.069-0.756,0.148-1.057c0.189,0.058,0.318,0.241,0.391,0.419
			c0.129-0.164,0.171-0.388,0.121-0.607c0.008-0.169-0.187-0.13-0.279-0.201c0.031-0.143,0.026-0.31,0.178-0.391l-0.466,0.047
			C62.917,684.685,62.785,684.852,62.719,685.045L62.719,685.045z"/>
		<path fill-rule="evenodd" clip-rule="evenodd" fill="#FFFFFF" d="M63.677,686.386c0.021,0.035,0,0.097,0.04,0.106
			c0.058-0.328,0.322-0.539,0.466-0.826c0.069-0.098,0.065-0.233,0.178-0.307c0.152,0,0.261,0.109,0.408,0.121
			c0.047,0.035-0.023,0.065-0.028,0.104c-0.031,0.265-0.132,0.484-0.112,0.756h0.027c0.205-0.218,0.345-0.452,0.497-0.701
			l0.027-0.222c0.034-0.264-0.254-0.434-0.439-0.543l0.167-0.213l-0.233-0.082c-0.273,0.028-0.517,0.139-0.707,0.353
			C63.732,685.367,63.694,685.857,63.677,686.386L63.677,686.386z"/>
		<path fill-rule="evenodd" clip-rule="evenodd" fill="#FFFFFF" d="M64.722,684.082c0.089,0.028,0.17-0.046,0.259-0.005
			c0.357,0.13,0.73,0.266,0.998,0.564l0.319,0.812l0.158-0.501l-0.104-0.271c-0.089-0.194-0.333-0.178-0.501-0.187
			c-0.069-0.077,0.004-0.167,0.028-0.24c0.08-0.276-0.257-0.261-0.393-0.373c0.008-0.167-0.194-0.108-0.306-0.124l-0.04-0.047
			c-0.023-0.035-0.081-0.035-0.112-0.007c-0.008-0.011-0.023-0.02-0.016-0.039l-0.086,0.02
			C64.807,683.789,64.726,683.924,64.722,684.082L64.722,684.082z"/>
		<path fill-rule="evenodd" clip-rule="evenodd" fill="#FFFFFF" d="M64.947,683.189c0.012,0.051,0.042,0.103,0.082,0.132
			c0.175-0.046,0.341-0.166,0.543-0.093c0.26,0.229,0.531,0.471,0.847,0.595l0.111-0.019c0.07,0.022,0.147,0.027,0.195,0.104
			c0.043,0.104-0.065,0.169-0.101,0.253c0.174,0.127,0.105,0.358,0.213,0.513l0.28-0.373c-0.066-0.163,0.003-0.443-0.253-0.458
			c-0.085-0.043-0.144-0.129-0.14-0.226c-0.167-0.152-0.373-0.217-0.54-0.373c-0.136-0.108-0.217-0.275-0.392-0.314
			c-0.119-0.065-0.252-0.1-0.392-0.13C65.141,682.758,65.118,683.069,64.947,683.189L64.947,683.189z"/>
		<path fill-rule="evenodd" clip-rule="evenodd" fill="#FFFFFF" d="M65.32,682.425l0.046,0.073c0.193-0.012,0.37-0.097,0.559-0.093
			c0.127,0.077,0.294,0.074,0.427,0.14c0.104,0.144,0.218,0.308,0.373,0.404c0.314,0.046,0.488,0.382,0.598,0.632v-0.121
			c0.047-0.165-0.004-0.359-0.067-0.511c-0.077-0.079-0.19-0.128-0.271-0.198c-0.016-0.05-0.004-0.074,0.011-0.121
			c-0.12-0.127-0.298-0.199-0.445-0.298c-0.207-0.299-0.602-0.218-0.917-0.299L65.32,682.425L65.32,682.425z"/>
		<path fill-rule="evenodd" clip-rule="evenodd" fill="#FFFFFF" d="M65.313,679.578c0.034,0.121,0.078,0.272,0.1,0.4
			c0.108-0.241,0.323-0.349,0.512-0.546c-0.108-0.076-0.244-0.109-0.363-0.134v-0.006C65.475,679.377,65.343,679.461,65.313,679.578
			L65.313,679.578z"/>
		<path fill-rule="evenodd" clip-rule="evenodd" fill="#FFFFFF" d="M66.019,680.855l0.175-0.177
			c0.174-0.179,0.317-0.385,0.344-0.614c-0.124-0.073-0.287-0.023-0.407,0.02C66.087,680.334,66.021,680.583,66.019,680.855
			L66.019,680.855z"/>
		<path fill-rule="evenodd" clip-rule="evenodd" fill="#FFFFFF" d="M66.146,681.402c0.268,0.016,0.527,0.069,0.745-0.08l0.217-0.7
			c-0.07-0.003-0.14-0.036-0.205-0.011C66.76,680.928,66.471,681.242,66.146,681.402L66.146,681.402z"/>
		<path fill-rule="evenodd" clip-rule="evenodd" fill="#FFFFFF" d="M66.225,678.927c0.174,0.256,0.466,0.543,0.765,0.624
			c-0.036-0.326-0.315-0.551-0.458-0.829l-0.008-0.096c-0.111-0.108-0.248-0.181-0.365-0.24
			C66.139,678.573,66.19,678.752,66.225,678.927L66.225,678.927z"/>
		<path fill-rule="evenodd" clip-rule="evenodd" fill="#FFFFFF" d="M67.17,681.433c0.206,0.034,0.427,0,0.617-0.059
			c0.277-0.065,0.428-0.368,0.521-0.604h-0.346l-0.372,0.366C67.442,681.213,67.302,681.331,67.17,681.433L67.17,681.433z"/>
		<path fill-rule="evenodd" clip-rule="evenodd" fill="#FFFFFF" d="M67.128,678.573c0.059,0.303,0.187,0.578,0.362,0.839
			l0.047-0.578L67.128,678.573L67.128,678.573z"/>
		<path fill-rule="evenodd" clip-rule="evenodd" fill="#FFFFFF" d="M68.4,680.083c0.023-0.195-0.057-0.418-0.08-0.617
			c-0.117-0.076-0.281-0.07-0.399-0.148C67.928,679.625,68.168,679.886,68.4,680.083L68.4,680.083z"/>
		<path fill-rule="evenodd" clip-rule="evenodd" fill="#FFFFFF" d="M68.047,682.054c0.245-0.077,0.481-0.162,0.706-0.286
			c0.144-0.207,0.362-0.394,0.392-0.633c-0.177,0.05-0.333-0.008-0.5,0.075c-0.101,0.181-0.163,0.387-0.358,0.518
			C68.257,681.861,68.114,681.949,68.047,682.054L68.047,682.054z"/>
		<path fill-rule="evenodd" clip-rule="evenodd" fill="#FFFFFF" d="M68.428,682.532l0.292,0.38c0.155,0.05,0.349,0.034,0.484-0.054
			l-0.105-0.348C68.893,682.591,68.649,682.567,68.428,682.532L68.428,682.532z"/>
		<path fill-rule="evenodd" clip-rule="evenodd" fill="#FFFFFF" d="M68.913,679.783l0.112,0.513
			c0.271-0.221,0.327-0.543,0.319-0.884C69.19,679.589,69.099,679.699,68.913,679.783L68.913,679.783z"/>
		<path fill-rule="evenodd" clip-rule="evenodd" fill="#FFFFFF" d="M69.678,680.688c0.004,0.074,0.023,0.144,0.066,0.203
			c0.302,0.109,0.333,0.478,0.613,0.616c0.182,0.083,0.391-0.02,0.551-0.094c-0.121-0.135-0.256-0.228-0.373-0.372
			c-0.082-0.035-0.163-0.085-0.159-0.186L69.678,680.688L69.678,680.688z"/>
		<path fill-rule="evenodd" clip-rule="evenodd" fill="#FFFFFF" d="M69.918,682.52c0.132,0.151,0.31,0.229,0.498,0.271
			c-0.032-0.042,0.02,0,0.027-0.027l-0.234-0.512c-0.116,0.002-0.237,0.027-0.345,0.019
			C69.872,682.356,69.892,682.442,69.918,682.52L69.918,682.52z"/>
		<path fill-rule="evenodd" clip-rule="evenodd" fill="#FFFFFF" d="M70.33,680.13c-0.109-0.252-0.155-0.56-0.186-0.838
			c-0.116,0.14-0.237,0.228-0.345,0.373C69.748,679.951,70.158,680.021,70.33,680.13L70.33,680.13z"/>
		<path fill-rule="evenodd" clip-rule="evenodd" fill="#FFFFFF" d="M70.803,679.865c0.139,0.184,0.446,0.121,0.618,0.067
			c-0.082-0.14-0.345-0.22-0.392-0.373c-0.026-0.267-0.08-0.528-0.167-0.772C70.726,679.117,70.562,679.508,70.803,679.865
			L70.803,679.865z"/>
		<path fill-rule="evenodd" clip-rule="evenodd" fill="#FFFFFF" d="M71.047,680.688c0.388,0.284,0.768,0.613,1.311,0.493
			c0.04-0.027,0.106-0.022,0.114-0.073c-0.16-0.102-0.331-0.18-0.494-0.272l-0.186-0.271h-0.085
			C71.497,680.635,71.272,680.661,71.047,680.688L71.047,680.688z"/>
		<path fill-rule="evenodd" clip-rule="evenodd" fill="#FFFFFF" d="M71.056,683.836h0.026c0.234-0.187,0.508-0.249,0.783-0.327
			c0.075,0.028,0.028,0.108,0.095,0.14c0.166-0.07,0.369-0.055,0.539-0.112c0.207,0.007,0.374,0.011,0.541,0.1
			c0.13,0.175,0.38,0.156,0.55,0.272l-0.027-0.272c-0.361-0.424-0.924-0.455-1.443-0.447l-0.013-0.054
			c-0.124,0-0.264,0.026-0.379,0.082c-0.168,0.007-0.326,0.09-0.486,0.14C71.168,683.505,71.11,683.684,71.056,683.836
			L71.056,683.836z"/>
		<path fill-rule="evenodd" clip-rule="evenodd" fill="#FFFFFF" d="M71.367,679.065c0.151,0.199,0.376,0.351,0.632,0.3
			c-0.131-0.127-0.283-0.265-0.292-0.446c0.04-0.347-0.341-0.374-0.527-0.553C71.242,678.6,71.235,678.86,71.367,679.065
			L71.367,679.065z"/>
		<path fill-rule="evenodd" clip-rule="evenodd" fill="#FFFFFF" d="M71.328,684.524h0.045c0.205-0.13,0.505-0.032,0.707-0.168
			c0.113-0.059,0.121,0.097,0.198,0.139c0.19,0.117,0.214,0.466,0.482,0.386c0.322,0.166,0.241,0.558,0.252,0.846l0.299-0.187
			c-0.027-0.152,0.057-0.334-0.039-0.465c-0.074-0.167-0.275-0.184-0.373-0.319c0.115-0.199-0.148-0.292-0.202-0.434l0.015-0.021
			l0.411,0.055c0.141,0.084,0.191,0.241,0.234,0.385c0.323,0.055,0.399,0.417,0.512,0.651c0.067-0.157,0.093-0.33,0.16-0.484
			c0.004-0.128-0.167-0.128-0.253-0.187c-0.023-0.196-0.112-0.384-0.286-0.504c-0.358-0.089-0.672-0.288-1.065-0.288L72.1,684.03
			c-0.179,0.042-0.37-0.012-0.504,0.112C71.393,684.157,71.377,684.38,71.328,684.524L71.328,684.524z"/>
		<path fill-rule="evenodd" clip-rule="evenodd" fill="#FFFFFF" d="M71.533,682.923l0.074,0.036
			c0.159-0.075,0.318-0.159,0.485-0.222c0.26-0.074,0.461,0.222,0.679,0.035c0.082-0.057,0.151,0.028,0.213,0.075
			c0.094,0.17,0.311,0.159,0.474,0.206c-0.082-0.22-0.184-0.525-0.467-0.561c-0.112-0.049-0.243-0.043-0.353-0.11
			c-0.299-0.331-0.493,0.27-0.819,0.123C71.704,682.633,71.559,682.752,71.533,682.923L71.533,682.923z"/>
		<path fill-rule="evenodd" clip-rule="evenodd" fill="#FFFFFF" d="M71.606,684.814c0.124,0.103,0.252,0.284,0.446,0.26
			c0.241,0.112,0.14,0.43,0.272,0.596l0.14-0.124l-0.012-0.007l0.02-0.021l0.007,0.013c0.039-0.118-0.016-0.323-0.082-0.458
			c-0.09-0.062-0.194,0.003-0.279-0.055c-0.013-0.125-0.09-0.187-0.179-0.264c-0.062-0.048-0.144,0.016-0.213,0.011L71.606,684.814
			L71.606,684.814z"/>
		<path fill-rule="evenodd" clip-rule="evenodd" fill="#FFFFFF" d="M72.092,680.083c0.128,0.212,0.376,0.346,0.574,0.493
			c0.163,0.074,0.376,0.093,0.551,0.055c-0.167-0.136-0.318-0.292-0.458-0.454c-0.054-0.079-0.066-0.176-0.14-0.245
			C72.437,679.967,72.231,679.963,72.092,680.083L72.092,680.083z"/>
		<path fill-rule="evenodd" clip-rule="evenodd" fill="#FFFFFF" d="M72.306,678.694c0.179,0.221,0.454,0.131,0.706,0.14v-0.027
			l-0.388-0.326C72.516,678.515,72.399,678.612,72.306,678.694L72.306,678.694z"/>
		<path fill-rule="evenodd" clip-rule="evenodd" fill="#FFFFFF" d="M65.161,675.034l0.225,0.697
			c-0.004-0.395,0.178-0.724,0.14-1.128l0.167-0.248l-0.354,0.108C65.246,674.641,65.169,674.821,65.161,675.034L65.161,675.034z"/>
		<path fill-rule="evenodd" clip-rule="evenodd" fill="#FFFFFF" d="M65.313,673.823l0.306-0.178v-0.454
			c-0.127,0.077-0.197,0.209-0.298,0.313L65.313,673.823L65.313,673.823z"/>
		<path fill-rule="evenodd" clip-rule="evenodd" fill="#FFFFFF" d="M71.608,674.53c-0.075,0.097-0.188,0.119-0.28,0.139
			c0.162-0.299,0.24-0.713,0.111-1.051c0.085-0.031,0.18-0.045,0.26-0.095l-0.007-0.006l0.213-0.186
			c0.283-0.193,0.175-0.563,0.279-0.838c-0.139-0.219-0.181-0.482-0.383-0.666l0.012-0.007c-0.16-0.2-0.446-0.178-0.665-0.278
			c-0.287-0.099-0.508,0.101-0.713,0.232c-0.089,0.015-0.034,0.133-0.132,0.128c-0.055,0.143-0.121,0.299-0.16,0.458
			c-0.384-0.056-0.799-0.012-1.105,0.204c-0.164-0.118-0.362-0.142-0.551-0.197c-0.139-0.026-0.299,0.023-0.398-0.054
			c-0.147-0.166-0.18-0.469-0.432-0.512c-0.089-0.031-0.108-0.128-0.108-0.214c-0.167-0.027-0.314-0.104-0.478-0.139
			c-0.248-0.114-0.445,0.067-0.632,0.187c-0.081,0.036-0.174,0.045-0.252,0.093c-0.14,0.218-0.271,0.439-0.361,0.679
			c0.028,0.198,0.113,0.373,0.215,0.539c0.089,0.254,0.368,0.452,0.604,0.552c-0.112,0.385-0.112,0.842,0,1.23
			c0,0-0.006,0.005-0.006,0.002c0,0.002-0.012,0.013-0.012,0.013c-0.038,0-0.077,0.007-0.108-0.013h-0.005
			c0.055,0.374,0.23,0.696,0.513,0.974c0.101,0.037,0.078,0.157,0.121,0.235c0.026,0.034,0.03,0.109,0.019,0.14
			c-0.604-0.019-1.145,0.132-1.63,0.408c-0.124,0.061-0.069,0.232-0.081,0.353c0.341-0.226,0.709-0.393,1.117-0.466
			c0.175-0.012,0.373-0.054,0.54-0.008l0.019,0.333c-0.461,0.242-0.966,0.38-1.362,0.778c0.008,0.118-0.015,0.26,0.02,0.36
			l0.353-0.289c0.341-0.258,0.698-0.479,1.09-0.624c0.105,0.125,0.213,0.256,0.354,0.334c0.237-0.152,0.493-0.263,0.765-0.334
			c0.143-0.084,0.372-0.008,0.465-0.179l0.066-0.354c-0.012-0.007-0.019-0.021-0.038-0.018c-0.183-0.104-0.304-0.286-0.287-0.502
			c-0.063,0.031-0.132,0.051-0.206,0.055c-0.063-0.016-0.12-0.031-0.147-0.093c-0.004-0.078-0.043-0.195,0.034-0.253
			c0.252-0.156,0.578-0.163,0.897-0.139c0.236,0.03,0.579,0.019,0.659,0.299c-0.011,0.082-0.003,0.17-0.084,0.225
			c-0.085,0.046-0.183-0.005-0.261-0.039c-0.062,0.189-0.167,0.403-0.38,0.464l0.027,0.227c0.027,0.101,0.036,0.267,0.194,0.232
			c0.369,0.09,0.694,0.28,1.017,0.486c0.108-0.109,0.193-0.234,0.271-0.346c0.575,0.194,1.072,0.625,1.545,1.024l0.02-0.325
			c-0.451-0.4-0.951-0.684-1.471-0.905c0.021-0.106,0.042-0.207,0.046-0.319c0.618,0.036,1.203,0.225,1.712,0.524l-0.008-0.279
			c-0.535-0.289-1.121-0.478-1.761-0.486c-0.024-0.035-0.032-0.085-0.027-0.121c0.311-0.049,0.53-0.374,0.605-0.652
			c0.158-0.181,0.388-0.38,0.333-0.651c0.007-0.022,0.015-0.047,0.023-0.072C71.614,674.664,71.629,674.592,71.608,674.53
			L71.608,674.53z"/>
		<path fill-rule="evenodd" clip-rule="evenodd" fill="#FFFFFF" d="M72.147,675.528l0.318-0.103l0.034-0.177
			c0.09-0.26-0.1-0.455-0.193-0.661L72.147,675.528L72.147,675.528z"/>
		<path fill-rule="evenodd" clip-rule="evenodd" fill="#FFFFFF" d="M72.95,676.758c0.151,0.165,0.299,0.434,0.567,0.351
			c-0.02-0.111-0.082-0.204-0.121-0.306c-0.07-0.081-0.093-0.313-0.233-0.232c-0.104-0.069-0.131-0.187-0.198-0.281
			C72.936,676.435,72.954,676.613,72.95,676.758L72.95,676.758z"/>
		<path fill-rule="evenodd" clip-rule="evenodd" fill="#FFFFFF" d="M73.004,677.894c0.059,0.081,0.075,0.186,0.132,0.26
			c0.104,0.069,0.26,0.058,0.388,0.046c0.116-0.027,0.19,0.101,0.298,0.026c-0.135-0.085-0.216-0.24-0.345-0.353
			C73.327,677.755,73.163,677.859,73.004,677.894L73.004,677.894z"/>
		<path fill-rule="evenodd" clip-rule="evenodd" fill="#FFFFFF" d="M73.211,679.699c0.267,0.158,0.608,0.314,0.964,0.261
			c0.04-0.02,0.106-0.017,0.113-0.063c-0.221-0.078-0.454-0.3-0.686-0.346c-0.128-0.198-0.295,0.05-0.458,0.034
			C73.148,679.633,73.194,679.668,73.211,679.699L73.211,679.699z"/>
		<path fill-rule="evenodd" clip-rule="evenodd" fill="#FFFFFF" d="M74.017,683.125l0.059,0.124
			c0.057,0.405,0.313,0.776,0.174,1.219c0.116,0.082,0.152,0.217,0.225,0.327h0.02c0.089-0.339,0.028-0.688-0.02-1.026
			C74.51,683.462,74.199,683.285,74.017,683.125L74.017,683.125z"/>
		<path fill-rule="evenodd" clip-rule="evenodd" fill="#FFFFFF" d="M74.084,679.15c0.202,0.156,0.523,0.172,0.756,0.093
			c-0.147-0.081-0.31-0.17-0.43-0.278L74.084,679.15L74.084,679.15z"/>
		<path fill-rule="evenodd" clip-rule="evenodd" fill="#FFFFFF" d="M75.041,680.343c-0.021,0.164,0.089,0.299,0.207,0.38
			c0.042-0.098,0.111-0.18,0.119-0.288c-0.035-0.168-0.128-0.317-0.278-0.431C75.06,680.115,75.03,680.218,75.041,680.343
			L75.041,680.343z"/>
		<path fill-rule="evenodd" clip-rule="evenodd" fill="#FFFFFF" d="M75.053,682.112c-0.028,0.183,0.174,0.207,0.26,0.308
			c0.07,0.084-0.046,0.143-0.046,0.223c0.147,0.192,0.232,0.409,0.232,0.662c0.058-0.236,0.148-0.463,0.179-0.708
			c-0.015-0.169-0.287-0.135-0.244-0.326c0.076-0.193-0.016-0.383-0.067-0.558c-0.016-0.028-0.051-0.082-0.081-0.066
			C75.215,681.806,75.041,681.918,75.053,682.112L75.053,682.112z"/>
		<path fill-rule="evenodd" clip-rule="evenodd" fill="#FFFFFF" d="M75.584,681.188l0.202,0.393c0.09-0.012,0.146-0.097,0.217-0.159
			c0.055-0.164-0.089-0.268-0.132-0.4c-0.035-0.094,0-0.218-0.065-0.298c-0.05-0.032-0.109-0.082-0.167-0.066L75.584,681.188
			L75.584,681.188z"/>
		<path fill-rule="evenodd" clip-rule="evenodd" fill="#FFFFFF" d="M75.844,680.158c0.159,0.096,0.341,0.237,0.426,0.406
			c0.137,0.396,0.354,0.753,0.513,1.137c0.059,0.268,0.105,0.506,0.179,0.771c0.027,0.068,0.012,0.205,0.121,0.194
			c0.031-0.295,0.088-0.578,0.092-0.886c-0.097-0.127-0.226-0.181-0.345-0.26v-0.026c0.015-0.067,0.069-0.144,0.152-0.133
			c0.034-0.039,0.14-0.078,0.093-0.147c-0.203-0.202-0.191-0.548-0.514-0.611c-0.112-0.047-0.14-0.163-0.149-0.272
			C76.26,680.204,76.034,680.16,75.844,680.158L75.844,680.158z"/>
		<path fill-rule="evenodd" clip-rule="evenodd" fill="#FFFFFF" d="M76.03,682.26c0.198,0.182,0.128,0.446,0.113,0.69
			c-0.031,0.149,0.155,0.063,0.214,0.141c0.12,0.178,0.05,0.438,0.008,0.631c0.104-0.157,0.225-0.298,0.306-0.473
			c-0.004-0.066,0.081-0.096,0.078-0.177c0.034-0.113-0.098-0.063-0.151-0.075c-0.047-0.011-0.098-0.043-0.082-0.104
			c0.101-0.194,0.007-0.427-0.032-0.621c-0.046-0.16,0.021-0.372-0.053-0.512C76.306,681.93,75.936,681.969,76.03,682.26
			L76.03,682.26z"/>
		<path fill-rule="evenodd" clip-rule="evenodd" fill="#FFFFFF" d="M76.391,679.504c0.346,0.35,0.598,0.701,0.97,1.038
			c0.008-0.148-0.011-0.29-0.019-0.438c-0.054-0.104-0.155-0.181-0.241-0.259C76.826,679.817,76.683,679.446,76.391,679.504
			L76.391,679.504z"/>
		<path fill-rule="evenodd" clip-rule="evenodd" fill="#FFFFFF" d="M77.295,681.355c0.008,0.033,0.024,0.065,0.039,0.101
			c0.152,0.248,0.296,0.504,0.4,0.771c-0.03-0.286,0.164-0.644-0.093-0.865c-0.035-0.093-0.151-0.062-0.226-0.056L77.295,681.355
			L77.295,681.355z"/>
		<path fill-rule="evenodd" clip-rule="evenodd" fill="#FFFFFF" d="M78.228,684.189c0.108,0.05,0.248-0.04,0.354-0.101
			c0.097-0.023,0.178,0.031,0.251,0.082c0.032,0.061,0,0.119,0.011,0.177c0.235,0.066,0.463,0.152,0.669,0.288l0.064-0.066
			c0.016-0.167-0.116-0.287-0.24-0.38c-0.082-0.047-0.203-0.019-0.259-0.093c0.038-0.062,0.038-0.155,0.034-0.226
			c-0.129,0-0.21-0.038-0.314-0.101c-0.065-0.02-0.123-0.073-0.179,0C78.425,683.901,78.414,684.096,78.228,684.189L78.228,684.189z
			"/>
		<path fill-rule="evenodd" clip-rule="evenodd" fill="#FFFFFF" d="M78.5,679.305c0.096-0.026,0.198-0.055,0.279-0.124
			c0.259-0.237,0.637-0.08,0.939-0.083c-0.058-0.104-0.14-0.209-0.212-0.299c-0.109-0.042-0.21-0.091-0.333-0.091
			c-0.265-0.157-0.443,0.103-0.646,0.231C78.472,679.045,78.445,679.2,78.5,679.305L78.5,679.305z"/>
		<path fill-rule="evenodd" clip-rule="evenodd" fill="#FFFFFF" d="M78.506,680.103c0-0.01,0-0.022,0.012-0.026
			c0.035,0.032-0.004,0.105,0.055,0.121c0.102-0.05,0.194-0.121,0.287-0.187c0.26,0,0.416-0.251,0.67-0.251
			c0.427,0.077,0.851,0.163,1.224,0.372c-0.027-0.251-0.245-0.48-0.466-0.593c-0.124-0.042-0.221,0.023-0.311,0.093
			c-0.26,0.163-0.123-0.237-0.307-0.245c-0.236,0.073-0.481,0.155-0.744,0.131c-0.156,0.058-0.265,0.201-0.439,0.188
			C78.479,679.833,78.46,679.988,78.506,680.103L78.506,680.103z"/>
		<path fill-rule="evenodd" clip-rule="evenodd" fill="#FFFFFF" d="M78.686,680.97c0.081,0.086,0.216,0.069,0.334,0.086l0.337-0.132
			c0.004-0.063-0.102-0.079-0.079-0.147c0.094-0.104,0.222-0.032,0.338-0.074c0.164-0.024,0.33-0.186,0.493-0.066
			c-0.004,0.019,0.009,0.046-0.007,0.066c-0.052,0.12,0.035,0.194,0.127,0.24c0.19,0.035,0.368,0.21,0.559,0.132
			c-0.019-0.159-0.062-0.307-0.101-0.457c-0.159-0.029-0.271-0.159-0.418-0.215c-0.066,0.062-0.151,0.109-0.233,0.102
			c-0.299-0.07-0.657-0.257-0.958-0.065c-0.11,0.13-0.304,0.092-0.451,0.149C78.635,680.721,78.65,680.849,78.686,680.97
			L78.686,680.97z"/>
		<path fill-rule="evenodd" clip-rule="evenodd" fill="#FFFFFF" d="M78.813,683.276c-0.023,0.066-0.088,0.175,0.03,0.207
			c0.25,0.007,0.567-0.121,0.762,0.074c0.065,0.05,0.035,0.154,0.031,0.22l0.325,0.273c0.032-0.164,0.089-0.312,0.093-0.485
			c-0.027-0.126-0.089-0.245-0.197-0.328c-0.213,0-0.339-0.25-0.567-0.217c-0.12-0.028-0.226,0.079-0.346,0.079
			C78.89,683.153,78.86,683.218,78.813,683.276L78.813,683.276z"/>
		<path fill-rule="evenodd" clip-rule="evenodd" fill="#FFFFFF" d="M78.907,681.447c0.05,0.104,0.108,0.275,0.205,0.286
			c0.229-0.099,0.563-0.162,0.82-0.052c0.085,0.014,0.085,0.111,0.066,0.174c0.131,0.076,0.29,0.138,0.43,0.225l-0.039-0.232
			c-0.008-0.252-0.326-0.276-0.345-0.525c-0.26-0.086-0.551-0.112-0.827-0.047c-0.09,0.083-0.217,0.071-0.327,0.094
			C78.883,681.401,78.902,681.42,78.907,681.447L78.907,681.447z"/>
		<path fill-rule="evenodd" clip-rule="evenodd" fill="#FFFFFF" d="M78.972,682.704c0.152-0.042,0.248-0.21,0.412-0.225
			c0.248,0.003,0.47,0.106,0.624,0.319c0.094,0.062,0.074,0.221,0.194,0.221c-0.036-0.191,0.027-0.365,0.02-0.56
			c-0.164-0.271-0.566-0.063-0.718-0.38l-0.288,0.019c-0.206,0.051-0.151,0.292-0.179,0.456
			C79.015,682.604,78.968,682.643,78.972,682.704L78.972,682.704z"/>
		<path fill-rule="evenodd" clip-rule="evenodd" fill="#FFFFFF" d="M80.396,684.402c0.121,0.241,0.385,0.424,0.412,0.699
			c0.063-0.074,0.105-0.16,0.148-0.24c-0.005-0.078-0.094-0.078-0.129-0.141c-0.034-0.101,0.021-0.189,0.036-0.28
			c-0.05-0.144-0.171-0.279-0.306-0.363L80.396,684.402L80.396,684.402z"/>
		<path fill-rule="evenodd" clip-rule="evenodd" fill="#FFFFFF" d="M80.875,683.79l0.279,0.381c0.12-0.191,0.12-0.47,0.073-0.7
			c-0.026-0.042-0.077-0.112-0.147-0.081C80.975,683.498,80.959,683.664,80.875,683.79L80.875,683.79z"/>
		<path fill-rule="evenodd" clip-rule="evenodd" fill="#FFFFFF" d="M79.737,673.166c0.101,0.049,0.198,0.097,0.318,0.104
			c0.083-0.042,0.187-0.074,0.289-0.047c0.143,0.095,0.317-0.02,0.483-0.011c-0.146-0.139-0.314-0.226-0.483-0.305
			C80.125,672.953,79.951,673.107,79.737,673.166L79.737,673.166z"/>
		<path fill-rule="evenodd" clip-rule="evenodd" fill="#FFFFFF" d="M81.255,673.53c0.205,0.02,0.352,0.202,0.491,0.354
			c0.175,0.026,0.308,0.151,0.412,0.28l-0.066-0.208c-0.046-0.205-0.175-0.364-0.306-0.527
			C81.601,673.441,81.418,673.458,81.255,673.53L81.255,673.53z"/>
		<path fill-rule="evenodd" clip-rule="evenodd" fill="#F58220" d="M66.771,671.827l0.113,0.012
			c0.303,0.151,0.792,0.229,0.818,0.668c-0.305,0.12-0.601,0.283-0.845,0.531c-0.186-0.189-0.564-0.085-0.625-0.419
			C66.291,672.304,66.403,671.911,66.771,671.827L66.771,671.827z"/>
		<path fill-rule="evenodd" clip-rule="evenodd" fill="#F58220" d="M67.063,673.795c0.352-0.032,0.693,0.021,1.059-0.012
			c0.089,0.04,0.184,0.117,0.226,0.205c-0.012,0.42-0.14,0.82-0.16,1.25c-0.159,0.066-0.313,0.197-0.353,0.373
			c-0.144,0.042-0.272,0.128-0.412,0.194c-0.063-0.131-0.05-0.331,0.058-0.438c0.152-0.215,0.544-0.164,0.512-0.501
			c0.102-0.163,0.004-0.374,0.008-0.543c-0.039-0.127-0.077,0.043-0.139,0.04c-0.125,0.026-0.252,0.034-0.36-0.027
			c-0.083-0.087-0.184-0.157-0.206-0.272c-0.108-0.055-0.237-0.14-0.291-0.252L67.063,673.795L67.063,673.795z"/>
		<path fill-rule="evenodd" clip-rule="evenodd" fill="#F58220" d="M67.49,676.326c0.166,0.024,0.341-0.049,0.484,0.031
			c-0.031,0.055-0.112,0.077-0.179,0.092l-0.259,0.121C67.439,676.547,67.494,676.391,67.49,676.326L67.49,676.326z"/>
		<path fill-rule="evenodd" clip-rule="evenodd" fill="#F58220" d="M68.168,673.084c0.167-0.055,0.346-0.167,0.524-0.112
			c-0.127,0.129-0.229,0.295-0.325,0.45l-0.533-0.011C67.893,673.272,68.04,673.156,68.168,673.084L68.168,673.084z"/>
		<path fill-rule="evenodd" clip-rule="evenodd" fill="#F58220" d="M69.725,672.958c0.221-0.04,0.209,0.248,0.412,0.261
			c0.035,0.046,0.085,0.088,0.066,0.158c-0.117,0.046-0.288,0.024-0.419,0.055c-0.175-0.097-0.063-0.401-0.338-0.38
			c-0.015-0.023-0.047-0.07-0.008-0.085C69.523,672.934,69.636,672.945,69.725,672.958L69.725,672.958z"/>
		<path fill-rule="evenodd" clip-rule="evenodd" fill="#F58220" d="M69.585,673.998c0.098-0.135,0.244-0.147,0.384-0.174l1.005,0.02
			c0.042,0.039-0.039,0.072-0.039,0.119c-0.063,0.06-0.151,0.075-0.206,0.13c-0.132,0.003-0.121,0.158-0.213,0.224
			c-0.143,0.144-0.353,0.079-0.521,0.055c-0.057-0.042-0.124-0.1-0.152-0.167l-0.046,0.047c0.059,0.218,0.043,0.458,0.085,0.679
			l0.241,0.161c0.003,0.356,0.423,0.26,0.606,0.458c-0.042,0.128-0.129,0.237-0.221,0.346c-0.148-0.144-0.314-0.238-0.492-0.299
			c-0.016-0.21-0.245-0.333-0.373-0.439c-0.036-0.379-0.044-0.768-0.105-1.136L69.585,673.998L69.585,673.998z"/>
		<path fill-rule="evenodd" clip-rule="evenodd" fill="#F58220" d="M69.951,676.391h0.465l-0.059,0.246l-0.465-0.199
			C69.881,676.399,69.923,676.387,69.951,676.391L69.951,676.391z"/>
		<path fill-rule="evenodd" clip-rule="evenodd" fill="#F58220" d="M70.789,671.995l0.346-0.109c0.197,0.093,0.384,0.21,0.565,0.342
			c0.144,0.265,0.121,0.621,0.055,0.916c-0.104,0.116-0.334,0-0.419,0.187H71.32c-0.128-0.365-0.492-0.689-0.831-0.858
			C70.543,672.285,70.602,672.104,70.789,671.995L70.789,671.995z"/>
		<path fill-rule="evenodd" clip-rule="evenodd" fill="#FFFFFF" d="M78.883,686.782h2.071c0.307-0.046,0.633-0.04,0.877-0.265
			c1.037,0.16,2.088-0.098,2.902-0.668c0.431-0.347,0.817-0.749,1.129-1.187c0.276-0.386,0.494-0.747,0.634-1.18
			c0.105-0.267,0.188-0.546,0.25-0.832c0.295-1.345,0.141-2.849-0.296-4.129c-0.082-0.237-0.172-0.467-0.272-0.686
			c-0.546-1.129-1.29-2.347-2.436-3.062c-0.646-0.403-1.24-1.026-1.604-1.67c-0.197-0.18-0.388-0.416-0.643-0.458
			c0.069,0.117,0.147,0.228,0.167,0.364l-0.016,0.02c-0.271,0.008-0.485-0.135-0.671-0.311l0.206-0.186
			c-0.079-0.038-0.167-0.053-0.253-0.072c-0.783-0.089-1.428,0.271-2.122,0.447l-0.012,0.037c0.427,0.19,0.516,0.66,0.764,0.979
			c0.062-0.075,0.167-0.021,0.252-0.028c0.125,0.007,0.241,0.098,0.36,0.066c0.004-0.104-0.053-0.185-0.073-0.278
			c0.073-0.036,0.164-0.005,0.246,0c0.225,0.132,0.585-0.024,0.725,0.278c-0.256,0.017-0.497,0.07-0.738,0.129
			c0.016,0.096,0.112,0.174,0.105,0.271c-0.207-0.084-0.423-0.139-0.653-0.166l-0.01,0.033c0.291,0.343,0.689,0.545,1.097,0.665
			c0.586,0.136,1.103-0.144,1.668-0.046c1.391,0.637,2.578,2.093,3.095,3.474c0.025,0.066,0.048,0.134,0.072,0.201
			c0.433,1.263,0.515,2.814,0.082,4.129c-0.23,0.549-0.485,1.064-0.892,1.511c-0.153,0.189-0.324,0.358-0.509,0.501
			c-0.582,0.454-1.301,0.654-2.041,0.449c-0.046-0.03-0.139-0.037-0.125-0.119c0.026-0.108,0.05-0.22,0.07-0.33
			c0.124-0.632,0.18-1.295,0.148-1.958c-0.001-0.029-0.003-0.057-0.003-0.085c-0.042-0.962-0.233-1.829-0.587-2.662
			c-0.227-0.479-0.497-1-0.836-1.468c-0.404-0.558-0.909-1.04-1.554-1.281c-0.396-0.105-0.886-0.125-1.184,0.206
			c-0.212,0.188-0.302,0.438-0.271,0.713c-0.333,0.213-0.709,0.327-1.118,0.362c-0.099,0.009-0.203,0.046-0.306,0.044
			c-0.099,0.005-0.195,0-0.289-0.012c-0.492-0.059-0.99-0.325-1.366-0.628c-0.008-0.2-0.021-0.393-0.028-0.605
			c-0.217-0.113-0.396-0.327-0.411-0.578l0.021-0.02c0.123,0.039,0.231,0.101,0.344,0.167c-0.051-0.304-0.109-0.602-0.26-0.866
			c-0.14-0.057-0.28-0.104-0.412-0.174c-0.151-0.102-0.248-0.283-0.271-0.45c0.135,0.132,0.372,0.085,0.476,0.225
			c-0.181-0.54-0.186-1.156-0.484-1.65c-0.151-0.365-0.547-0.532-0.818-0.799c-0.106-0.128-0.147-0.306-0.338-0.326
			c-0.155-0.039-0.167-0.213-0.195-0.325c0.098,0.01,0.179,0.076,0.26,0.093c-0.225-0.599-0.423-1.262-1.032-1.641l-0.105,0.063
			c-0.237,0.037-0.488,0.051-0.726,0.06c0.104-0.156,0.292-0.223,0.439-0.292c-0.172-0.126-0.313-0.158-0.526-0.195
			c-0.124,0.125-0.348,0.187-0.506,0.222l-0.019-0.016c-0.005-0.138-0.037-0.31,0.174-0.346c-0.202-0.096-0.537-0.057-0.743,0
			c-0.059,0.151-0.223,0.288-0.213,0.466c-0.119,0.124-0.205,0.291-0.329,0.38c-0.003-0.299,0.124-0.575,0.177-0.826
			c-0.174,0.066-0.351,0.158-0.522,0.241c-0.276-0.16-0.566-0.319-0.861-0.438c-0.026-0.013-0.085-0.024-0.073,0.026
			c0.252,0.183,0.154,0.524,0.181,0.784l-0.16-0.13c-0.077-0.198-0.302-0.343-0.34-0.56c-0.264,0.05-0.433,0.121-0.678,0.224
			l-0.034,0.021c0.182,0,0.338,0.143,0.427,0.287c-0.276,0.015-0.521-0.094-0.792-0.121c-0.028-0.028-0.05-0.059-0.094-0.055
			c-0.136,0.05-0.252,0.149-0.373,0.241c-0.267,0.264-0.539,0.555-0.667,0.904c0.089,0.016,0.202,0.012,0.267,0.066
			c-0.146,0.089-0.275,0.24-0.418,0.325c-0.05,0.203-0.042,0.431-0.054,0.652c-0.112,0.172-0.264,0.321-0.337,0.512
			c-0.241,0.78-0.304,1.646-0.269,2.531c-0.078,0.075-0.179,0.121-0.252,0.179l0.008,0.791h0.018
			c0.037-0.166,0.235-0.259,0.354-0.372h0.04c-0.019,0.179-0.043,0.356-0.046,0.539l-0.226,0.188
			c-0.224,0.198-0.035,0.496-0.053,0.744c0.015,0.067,0.025,0.164,0.074,0.179c0.026-0.097,0.112-0.167,0.166-0.251
			c0.098-0.025,0.182-0.103,0.272-0.114c-0.05,0.193-0.116,0.384-0.194,0.571c-0.037,0.023-0.081,0.057-0.119,0.096
			c-0.039,0.044-0.07,0.091-0.077,0.145c0.173,0.919,0.448,1.828,0.762,2.694c-0.213,0.36-0.334,0.786-0.512,1.158
			c-0.025,0.054-0.049,0.105-0.071,0.159c-0.177,0.453-0.232,0.956-0.454,1.39c-0.09-0.063-0.186-0.109-0.287-0.152
			c-0.42-0.14-0.904-0.049-1.21,0.271c-0.272-0.05-0.553-0.004-0.767,0.139c-0.152,0.116-0.271,0.254-0.338,0.416
			c-0.045,0.112-0.068,0.235-0.061,0.369c-0.175,0.122-0.268,0.306-0.326,0.493c-0.082,0.42,0.066,0.858,0.306,1.179H78.883
			L78.883,686.782z"/>
		<path fill-rule="evenodd" clip-rule="evenodd" fill="#F26722" d="M86.449,678.522c-0.082-0.237-0.172-0.467-0.272-0.686
			c-0.546-1.129-1.29-2.347-2.436-3.062c-0.646-0.403-1.24-1.026-1.604-1.67c-0.197-0.18-0.388-0.416-0.643-0.458
			c0.069,0.117,0.147,0.228,0.167,0.364l-0.016,0.02c-0.271,0.008-0.485-0.135-0.671-0.311l0.206-0.186
			c-0.079-0.038-0.167-0.053-0.253-0.072c-0.783-0.089-1.428,0.271-2.122,0.447l-0.012,0.037c0.427,0.19,0.516,0.66,0.764,0.979
			c0.062-0.075,0.167-0.021,0.252-0.028c0.125,0.007,0.241,0.098,0.36,0.066c0.004-0.104-0.053-0.185-0.073-0.278
			c0.073-0.036,0.164-0.005,0.246,0c0.225,0.132,0.585-0.024,0.725,0.278c-0.256,0.017-0.497,0.07-0.738,0.129
			c0.016,0.096,0.112,0.174,0.105,0.271c-0.207-0.084-0.423-0.139-0.653-0.166l-0.01,0.033c0.291,0.343,0.689,0.545,1.097,0.665
			c0.586,0.136,1.103-0.144,1.668-0.046c1.391,0.637,2.578,2.093,3.095,3.474c0.025,0.066,0.048,0.134,0.072,0.201
			c0.433,1.263,0.515,2.814,0.082,4.129c-0.23,0.549-0.485,1.064-0.892,1.511c-0.153,0.189-0.324,0.358-0.509,0.501
			c-0.582,0.454-1.301,0.654-2.041,0.449c-0.046-0.03-0.139-0.037-0.125-0.119c0.026-0.108,0.05-0.22,0.07-0.33
			c0.124-0.632,0.18-1.295,0.148-1.958c-0.001-0.029-0.003-0.057-0.003-0.085c-0.042-0.962-0.233-1.829-0.587-2.662
			c-0.227-0.479-0.497-1-0.836-1.468c-0.404-0.558-0.909-1.04-1.554-1.281c-0.396-0.105-0.886-0.125-1.184,0.206
			c-0.212,0.188-0.302,0.438-0.271,0.713c-0.333,0.213-0.709,0.327-1.118,0.362c-0.099,0.009-0.203,0.046-0.306,0.044
			c-0.099,0.005-0.195,0-0.289-0.012c-0.492-0.059-0.99-0.325-1.366-0.628c-0.008-0.2-0.021-0.393-0.028-0.605
			c-0.217-0.113-0.396-0.327-0.411-0.578l0.021-0.02c0.123,0.039,0.231,0.101,0.344,0.167c-0.051-0.304-0.109-0.602-0.26-0.866
			c-0.14-0.057-0.28-0.104-0.412-0.174c-0.151-0.102-0.248-0.283-0.271-0.45c0.135,0.132,0.372,0.085,0.476,0.225
			c-0.181-0.54-0.186-1.156-0.484-1.65c-0.151-0.365-0.547-0.532-0.818-0.799c-0.106-0.128-0.147-0.306-0.338-0.326
			c-0.155-0.039-0.167-0.213-0.195-0.325c0.098,0.01,0.179,0.076,0.26,0.093c-0.225-0.599-0.423-1.262-1.032-1.641l-0.105,0.063
			c-0.237,0.037-0.488,0.051-0.726,0.06c0.104-0.156,0.292-0.223,0.439-0.292c-0.172-0.126-0.313-0.158-0.526-0.195
			c-0.124,0.125-0.348,0.187-0.506,0.222l-0.019-0.016c-0.005-0.138-0.037-0.31,0.174-0.346c-0.202-0.096-0.537-0.057-0.743,0
			c-0.059,0.151-0.223,0.288-0.213,0.466c-0.119,0.124-0.205,0.291-0.329,0.38c-0.003-0.299,0.124-0.575,0.177-0.826
			c-0.174,0.066-0.351,0.158-0.522,0.241c-0.276-0.16-0.566-0.319-0.861-0.438c-0.026-0.013-0.085-0.024-0.073,0.026
			c0.252,0.183,0.154,0.524,0.181,0.784l-0.16-0.13c-0.077-0.198-0.302-0.343-0.34-0.56c-0.264,0.05-0.433,0.121-0.678,0.224
			l-0.034,0.021c0.182,0,0.338,0.143,0.427,0.287c-0.276,0.015-0.521-0.094-0.792-0.121c-0.028-0.028-0.05-0.059-0.094-0.055
			c-0.136,0.05-0.252,0.149-0.373,0.241c-0.267,0.264-0.539,0.555-0.667,0.904c0.089,0.016,0.202,0.012,0.267,0.066
			c-0.146,0.089-0.275,0.24-0.418,0.325c-0.05,0.203-0.042,0.431-0.054,0.652c-0.112,0.172-0.264,0.321-0.337,0.512
			c-0.241,0.78-0.304,1.646-0.269,2.531c-0.078,0.075-0.179,0.121-0.252,0.179l0.008,0.791h0.018
			c0.037-0.166,0.235-0.259,0.354-0.372h0.04c-0.019,0.179-0.043,0.356-0.046,0.539l-0.226,0.188
			c-0.224,0.198-0.035,0.496-0.053,0.744c0.015,0.067,0.025,0.164,0.074,0.179c0.026-0.097,0.112-0.167,0.166-0.251
			c0.098-0.025,0.182-0.103,0.272-0.114c-0.05,0.193-0.116,0.384-0.194,0.571c-0.037,0.023-0.081,0.057-0.119,0.096
			c-0.039,0.044-0.07,0.091-0.077,0.145c0.173,0.919,0.448,1.828,0.762,2.694c-0.213,0.36-0.334,0.786-0.512,1.158
			c-0.025,0.054-0.049,0.105-0.071,0.159c-0.177,0.453-0.232,0.956-0.454,1.39c-0.09-0.063-0.186-0.109-0.287-0.152
			c-0.42-0.14-0.904-0.049-1.21,0.271c-0.272-0.05-0.553-0.004-0.767,0.139c-0.152,0.116-0.271,0.254-0.338,0.416
			c-0.045,0.112-0.068,0.235-0.061,0.369c-0.175,0.122-0.268,0.306-0.326,0.493c-0.082,0.42,0.066,0.858,0.306,1.179h6.858
			c-0.101-0.121-0.193-0.288-0.264-0.43c-0.147-0.222-0.046-0.538-0.062-0.792c0.14-0.283,0.281-0.566,0.442-0.842
			c0.032-0.055,0.064-0.109,0.097-0.164l0.314-0.121c0.167,0,0.308-0.119,0.467-0.076c0.213,0.213,0.213-0.213,0.419-0.232
			c0.481-0.062,0.958-0.016,1.229,0.392c0,0.054,0.086,0.054,0.066,0.104c-0.062,0.019-0.121-0.02-0.186-0.02
			c-0.296-0.072-0.641-0.26-0.932-0.092c-0.011,0.07-0.026,0.14-0.04,0.21c-0.015,0.074-0.028,0.146-0.035,0.216
			c0.191,0.055,0.35,0.19,0.493,0.338c0.098-0.19,0.304-0.275,0.487-0.338c0.158,0.035,0.333,0.039,0.465,0.141
			c0.245,0.224,0.124,0.607,0.102,0.896c0.22,0.123,0.465,0.193,0.69,0.313c-0.106,0.093-0.244,0.131-0.373,0.18l-0.373-0.076
			c-0.043-0.03-0.117-0.03-0.132-0.084c-0.124,0.132-0.275,0.308-0.352,0.478h5.316c-0.07-0.159-0.152-0.284-0.249-0.43
			c-0.109-0.235-0.066-0.552-0.078-0.8l0.497-0.756c0.272-0.004,0.579-0.106,0.875-0.055c0.015-0.007,0.029-0.017,0.042-0.023
			c0.122-0.083,0.158-0.282,0.341-0.257c0.327-0.089,0.575,0.06,0.819,0.207c-0.007,0.019-0.015,0.035-0.025,0.05
			c-0.102,0.164-0.293-0.02-0.433,0.03c-0.059,0.063,0.028,0.136,0.039,0.206c0.051,0.071-0.051,0.063-0.085,0.073
			c-0.082,0.012-0.17-0.007-0.233-0.073c-0.015-0.02-0.004-0.043-0.034-0.046c-0.07,0.117-0.172,0.221-0.198,0.353
			c0.088,0.086,0.208,0.17,0.252,0.279c0.088,0.128-0.071,0.225-0.102,0.338c-0.012,0.022-0.047,0.022-0.059,0
			c-0.082-0.046-0.151-0.164-0.24-0.132c-0.078,0.345,0.026,0.691-0.02,1.037c0.151,0.035,0.33-0.009,0.492,0l0.067-0.73
			c0.069-0.474,0.35-0.869,0.679-1.23c0.356-0.243,0.587,0.237,0.849,0.404c0.043,0.009,0.028,0.054,0.046,0.081
			c-0.003,0.078-0.085,0.108-0.139,0.133c-0.164,0.059-0.283-0.121-0.384-0.227c-0.098,0.106-0.14,0.245-0.253,0.327l0.039,0.012
			c0.129,0.126,0.252,0.263,0.281,0.435c-0.017,0.155-0.094,0.307-0.235,0.383c-0.104-0.178-0.19-0.376-0.258-0.559
			c0.002,0.008-0.004,0.012-0.012,0.021c-0.214,0.057-0.271,0.298-0.308,0.493c0.012,0.189-0.132,0.267-0.092,0.458h2.767
			c0.307-0.046,0.633-0.04,0.877-0.265c1.037,0.16,2.088-0.098,2.902-0.668c0.431-0.347,0.817-0.749,1.129-1.187
			c0.276-0.386,0.494-0.747,0.634-1.18c0.105-0.267,0.188-0.546,0.25-0.832C87.041,681.306,86.887,679.802,86.449,678.522
			L86.449,678.522z"/>
		<path fill-rule="evenodd" clip-rule="evenodd" fill="#F58220" d="M68.639,685.727c0.152-0.098,0.396-0.121,0.431-0.346
			c-0.062-0.047-0.116-0.106-0.186-0.121l-0.16,0.046c0.012-0.094,0.063-0.198,0.095-0.298l0.511-0.168
			c-0.07,0.235-0.097,0.525-0.121,0.793c0.047,0.396,0.105,0.819,0.307,1.149h-0.551C68.902,686.416,68.522,686.152,68.639,685.727
			L68.639,685.727z"/>
		<path fill-rule="evenodd" clip-rule="evenodd" fill="#F58220" d="M69.831,685.26h0.031l0.373,0.337l0.054-0.011
			c-0.029,0.396-0.049,0.783-0.054,1.195h-0.404c-0.082-0.385-0.218-0.789-0.202-1.204C69.698,685.473,69.746,685.342,69.831,685.26
			L69.831,685.26z"/>
		<path fill-rule="evenodd" clip-rule="evenodd" fill="#F58220" d="M70.661,685.633c0.073-0.097,0.105-0.26,0.252-0.278
			c0.105,0.001,0.203,0.019,0.28,0.093c0.135,0.171,0.003,0.389-0.047,0.557c-0.055,0.261-0.148,0.533-0.233,0.777h-0.391
			L70.661,685.633L70.661,685.633z"/>
		<path fill-rule="evenodd" clip-rule="evenodd" fill="#F58220" d="M76.548,685.512c0.086,0.108,0.112,0.257,0.241,0.354
			c0.113-0.156,0.14-0.396,0.085-0.594l-0.111-0.114c0.143-0.034,0.294-0.046,0.439-0.072c-0.064,0.206-0.18,0.393-0.16,0.632
			c0.003,0.35,0.063,0.698,0.093,1.064h-0.427c-0.155-0.341-0.31-0.668-0.298-1.064C76.455,685.647,76.486,685.565,76.548,685.512
			L76.548,685.512z"/>
		<path fill-rule="evenodd" clip-rule="evenodd" fill="#FFFFFF" d="M78.384,678.055c-0.003,0.101-0.077,0.215-0.012,0.299
			c0.094-0.105,0.248-0.101,0.374-0.146c0.346-0.03,0.675,0.077,0.997,0.154c-0.082-0.127-0.136-0.272-0.226-0.388
			c-0.179-0.048-0.45,0.078-0.481-0.187c-0.109-0.092-0.279-0.025-0.392-0.019C78.536,677.846,78.447,677.943,78.384,678.055
			L78.384,678.055z"/>
		<rect x="66.517" y="674.701" fill-rule="evenodd" clip-rule="evenodd" fill="#FFFFFF" width="0.008" height="0.005"/>
		<path fill-rule="evenodd" clip-rule="evenodd" fill="#FFFFFF" d="M67.933,678.154l0.234-0.226c0.02,0,0.035,0.004,0.046,0.019
			l-0.019,0.431c0.112,0.105,0.252,0.139,0.398,0.147c0.012-0.117,0.102-0.199,0.152-0.299c0.042-0.081,0.016-0.201,0.101-0.258
			l0.028,0.025c0.027,0.129,0.019,0.272,0.084,0.384c0.008,0.062,0.019,0.139,0.027,0.194c0.171,0.008,0.326-0.039,0.458-0.101
			c-0.007-0.147,0.043-0.267,0.066-0.403c0.035-0.045-0.043-0.132,0.054-0.127c0.054,0.115,0.151,0.236,0.207,0.36
			c0.225-0.229,0.318-0.527,0.372-0.838c-0.066-0.09-0.167-0.09-0.245-0.147c-0.66-0.214-1.505-0.255-2.142,0.073
			C67.713,677.653,67.766,677.944,67.933,678.154L67.933,678.154z"/>
		<path fill-rule="evenodd" clip-rule="evenodd" fill="#FFFFFF" d="M61.766,685.437c-0.023,0.3,0,0.581,0.019,0.875
			c0.062,0.097,0.174,0.21,0.288,0.218l0.018-0.198c0.047-0.275-0.101-0.568,0.056-0.802c0.108,0.035,0.217,0.09,0.31,0.14
			c0.047-0.255-0.02-0.556-0.263-0.71L61.766,685.437L61.766,685.437z"/>
		<path fill-rule="evenodd" clip-rule="evenodd" fill="#FFFFFF" d="M62.725,685.018c-0.152,0.453-0.264,1.013-0.082,1.492
			c0.105-0.07,0.213-0.138,0.306-0.233c-0.02-0.364-0.07-0.754,0.148-1.058c0.189,0.059,0.317,0.241,0.391,0.42
			c0.129-0.162,0.171-0.389,0.122-0.605c0.008-0.172-0.187-0.132-0.279-0.203c0.031-0.144,0.027-0.308,0.178-0.392l-0.465,0.047
			C62.922,684.657,62.792,684.824,62.725,685.018L62.725,685.018z"/>
		<path fill-rule="evenodd" clip-rule="evenodd" fill="#FFFFFF" d="M63.683,686.358c0.02,0.035,0,0.098,0.041,0.106
			c0.056-0.328,0.321-0.539,0.465-0.825c0.069-0.097,0.066-0.233,0.178-0.308c0.152,0,0.26,0.109,0.409,0.122
			c0.046,0.035-0.024,0.065-0.028,0.105c-0.031,0.263-0.131,0.483-0.112,0.754h0.027c0.206-0.219,0.345-0.452,0.497-0.701
			l0.027-0.22c0.035-0.265-0.252-0.435-0.439-0.544l0.167-0.213l-0.233-0.083c-0.271,0.028-0.516,0.141-0.706,0.354
			C63.737,685.341,63.699,685.832,63.683,686.358L63.683,686.358z"/>
		<path fill-rule="evenodd" clip-rule="evenodd" fill="#FFFFFF" d="M64.727,684.056c0.089,0.026,0.172-0.047,0.259-0.008
			c0.357,0.132,0.73,0.268,0.999,0.566l0.318,0.811l0.159-0.501l-0.105-0.27c-0.089-0.195-0.334-0.18-0.501-0.187
			c-0.069-0.078,0.004-0.167,0.028-0.24c0.082-0.277-0.256-0.261-0.392-0.373c0.008-0.167-0.194-0.11-0.306-0.125l-0.039-0.046
			c-0.024-0.035-0.082-0.035-0.113-0.008c-0.007-0.012-0.023-0.02-0.015-0.039l-0.085,0.019
			C64.813,683.761,64.731,683.896,64.727,684.056L64.727,684.056z"/>
		<path fill-rule="evenodd" clip-rule="evenodd" fill="#FFFFFF" d="M64.953,683.162c0.012,0.052,0.042,0.102,0.081,0.135
			c0.175-0.049,0.343-0.169,0.543-0.096c0.26,0.229,0.531,0.471,0.847,0.594l0.113-0.019c0.07,0.023,0.146,0.028,0.193,0.104
			c0.044,0.105-0.066,0.167-0.1,0.253c0.174,0.128,0.105,0.355,0.212,0.512l0.28-0.372c-0.065-0.164,0.003-0.443-0.252-0.459
			c-0.086-0.042-0.144-0.127-0.14-0.225c-0.167-0.153-0.373-0.218-0.539-0.373c-0.137-0.108-0.218-0.275-0.392-0.314
			c-0.121-0.067-0.253-0.101-0.392-0.132C65.146,682.731,65.123,683.043,64.953,683.162L64.953,683.162z"/>
		<path fill-rule="evenodd" clip-rule="evenodd" fill="#FFFFFF" d="M65.325,682.398l0.047,0.075
			c0.194-0.012,0.368-0.097,0.559-0.094c0.128,0.078,0.294,0.074,0.427,0.14c0.105,0.144,0.218,0.308,0.373,0.403
			c0.314,0.047,0.489,0.385,0.598,0.635v-0.121c0.046-0.168-0.004-0.361-0.065-0.514c-0.079-0.077-0.191-0.127-0.272-0.196
			c-0.015-0.051-0.004-0.075,0.012-0.121c-0.121-0.127-0.3-0.198-0.447-0.298c-0.207-0.3-0.602-0.217-0.916-0.3L65.325,682.398
			L65.325,682.398z"/>
		<path fill-rule="evenodd" clip-rule="evenodd" fill="#FFFFFF" d="M65.319,679.551c0.034,0.12,0.077,0.272,0.1,0.4
			c0.108-0.239,0.323-0.35,0.512-0.546c-0.108-0.074-0.244-0.11-0.364-0.132v-0.008C65.48,679.349,65.349,679.435,65.319,679.551
			L65.319,679.551z"/>
		<path fill-rule="evenodd" clip-rule="evenodd" fill="#FFFFFF" d="M66.023,680.828l0.174-0.178
			c0.175-0.179,0.319-0.385,0.346-0.614c-0.124-0.073-0.288-0.022-0.407,0.02C66.093,680.307,66.027,680.556,66.023,680.828
			L66.023,680.828z"/>
		<path fill-rule="evenodd" clip-rule="evenodd" fill="#FFFFFF" d="M66.151,681.376c0.269,0.014,0.528,0.068,0.745-0.083
			l0.218-0.699c-0.07-0.001-0.14-0.035-0.206-0.011C66.766,680.901,66.478,681.217,66.151,681.376L66.151,681.376z"/>
		<path fill-rule="evenodd" clip-rule="evenodd" fill="#FFFFFF" d="M66.23,678.9c0.174,0.255,0.466,0.542,0.764,0.625
			c-0.034-0.327-0.313-0.55-0.457-0.831l-0.007-0.094c-0.112-0.109-0.249-0.182-0.365-0.241
			C66.145,678.545,66.196,678.725,66.23,678.9L66.23,678.9z"/>
		<path fill-rule="evenodd" clip-rule="evenodd" fill="#FFFFFF" d="M67.176,681.407c0.207,0.034,0.427,0,0.617-0.058
			c0.276-0.068,0.428-0.37,0.52-0.606h-0.345l-0.372,0.365C67.448,681.185,67.308,681.301,67.176,681.407L67.176,681.407z"/>
		<path fill-rule="evenodd" clip-rule="evenodd" fill="#FFFFFF" d="M67.133,678.545c0.06,0.303,0.187,0.579,0.362,0.84l0.046-0.579
			L67.133,678.545L67.133,678.545z"/>
		<path fill-rule="evenodd" clip-rule="evenodd" fill="#FFFFFF" d="M68.407,680.055c0.023-0.193-0.058-0.418-0.081-0.615
			c-0.117-0.079-0.279-0.072-0.4-0.148C67.933,679.597,68.173,679.856,68.407,680.055L68.407,680.055z"/>
		<path fill-rule="evenodd" clip-rule="evenodd" fill="#FFFFFF" d="M68.053,682.027c0.244-0.078,0.481-0.162,0.708-0.286
			c0.142-0.208,0.359-0.392,0.391-0.633c-0.179,0.051-0.333-0.008-0.5,0.073c-0.101,0.182-0.163,0.388-0.358,0.52
			C68.262,681.833,68.12,681.922,68.053,682.027L68.053,682.027z"/>
		<path fill-rule="evenodd" clip-rule="evenodd" fill="#FFFFFF" d="M68.433,682.504l0.291,0.38c0.155,0.05,0.349,0.036,0.485-0.052
			l-0.104-0.347C68.898,682.563,68.655,682.539,68.433,682.504L68.433,682.504z"/>
		<path fill-rule="evenodd" clip-rule="evenodd" fill="#FFFFFF" d="M68.918,679.757l0.113,0.51c0.272-0.219,0.327-0.542,0.32-0.882
			C69.195,679.563,69.105,679.671,68.918,679.757L68.918,679.757z"/>
		<path fill-rule="evenodd" clip-rule="evenodd" fill="#FFFFFF" d="M69.684,680.661c0.004,0.073,0.023,0.143,0.065,0.202
			c0.303,0.108,0.334,0.478,0.615,0.617c0.182,0.081,0.392-0.02,0.55-0.093c-0.12-0.137-0.255-0.229-0.373-0.374
			c-0.082-0.035-0.163-0.085-0.158-0.186L69.684,680.661L69.684,680.661z"/>
		<path fill-rule="evenodd" clip-rule="evenodd" fill="#FFFFFF" d="M69.924,682.493c0.131,0.15,0.31,0.23,0.496,0.271
			c-0.031-0.042,0.02,0,0.028-0.027l-0.233-0.513c-0.116,0.005-0.237,0.028-0.345,0.02
			C69.878,682.331,69.897,682.415,69.924,682.493L69.924,682.493z"/>
		<path fill-rule="evenodd" clip-rule="evenodd" fill="#FFFFFF" d="M70.335,680.102c-0.109-0.252-0.154-0.559-0.186-0.838
			c-0.116,0.141-0.237,0.23-0.346,0.374C69.753,679.924,70.165,679.992,70.335,680.102L70.335,680.102z"/>
		<path fill-rule="evenodd" clip-rule="evenodd" fill="#FFFFFF" d="M70.809,679.838c0.14,0.184,0.447,0.122,0.617,0.067
			c-0.082-0.142-0.345-0.222-0.391-0.373c-0.027-0.269-0.083-0.528-0.167-0.772C70.731,679.089,70.568,679.48,70.809,679.838
			L70.809,679.838z"/>
		<path fill-rule="evenodd" clip-rule="evenodd" fill="#FFFFFF" d="M71.053,680.661c0.388,0.284,0.77,0.614,1.312,0.493
			c0.039-0.027,0.105-0.023,0.114-0.073c-0.16-0.102-0.331-0.18-0.493-0.273l-0.188-0.271h-0.084
			C71.503,680.605,71.278,680.635,71.053,680.661L71.053,680.661z"/>
		<path fill-rule="evenodd" clip-rule="evenodd" fill="#FFFFFF" d="M71.061,683.808h0.027c0.233-0.186,0.509-0.248,0.783-0.325
			c0.075,0.027,0.028,0.109,0.095,0.139c0.166-0.07,0.368-0.054,0.538-0.112c0.207,0.007,0.374,0.011,0.54,0.1
			c0.133,0.177,0.381,0.155,0.551,0.272l-0.028-0.272c-0.361-0.421-0.923-0.452-1.443-0.446l-0.013-0.052
			c-0.123,0-0.263,0.026-0.379,0.08c-0.167,0.008-0.326,0.091-0.485,0.139C71.174,683.479,71.116,683.657,71.061,683.808
			L71.061,683.808z"/>
		<path fill-rule="evenodd" clip-rule="evenodd" fill="#FFFFFF" d="M71.373,679.039c0.151,0.199,0.376,0.352,0.632,0.298
			c-0.131-0.127-0.283-0.263-0.292-0.446c0.04-0.346-0.341-0.373-0.526-0.551C71.249,678.573,71.24,678.833,71.373,679.039
			L71.373,679.039z"/>
		<path fill-rule="evenodd" clip-rule="evenodd" fill="#FFFFFF" d="M71.333,684.495h0.046c0.205-0.127,0.504-0.031,0.706-0.167
			c0.112-0.057,0.121,0.098,0.197,0.14c0.191,0.116,0.214,0.465,0.482,0.385c0.321,0.167,0.24,0.558,0.252,0.845l0.299-0.187
			c-0.028-0.151,0.058-0.333-0.039-0.465c-0.073-0.166-0.275-0.183-0.372-0.318c0.116-0.198-0.148-0.293-0.203-0.436l0.018-0.018
			l0.41,0.053c0.14,0.085,0.191,0.241,0.233,0.385c0.322,0.054,0.399,0.418,0.512,0.652c0.066-0.159,0.094-0.33,0.16-0.484
			c0.004-0.129-0.167-0.129-0.253-0.188c-0.021-0.198-0.112-0.384-0.287-0.503c-0.356-0.09-0.671-0.288-1.063-0.288l-0.326,0.102
			c-0.179,0.043-0.37-0.011-0.505,0.112C71.398,684.13,71.383,684.352,71.333,684.495L71.333,684.495z"/>
		<path fill-rule="evenodd" clip-rule="evenodd" fill="#FFFFFF" d="M71.537,682.896l0.075,0.035c0.16-0.073,0.319-0.16,0.485-0.222
			c0.26-0.073,0.461,0.222,0.679,0.036c0.082-0.058,0.152,0.026,0.213,0.074c0.093,0.17,0.311,0.158,0.474,0.205
			c-0.082-0.221-0.183-0.523-0.465-0.559c-0.113-0.05-0.245-0.045-0.354-0.112c-0.299-0.33-0.492,0.271-0.82,0.124
			C71.709,682.605,71.565,682.726,71.537,682.896L71.537,682.896z"/>
		<path fill-rule="evenodd" clip-rule="evenodd" fill="#FFFFFF" d="M71.612,684.787c0.124,0.104,0.253,0.284,0.447,0.26
			c0.24,0.111,0.139,0.431,0.271,0.598l0.14-0.125l-0.013-0.007l0.021-0.017l0.007,0.01c0.039-0.117-0.015-0.321-0.082-0.458
			c-0.089-0.063-0.194,0.004-0.279-0.054c-0.013-0.126-0.09-0.186-0.179-0.264c-0.063-0.047-0.144,0.015-0.213,0.012L71.612,684.787
			L71.612,684.787z"/>
		<path fill-rule="evenodd" clip-rule="evenodd" fill="#FFFFFF" d="M72.097,680.055c0.127,0.212,0.376,0.347,0.573,0.493
			c0.165,0.074,0.378,0.094,0.552,0.055c-0.167-0.138-0.318-0.292-0.458-0.455c-0.054-0.077-0.067-0.174-0.14-0.243
			C72.443,679.94,72.237,679.935,72.097,680.055L72.097,680.055z"/>
		<path fill-rule="evenodd" clip-rule="evenodd" fill="#FFFFFF" d="M72.311,678.667c0.179,0.221,0.455,0.131,0.707,0.14v-0.027
			l-0.387-0.324C72.521,678.488,72.405,678.585,72.311,678.667L72.311,678.667z"/>
		<path fill-rule="evenodd" clip-rule="evenodd" fill="#FFFFFF" d="M65.167,675.007l0.225,0.697
			c-0.003-0.394,0.179-0.725,0.14-1.128l0.166-0.248l-0.353,0.109C65.251,674.614,65.174,674.793,65.167,675.007L65.167,675.007z"/>
		<path fill-rule="evenodd" clip-rule="evenodd" fill="#FFFFFF" d="M65.319,673.795l0.306-0.178v-0.454
			c-0.129,0.078-0.197,0.209-0.298,0.313L65.319,673.795L65.319,673.795z"/>
		<path fill-rule="evenodd" clip-rule="evenodd" fill="#FFFFFF" d="M71.614,674.501c-0.075,0.098-0.187,0.122-0.281,0.14
			c0.164-0.297,0.241-0.714,0.114-1.051c0.085-0.03,0.178-0.047,0.259-0.094l-0.007-0.008l0.213-0.186
			c0.283-0.194,0.175-0.563,0.279-0.838c-0.139-0.218-0.182-0.482-0.383-0.664l0.012-0.008c-0.159-0.202-0.446-0.179-0.664-0.278
			c-0.288-0.099-0.508,0.1-0.715,0.231c-0.089,0.016-0.034,0.132-0.131,0.129c-0.055,0.143-0.121,0.298-0.159,0.458
			c-0.384-0.056-0.799-0.012-1.105,0.205c-0.165-0.12-0.361-0.143-0.552-0.196c-0.14-0.028-0.298,0.022-0.399-0.056
			c-0.147-0.165-0.18-0.468-0.432-0.511c-0.089-0.031-0.108-0.127-0.108-0.214c-0.167-0.027-0.314-0.105-0.477-0.14
			c-0.248-0.114-0.446,0.067-0.633,0.187c-0.083,0.035-0.175,0.046-0.253,0.093c-0.139,0.218-0.27,0.438-0.361,0.679
			c0.028,0.199,0.114,0.374,0.215,0.539c0.089,0.254,0.369,0.451,0.604,0.552c-0.112,0.385-0.112,0.841,0,1.23
			c0,0-0.005,0.006-0.005,0.005c0,0.001-0.012,0.012-0.012,0.012c-0.038,0-0.078,0.006-0.108-0.012h-0.004
			c0.056,0.371,0.229,0.696,0.512,0.973c0.101,0.035,0.078,0.157,0.12,0.234c0.028,0.037,0.032,0.109,0.02,0.14
			c-0.605-0.019-1.146,0.132-1.63,0.407c-0.125,0.063-0.07,0.233-0.082,0.353c0.343-0.225,0.71-0.392,1.118-0.465
			c0.175-0.011,0.373-0.055,0.541-0.008l0.018,0.334c-0.46,0.241-0.966,0.381-1.36,0.778c0.007,0.117-0.016,0.259,0.019,0.358
			l0.354-0.287c0.342-0.259,0.699-0.48,1.09-0.625c0.105,0.124,0.213,0.256,0.354,0.335c0.236-0.153,0.493-0.265,0.765-0.335
			c0.144-0.085,0.373-0.008,0.466-0.177l0.065-0.354c-0.01-0.007-0.019-0.023-0.038-0.02c-0.182-0.104-0.303-0.286-0.287-0.501
			c-0.063,0.032-0.132,0.052-0.206,0.055c-0.063-0.015-0.12-0.03-0.147-0.092c-0.003-0.078-0.042-0.194,0.035-0.252
			c0.252-0.155,0.578-0.163,0.896-0.14c0.236,0.03,0.578,0.019,0.66,0.297c-0.011,0.083-0.004,0.171-0.085,0.227
			c-0.086,0.047-0.182-0.003-0.26-0.04c-0.062,0.191-0.167,0.405-0.379,0.466l0.025,0.225c0.027,0.101,0.036,0.268,0.194,0.232
			c0.369,0.091,0.694,0.28,1.017,0.486c0.108-0.108,0.194-0.234,0.272-0.346c0.574,0.194,1.07,0.626,1.544,1.025l0.019-0.328
			c-0.451-0.397-0.951-0.681-1.472-0.901c0.021-0.104,0.044-0.208,0.048-0.32c0.616,0.037,1.203,0.225,1.71,0.524l-0.008-0.279
			c-0.535-0.288-1.121-0.478-1.761-0.485c-0.023-0.035-0.032-0.085-0.027-0.119c0.311-0.051,0.531-0.375,0.604-0.654
			c0.161-0.182,0.389-0.378,0.334-0.65c0.007-0.023,0.015-0.047,0.024-0.07C71.619,674.637,71.636,674.566,71.614,674.501
			L71.614,674.501z"/>
		<path fill-rule="evenodd" clip-rule="evenodd" fill="#FFFFFF" d="M72.153,675.5l0.318-0.101l0.036-0.179
			c0.089-0.26-0.102-0.454-0.195-0.659L72.153,675.5L72.153,675.5z"/>
		<path fill-rule="evenodd" clip-rule="evenodd" fill="#FFFFFF" d="M72.956,676.73c0.151,0.166,0.299,0.434,0.567,0.353
			c-0.02-0.113-0.082-0.206-0.121-0.306c-0.069-0.082-0.093-0.314-0.233-0.233c-0.104-0.069-0.131-0.187-0.198-0.279
			C72.941,676.408,72.959,676.585,72.956,676.73L72.956,676.73z"/>
		<path fill-rule="evenodd" clip-rule="evenodd" fill="#FFFFFF" d="M73.01,677.867c0.059,0.081,0.075,0.187,0.132,0.261
			c0.105,0.069,0.26,0.058,0.389,0.046c0.115-0.027,0.189,0.1,0.298,0.027c-0.136-0.085-0.217-0.24-0.344-0.354
			C73.333,677.727,73.169,677.832,73.01,677.867L73.01,677.867z"/>
		<path fill-rule="evenodd" clip-rule="evenodd" fill="#FFFFFF" d="M73.216,679.671c0.268,0.16,0.608,0.315,0.965,0.261
			c0.038-0.02,0.104-0.015,0.113-0.063c-0.222-0.077-0.454-0.298-0.687-0.344c-0.127-0.198-0.293,0.049-0.458,0.035
			C73.153,679.605,73.2,679.64,73.216,679.671L73.216,679.671z"/>
		<path fill-rule="evenodd" clip-rule="evenodd" fill="#FFFFFF" d="M74.022,683.099l0.059,0.124
			c0.058,0.404,0.314,0.775,0.174,1.218c0.117,0.083,0.151,0.219,0.225,0.327h0.02c0.089-0.337,0.028-0.687-0.02-1.025
			C74.515,683.436,74.204,683.257,74.022,683.099L74.022,683.099z"/>
		<path fill-rule="evenodd" clip-rule="evenodd" fill="#FFFFFF" d="M74.089,679.125c0.202,0.156,0.522,0.17,0.757,0.093
			c-0.148-0.081-0.311-0.173-0.431-0.279L74.089,679.125L74.089,679.125z"/>
		<path fill-rule="evenodd" clip-rule="evenodd" fill="#FFFFFF" d="M75.047,680.315c-0.019,0.164,0.089,0.301,0.205,0.382
			c0.043-0.098,0.112-0.179,0.121-0.289c-0.035-0.166-0.127-0.317-0.28-0.43C75.066,680.085,75.035,680.191,75.047,680.315
			L75.047,680.315z"/>
		<path fill-rule="evenodd" clip-rule="evenodd" fill="#FFFFFF" d="M75.058,682.086c-0.028,0.181,0.174,0.205,0.26,0.307
			c0.07,0.084-0.047,0.143-0.047,0.224c0.148,0.191,0.234,0.408,0.234,0.66c0.057-0.236,0.146-0.461,0.178-0.705
			c-0.017-0.172-0.287-0.138-0.246-0.328c0.078-0.193-0.015-0.382-0.065-0.559c-0.015-0.027-0.051-0.08-0.081-0.064
			C75.221,681.779,75.047,681.892,75.058,682.086L75.058,682.086z"/>
		<path fill-rule="evenodd" clip-rule="evenodd" fill="#FFFFFF" d="M75.59,681.163l0.201,0.39c0.089-0.011,0.148-0.095,0.218-0.159
			c0.054-0.163-0.089-0.267-0.131-0.399c-0.036-0.093,0-0.216-0.066-0.298c-0.052-0.031-0.109-0.081-0.167-0.066L75.59,681.163
			L75.59,681.163z"/>
		<path fill-rule="evenodd" clip-rule="evenodd" fill="#FFFFFF" d="M75.85,680.13c0.16,0.097,0.342,0.236,0.428,0.408
			c0.136,0.396,0.353,0.751,0.512,1.135c0.059,0.269,0.104,0.508,0.178,0.771c0.029,0.07,0.013,0.206,0.122,0.195
			c0.03-0.295,0.088-0.578,0.092-0.884c-0.097-0.128-0.224-0.183-0.345-0.26v-0.028c0.017-0.066,0.07-0.144,0.152-0.133
			c0.034-0.038,0.14-0.077,0.093-0.146c-0.203-0.204-0.191-0.549-0.512-0.612c-0.114-0.046-0.141-0.163-0.152-0.271
			C76.265,680.176,76.041,680.133,75.85,680.13L75.85,680.13z"/>
		<path fill-rule="evenodd" clip-rule="evenodd" fill="#FFFFFF" d="M76.037,682.233c0.198,0.182,0.128,0.446,0.112,0.69
			c-0.03,0.149,0.155,0.063,0.213,0.141c0.121,0.179,0.051,0.438,0.008,0.633c0.104-0.159,0.224-0.3,0.306-0.474
			c-0.003-0.065,0.082-0.098,0.078-0.178c0.034-0.113-0.097-0.063-0.152-0.074c-0.047-0.011-0.097-0.043-0.082-0.104
			c0.1-0.195,0.007-0.427-0.031-0.622c-0.047-0.158,0.019-0.372-0.056-0.512C76.312,681.904,75.943,681.941,76.037,682.233
			L76.037,682.233z"/>
		<path fill-rule="evenodd" clip-rule="evenodd" fill="#FFFFFF" d="M76.397,679.478c0.347,0.35,0.599,0.701,0.971,1.039
			c0.007-0.151-0.012-0.291-0.019-0.439c-0.055-0.104-0.156-0.182-0.243-0.26C76.832,679.79,76.688,679.42,76.397,679.478
			L76.397,679.478z"/>
		<path fill-rule="evenodd" clip-rule="evenodd" fill="#FFFFFF" d="M77.3,681.328c0.008,0.034,0.024,0.064,0.041,0.099
			c0.151,0.249,0.294,0.504,0.399,0.773c-0.031-0.288,0.163-0.645-0.094-0.867c-0.035-0.093-0.15-0.061-0.225-0.055L77.3,681.328
			L77.3,681.328z"/>
		<path fill-rule="evenodd" clip-rule="evenodd" fill="#FFFFFF" d="M78.233,684.162c0.108,0.05,0.248-0.038,0.354-0.1
			c0.097-0.024,0.177,0.03,0.251,0.081c0.031,0.061,0,0.121,0.013,0.179c0.233,0.066,0.46,0.151,0.667,0.287l0.066-0.066
			c0.015-0.168-0.117-0.286-0.241-0.381c-0.081-0.046-0.202-0.019-0.259-0.093c0.038-0.063,0.038-0.155,0.034-0.224
			c-0.128,0-0.209-0.039-0.313-0.102c-0.067-0.02-0.125-0.073-0.18,0C78.43,683.874,78.419,684.068,78.233,684.162L78.233,684.162z"
			/>
		<path fill-rule="evenodd" clip-rule="evenodd" fill="#FFFFFF" d="M78.504,679.279c0.097-0.028,0.198-0.055,0.28-0.125
			c0.26-0.236,0.637-0.077,0.939-0.082c-0.058-0.104-0.14-0.209-0.213-0.299c-0.11-0.042-0.21-0.092-0.334-0.092
			c-0.264-0.156-0.442,0.104-0.645,0.232C78.477,679.018,78.45,679.174,78.504,679.279L78.504,679.279z"/>
		<path fill-rule="evenodd" clip-rule="evenodd" fill="#FFFFFF" d="M78.512,680.077c0-0.012,0-0.024,0.012-0.028
			c0.035,0.031-0.004,0.106,0.054,0.121c0.102-0.05,0.194-0.121,0.287-0.186c0.26,0,0.416-0.253,0.671-0.253
			c0.428,0.079,0.85,0.164,1.223,0.372c-0.027-0.252-0.245-0.48-0.465-0.592c-0.125-0.043-0.222,0.022-0.311,0.092
			c-0.26,0.165-0.124-0.237-0.306-0.245c-0.237,0.074-0.482,0.156-0.746,0.131c-0.155,0.06-0.265,0.203-0.439,0.187
			C78.484,679.806,78.466,679.962,78.512,680.077L78.512,680.077z"/>
		<path fill-rule="evenodd" clip-rule="evenodd" fill="#FFFFFF" d="M78.69,680.942c0.082,0.086,0.217,0.07,0.334,0.086l0.337-0.133
			c0.003-0.062-0.101-0.079-0.077-0.148c0.093-0.104,0.221-0.03,0.337-0.072c0.163-0.025,0.329-0.186,0.493-0.065
			c-0.005,0.019,0.007,0.045-0.008,0.065c-0.05,0.12,0.035,0.193,0.129,0.24c0.189,0.034,0.367,0.21,0.557,0.13
			c-0.02-0.157-0.062-0.306-0.1-0.456c-0.159-0.028-0.273-0.16-0.419-0.214c-0.066,0.063-0.152,0.107-0.234,0.101
			c-0.298-0.071-0.656-0.256-0.958-0.065c-0.11,0.131-0.303,0.093-0.451,0.151C78.639,680.693,78.656,680.822,78.69,680.942
			L78.69,680.942z"/>
		<path fill-rule="evenodd" clip-rule="evenodd" fill="#FFFFFF" d="M78.819,683.249c-0.023,0.067-0.089,0.175,0.031,0.206
			c0.248,0.007,0.567-0.121,0.759,0.074c0.067,0.05,0.036,0.154,0.032,0.22l0.325,0.273c0.032-0.163,0.091-0.312,0.095-0.485
			c-0.028-0.125-0.09-0.245-0.198-0.326c-0.214,0-0.338-0.25-0.567-0.219c-0.12-0.028-0.226,0.08-0.346,0.08
			C78.898,683.125,78.865,683.191,78.819,683.249L78.819,683.249z"/>
		<path fill-rule="evenodd" clip-rule="evenodd" fill="#FFFFFF" d="M78.912,681.42c0.051,0.104,0.109,0.274,0.205,0.286
			c0.23-0.1,0.564-0.162,0.819-0.053c0.085,0.015,0.085,0.112,0.067,0.173c0.131,0.078,0.291,0.141,0.43,0.226l-0.039-0.233
			c-0.008-0.252-0.326-0.275-0.345-0.523c-0.26-0.084-0.552-0.113-0.827-0.047c-0.089,0.083-0.218,0.071-0.325,0.094
			C78.889,681.374,78.908,681.393,78.912,681.42L78.912,681.42z"/>
		<path fill-rule="evenodd" clip-rule="evenodd" fill="#FFFFFF" d="M78.978,682.677c0.152-0.043,0.25-0.208,0.413-0.225
			c0.247,0.004,0.469,0.105,0.625,0.319c0.092,0.062,0.073,0.221,0.194,0.221c-0.037-0.19,0.027-0.364,0.018-0.56
			c-0.161-0.271-0.565-0.061-0.716-0.379l-0.288,0.019c-0.206,0.051-0.152,0.292-0.178,0.455
			C79.021,682.578,78.974,682.616,78.978,682.677L78.978,682.677z"/>
		<path fill-rule="evenodd" clip-rule="evenodd" fill="#FFFFFF" d="M80.403,684.375c0.12,0.241,0.384,0.424,0.41,0.7
			c0.063-0.075,0.106-0.161,0.148-0.242c-0.004-0.077-0.093-0.077-0.127-0.14c-0.036-0.1,0.019-0.188,0.034-0.279
			c-0.05-0.142-0.171-0.278-0.307-0.364L80.403,684.375L80.403,684.375z"/>
		<path fill-rule="evenodd" clip-rule="evenodd" fill="#FFFFFF" d="M80.88,683.762l0.278,0.38c0.121-0.189,0.121-0.47,0.074-0.7
			c-0.028-0.041-0.078-0.112-0.147-0.08C80.981,683.47,80.965,683.638,80.88,683.762L80.88,683.762z"/>
		<path fill-rule="evenodd" clip-rule="evenodd" fill="#FFFFFF" d="M79.743,673.139c0.101,0.051,0.197,0.098,0.319,0.105
			c0.081-0.043,0.187-0.074,0.286-0.047c0.145,0.095,0.319-0.019,0.486-0.01c-0.148-0.141-0.316-0.227-0.486-0.308
			C80.13,672.924,79.957,673.08,79.743,673.139L79.743,673.139z"/>
		<path fill-rule="evenodd" clip-rule="evenodd" fill="#FFFFFF" d="M81.261,673.503c0.205,0.02,0.354,0.203,0.492,0.354
			c0.174,0.026,0.307,0.151,0.411,0.28l-0.065-0.207c-0.046-0.205-0.176-0.364-0.307-0.527
			C81.605,673.413,81.422,673.43,81.261,673.503L81.261,673.503z"/>
		<path fill-rule="evenodd" clip-rule="evenodd" fill="#F58220" d="M66.778,671.801l0.113,0.011
			c0.302,0.151,0.791,0.229,0.818,0.668c-0.308,0.122-0.602,0.283-0.847,0.532c-0.186-0.19-0.562-0.086-0.625-0.419
			C66.296,672.277,66.409,671.882,66.778,671.801L66.778,671.801z"/>
		<path fill-rule="evenodd" clip-rule="evenodd" fill="#F58220" d="M67.069,673.769c0.353-0.031,0.694,0.019,1.059-0.011
			c0.089,0.038,0.183,0.116,0.225,0.204c-0.012,0.421-0.14,0.821-0.159,1.25c-0.16,0.065-0.314,0.198-0.354,0.374
			c-0.143,0.042-0.272,0.126-0.412,0.194c-0.061-0.132-0.05-0.331,0.058-0.438c0.152-0.213,0.543-0.164,0.514-0.5
			c0.1-0.164,0.004-0.373,0.006-0.542c-0.038-0.13-0.077,0.041-0.139,0.038c-0.123,0.027-0.252,0.034-0.36-0.027
			c-0.082-0.086-0.183-0.157-0.206-0.272c-0.108-0.055-0.237-0.14-0.291-0.252L67.069,673.769L67.069,673.769z"/>
		<path fill-rule="evenodd" clip-rule="evenodd" fill="#F58220" d="M67.495,676.298c0.167,0.025,0.342-0.049,0.485,0.031
			c-0.03,0.055-0.113,0.078-0.179,0.093l-0.26,0.122C67.445,676.521,67.499,676.365,67.495,676.298L67.495,676.298z"/>
		<path fill-rule="evenodd" clip-rule="evenodd" fill="#F58220" d="M68.174,673.058c0.167-0.054,0.346-0.166,0.524-0.113
			c-0.127,0.13-0.229,0.296-0.326,0.452l-0.532-0.013C67.899,673.245,68.046,673.129,68.174,673.058L68.174,673.058z"/>
		<path fill-rule="evenodd" clip-rule="evenodd" fill="#F58220" d="M69.73,672.93c0.222-0.038,0.209,0.25,0.412,0.261
			c0.036,0.046,0.085,0.088,0.066,0.159c-0.118,0.047-0.288,0.023-0.42,0.054c-0.175-0.097-0.063-0.4-0.337-0.38
			c-0.015-0.023-0.046-0.07-0.008-0.085C69.529,672.908,69.642,672.917,69.73,672.93L69.73,672.93z"/>
		<path fill-rule="evenodd" clip-rule="evenodd" fill="#F58220" d="M69.591,673.97c0.097-0.136,0.244-0.147,0.384-0.175l1.005,0.021
			c0.043,0.039-0.039,0.074-0.039,0.119c-0.062,0.06-0.152,0.075-0.206,0.129c-0.132,0.003-0.121,0.159-0.213,0.226
			c-0.144,0.143-0.354,0.077-0.521,0.054c-0.058-0.043-0.124-0.101-0.152-0.168l-0.046,0.047c0.058,0.218,0.043,0.459,0.086,0.68
			l0.241,0.158c0.002,0.357,0.423,0.26,0.604,0.459c-0.042,0.127-0.128,0.236-0.221,0.344c-0.148-0.144-0.315-0.236-0.493-0.298
			c-0.016-0.209-0.244-0.334-0.372-0.438c-0.036-0.381-0.042-0.769-0.105-1.139L69.591,673.97L69.591,673.97z"/>
		<path fill-rule="evenodd" clip-rule="evenodd" fill="#F58220" d="M69.956,676.365h0.466l-0.058,0.245l-0.467-0.197
			C69.886,676.373,69.928,676.361,69.956,676.365L69.956,676.365z"/>
		<path fill-rule="evenodd" clip-rule="evenodd" fill="#F58220" d="M70.794,671.968l0.346-0.109
			c0.197,0.093,0.383,0.209,0.565,0.342c0.145,0.264,0.122,0.621,0.056,0.915c-0.105,0.116-0.334,0-0.419,0.187h-0.016
			c-0.128-0.365-0.492-0.69-0.83-0.857C70.55,672.258,70.607,672.076,70.794,671.968L70.794,671.968z"/>
	</g>
	<text transform="matrix(1 0 0 1 60.27 701.9199)" fill="#F26722" font-family="'HelveticaNeue'" font-size="10.5698">Home</text>
	<g>
		<path fill="#F26722" d="M203.195,674.332c-0.875-0.862-1.77-1.293-2.68-1.293c-0.938,0-1.712,0.402-2.326,1.201
			c-0.487,0.637-0.837,1.475-1.049,2.51h5.306l-0.507,1.145h-4.93c-0.013,0.101-0.019,0.2-0.019,0.301c0,0.099,0,0.193,0,0.28
			c0,0.075,0,0.144,0,0.206c0,0.063,0.006,0.125,0.019,0.189h4.667l-0.488,1.144h-4.085c0.412,2.686,1.6,4.029,3.561,4.029
			c0.601,0,1.131-0.117,1.593-0.355c0.337-0.175,0.77-0.506,1.294-0.994v1.969c-0.837,0.536-1.799,0.805-2.887,0.805
			c-3.062,0-4.854-1.818-5.379-5.454h-1.444l0.507-1.144h0.862c-0.012-0.064-0.02-0.126-0.02-0.189c0-0.062,0-0.125,0-0.187
			c0-0.114,0-0.218,0-0.319c0-0.099,0.007-0.194,0.02-0.28h-1.369l0.488-1.145h1.013c0.3-1.536,0.868-2.749,1.706-3.634
			c0.938-1.014,2.144-1.52,3.618-1.52c1.138,0,2.27,0.393,3.394,1.181L203.195,674.332z"/>
	</g>
	<text transform="matrix(1 0 0 1 179.5068 701.9199)" fill="#F26722" font-family="'HelveticaNeue'" font-size="10.5698">Banking</text>
	<text transform="matrix(1 0 0 1 121.7773 701.9199)" fill="#F26722" font-family="'HelveticaNeue'" font-size="10.5698">LockIt</text>
	<path fill="#F26722" d="M271.649,679.682c-0.156-0.099-0.065-0.169-0.038-0.239c0.026-0.068,0.085-0.248,0.085-0.314
		c0-0.063,0.031-0.147-0.043-0.147c-0.073,0-0.107-0.074-0.107-0.191c0-0.118-0.126-0.147-0.171-0.147
		c-0.043,0-0.051,0.023-0.108,0.023c-0.056,0-0.056-0.037-0.189-0.037c-0.128,0-0.164,0-0.246-0.095
		c-0.083-0.096-0.161-0.079-0.161-0.104c0-0.027,0.021-0.057,0.021-0.096c0-0.04-0.151-0.162-0.086-0.166
		c0.065-0.004,0.261-0.266,0.325-0.266c0.066,0,0.109-0.074,0.109-0.183c0-0.108,0.009-0.147-0.187-0.147s-0.256,0.114-0.256,0.114
		c0-0.374-0.118-0.483-0.2-0.635c-0.085-0.152-0.13-0.179-0.314-0.179c-0.182,0-0.235-0.061-0.235-0.104s0.018-0.117-0.09-0.117
		c-0.11,0-0.205-0.084-0.305-0.084c-0.1,0-0.126,0.084-0.216,0.084c-0.092,0-0.075-0.118-0.275-0.118
		c-0.199,0-0.283,0.085-0.367,0.085c-0.085,0-0.038-0.194-0.193-0.194c-0.156,0-0.221,0.134-0.366,0.134
		c-0.122,0-0.05-0.253-0.029-0.368c0.004-0.019,0.007-0.036,0.007-0.045c0-0.065,0.114-0.126-0.021-0.126
		c-0.134,0-0.161-0.108-0.161-0.222c0-0.114,0.108-0.191,0.178-0.282c0.069-0.092,0.13-0.193,0.205-0.193
		c0.073,0,0.083-0.069,0.14-0.199c0.056-0.131,0.191-0.214,0.101-0.214c-0.092,0-0.149,0.043-0.149-0.073
		c0-0.118,0.057-0.101,0.157-0.197c0.1-0.095,0.122-0.208,0.122-0.37c0-0.162,0.039-0.188,0.079-0.221
		c0.038-0.035,0.069-0.123,0.069-0.222c0-0.1,0.151-0.035,0.151-0.104c0-0.07-0.091-0.047-0.091-0.136
		c0-0.086,0.199-0.134,0.199-0.228c0-0.092-0.077-0.142-0.146-0.142c-0.07,0-0.248,0.083-0.248,0c0-0.083-0.106-0.195-0.222-0.195
		c-0.118,0-0.157,0.042-0.228,0.042c-0.069,0-0.108,0.009-0.195-0.104c-0.086-0.113-0.315-0.128-0.413-0.225
		c-0.098-0.099-0.138-0.126-0.138-0.245c0-0.117,0.013-0.252-0.115-0.252c-0.125,0-0.176-0.178-0.229-0.178
		c-0.053,0-0.118,0.032-0.257,0.105c-0.138,0.073-0.094,0.235-0.173,0.235c-0.079,0-0.209-0.165-0.305-0.165
		s-0.034,0.138-0.173,0.138s-0.301-0.031-0.388-0.031c-0.037,0-0.066-0.014-0.088-0.036c-0.031-0.029-0.047-0.07-0.047-0.099
		c0-0.047,0.045-0.135,0.045-0.173c0-0.041-0.07-0.208-0.179-0.208c-0.109,0-0.131,0.072-0.248,0.072
		c-0.119,0-0.079-0.035-0.079-0.138c0-0.105-0.043-0.192-0.166-0.306s-0.169-0.107-0.169-0.221c0-0.112,0.083-0.205,0.083-0.322
		c0-0.117,0.039-0.313-0.113-0.313c-0.153,0-0.131-0.108-0.201-0.108s-0.135,0.057-0.135,0.116c0,0.061-0.087,0.184-0.187,0.297
		c-0.101,0.112-0.195,0.321-0.292,0.321c-0.094,0-0.125-0.156-0.23-0.156c-0.105,0-0.332,0.005-0.415,0.005
		c-0.081,0-0.234-0.193-0.142-0.163c0.09,0.031,0.317,0.09,0.317,0.065c0-0.026-0.04-0.143-0.04-0.213
		c0-0.069,0.087-0.087,0.087-0.169c0-0.083-0.156-0.3-0.356-0.3s-0.525,0.682-0.696,0.682c-0.17,0-0.209-0.082-0.327-0.082
		c-0.116,0-0.151,0.069-0.228,0.069c-0.076,0-0.1-0.312-0.02-0.392c0.081-0.082-0.103-0.061-0.247-0.061s-0.236,0.057-0.362,0.125
		c-0.126,0.069-0.218,0.025-0.218,0.097c0,0.068,0.057,0.047,0.057,0.275c0,0.225,0.197,0.315,0.197,0.376s0.025,0.069-0.096,0.069
		c-0.122,0-0.126,0.044-0.27,0.044c-0.144,0-0.113-0.187-0.199-0.187c-0.088,0-0.206,0.042-0.34,0.042
		c-0.135,0-0.244-0.056-0.244-0.003c0,0.033,0.045,0.082,0.079,0.129c0,0,0,0,0,0.001l-0.724,0.798
		c-0.105,0.046-0.215,0.077-0.316,0.077c-0.282,0-0.37,0.2-0.535,0.2c-0.164,0-0.121,0.144-0.23,0.144
		c-0.108,0-0.034-0.147-0.096-0.147c-0.06,0-0.17,0.061-0.296,0.061s-0.156-0.11-0.156-0.257c0-0.148-0.696-0.386-0.81-0.457
		c-0.112-0.069-0.312-0.177-0.312-0.061c0,0.118-0.188,0.101-0.289,0.101c-0.101,0-0.047,0.174-0.047,0.282
		c0,0.109-0.191,0.105-0.343,0.062c-0.153-0.045-0.18-0.175-0.244-0.175c-0.05,0-0.1-0.073-0.132-0.125
		c-0.011-0.016-0.018-0.031-0.025-0.039c-0.025-0.041-0.077-0.169-0.077-0.236c0-0.066,0.038-0.1,0.038-0.192
		c0-0.09,0.052-0.13,0.052-0.191c0-0.061,0-0.118-0.095-0.118c-0.097,0-0.35,0.072-0.525,0.148
		c-0.179,0.079-0.276,0.074-0.345,0.074c-0.07,0-0.264,0.133-0.38,0.156c-0.115,0.023-0.685,0.371-0.868,0.534
		c-0.188,0.162-0.373,0.046-0.419,0.117c-0.046,0.069-0.091,0.173-0.173,0.184c-0.083,0.014-0.849,0.418-0.849,0.418
		s-0.114,0.186-0.277,0.186s-0.743,0.29-0.743,0.336c0,0.146,0.006,0.115,0.06,0.214c0.052,0.102,0.088,0.102,0.088,0.244
		c0,0.144,0.002,0.157,0.002,0.262c0,0.104,0.04,0.077,0.101,0.126c0.061,0.047,0.083,0.096,0.126,0.165
		c0.045,0.069,0.166,0.177,0.114,0.177c-0.053,0-0.136,0.041-0.136,0.074c0,0.036-0.021,0.087-0.073,0.087
		c-0.053,0-0.1,0.005-0.1,0.07s0.055,0.109,0.055,0.162c0,0.051-0.026,0.099-0.026,0.144c0,0.043,0.031,0.087,0.031,0.103
		c0,0.018-0.039,0.037-0.039,0.074c0,0.04,0.021,0.109,0.092,0.162c0.068,0.051,0.065,0.073,0.065,0.165s0.008,0.108,0.104,0.108
		c0.096,0,0.157-0.077,0.287-0.017c0.13,0.06,0.084,0.109,0.14,0.204c0.057,0.096,0.157,0.087,0.157,0.166s-0.015,0.081,0.058,0.153
		c0.07,0.072,0.085,0.122,0.085,0.207c0,0.088,0.079,0.141,0.188,0.141c0.108,0-0.018-0.062,0.182-0.062
		c0.202,0,0.231,0.205,0.379,0.205c0.11,0,0.27-0.435,0.522-0.435c0.096,0,0.169-0.183,0.231-0.183c0.06,0,0.052,0.057,0.146,0.057
		c0.097,0,0.206-0.163,0.257-0.163c0.053,0,0.09-0.005,0.123,0.027c0.032,0.033,0.07,0.088,0.07,0.151
		c0,0.021-0.003,0.041-0.007,0.06c-0.005,0.043-0.015,0.085-0.015,0.115c0,0.043,0.082,0.051,0.082,0.104
		c0,0.053-0.072,0.054-0.044,0.082c0.028,0.03,0.122,0.119,0.227,0.119c0.104,0,0.144-0.009,0.144,0.191
		c0,0.199-0.118,0.126-0.118,0.301c0,0.226,0.193,0.378,0.193,0.695c0,0.166-0.04,0.439,0.095,0.439c0.136,0,0.283,0.24,0.431,0.24
		s0.196-0.088,0.297-0.088s0.169-0.209,0.248-0.209c0.078,0,0.27,0.04,0.27,0.12c0,0.077-0.096,0.077-0.096,0.148
		c0,0.069-0.057,0.128,0.039,0.128s0.126-0.103,0.274-0.103c0.147,0,0.127,0.13,0.161,0.13c0.034,0-0.004-0.086,0.086-0.086
		c0.092,0,0.336,0.226,0.336,0.435c0,0.209,0.161,0.418,0.161,0.539c0,0.122-0.2,0.008-0.2,0.162c0,0.152,0.147,0.478,0.252,0.478
		c0.104,0,0.09-0.077,0.09-0.14c0-0.061,0.073-0.226,0.287-0.226c0.213,0,0.131,0.07,0.234,0.07c0.104,0-0.095-0.082,0.1-0.082
		c0.196,0,0.188,0.248,0.353,0.248c0.167,0,0.275-0.175,0.362-0.175c0.086,0,0.122,0.074,0.191,0.074
		c0.07,0,0.127-0.135,0.183-0.135c0.057,0,0.079,0.092,0.193,0.205c0.112,0.114,0.003,0.231,0.068,0.231s-0.013-0.084,0.104-0.084
		c0.117,0,0.165,0.131,0.165,0.223c0,0.092,0.03,0.117,0.083,0.191c0.053,0.074,0.157,0.113,0.157,0.061
		c0-0.051-0.035-0.094-0.035-0.155c0-0.062-0.01-0.123,0.055-0.057c0.067,0.065,0.079,0.118,0.136,0.118s0.066-0.053,0.118-0.053
		c0.052,0,0.047,0.105,0.047,0.183c0,0.077-0.165,0.122-0.248,0.227c-0.083,0.104-0.104,0.198-0.104,0.318
		c0,0.117,0.021,0.227-0.043,0.278c-0.065,0.053-0.029,0.144-0.005,0.183c0.027,0.038,0.106-0.018,0.192-0.018
		c0.088,0,0.096,0.04,0.096,0.166s0.134,0.218,0.134,0.318c0,0.099-0.17,0.221-0.252,0.221c-0.083,0-0.213,0.148-0.213,0.261
		c0,0.113,0.103,0.083,0.103,0.148s-0.073,0.061-0.073,0.112c0,0.054,0.009,0.096,0.144,0.096c0.135,0,0.101,0.171,0.217,0.171
		c0.118,0,0.228-0.106,0.305-0.106c0.078,0,0.218-0.029,0.291,0.036c0.074,0.065,0.035,0.096,0.167,0.096
		c0.13,0,0.195-0.013,0.333,0.047c0.035,0.015,0.075,0.023,0.113,0.026c0.129,0.01,0.271-0.029,0.319-0.056
		c0.06-0.037,0.173-0.139,0.213-0.139c0.039,0,0.116-0.045,0.222-0.114c0.104-0.071,0.325-0.087,0.478-0.113
		c0.152-0.025,0.105-0.134,0.105-0.305c0-0.169,0.083-0.169,0.083-0.222c0-0.051-0.061-0.063-0.061-0.112
		c0-0.047-0.006-0.118,0.056-0.171c0.061-0.051,0.096-0.126,0.153-0.126c0.055,0,0.133,0.088,0.133-0.038
		c0-0.128,0.157-0.228,0.236-0.333c0.079-0.104,0.183-0.164,0.183-0.099c0,0.065,0.043,0.083,0.156,0.083
		c0.114,0,0.201,0.086,0.201,0.104c0,0.017-0.014,0.053-0.056,0.103c-0.044,0.053-0.075,0.049-0.075,0.132
		c0,0.083,0.065,0.13,0.022,0.187s-0.083-0.061-0.13-0.061c-0.049,0-0.065,0.039-0.065,0.091c0,0.052,0.067,0.144,0.008,0.144
		c-0.061,0-0.114,0.056-0.083,0.099c0.029,0.044,0.096,0.108,0.065,0.178c-0.03,0.07-0.087,0.036-0.087,0.178
		c0,0.145-0.031,0.157-0.07,0.202c-0.039,0.043-0.091,0.077-0.091,0.164c0,0.088,0.139,0.084,0.236,0.124
		c0.096,0.038,0.138,0.038,0.138,0.112c0,0.073,0.039,0.083,0.092,0.122c0.051,0.039,0.061,0.091-0.018,0.3
		c-0.079,0.21-0.124,0.021-0.124,0.179s0.124,0.292,0.124,0.37s-0.11,0.116-0.11,0.177s0.014,0.096,0.083,0.096
		c0.07,0,0.009-0.069,0.084-0.069c0.073,0,0.082,0.012,0.181,0.012c0.101,0,0.149-0.004,0.201-0.046
		c0.043-0.036,0.057-0.067,0.115-0.076c0.011-0.002,0.025-0.004,0.042-0.004c0.095,0,0.13,0.053,0.174,0.114
		c0.043,0.06,0.13,0.138,0.256,0.159c0.127,0.022,0.144,0.066,0.244,0.167c0.101,0.099,0.157,0.199,0.157,0.239
		c0,0.039,0.043,0.048,0.108,0.048c0.065,0,0.092,0.069,0.092,0.112c0,0.044,0.156,0.073,0.274,0.073
		c0.116,0,0.169-0.053,0.229-0.053c0.062,0,0.096,0.066,0.209,0.192c0.114,0.128,0.201,0.183,0.147,0.234
		c-0.053,0.053-0.104,0.124-0.104,0.192c0,0.07,0.118,0.034,0.183-0.029c0.067-0.067,0.153-0.044,0.273,0.063
		c0.124,0.11,0.223,0.207,0.223,0.248c0,0.045,0.009,0.114,0.096,0.114s0,0.07,0,0.122c0,0.053-0.004,0.126,0.034,0.166
		c0.041,0.041,0.145,0.088,0.066,0.122c-0.078,0.036-0.078,0.073-0.053,0.122c0.027,0.048,0.053,0.079,0.101,0.053
		c0.047-0.027,0.104-0.07,0.173-0.07c0.069,0,0.075-0.048,0.126-0.077c0.053-0.03,0.124-0.075,0.21-0.075
		c0.087,0,0.126,0,0.174,0.057c0.048,0.056,0.079-0.031,0.131-0.109c0.051-0.079,0.087-0.217,0.173-0.134
		c0.087,0.081,0.31,0.065,0.439,0.065c0.131,0,0.104-0.036,0.104-0.118s0.065-0.065,0.148-0.008
		c0.084,0.057,0.167,0.051,0.292-0.044c0.125-0.096,0.186-0.118,0.152-0.149c-0.036-0.029-0.136-0.096-0.136-0.151
		c0-0.057,0.065-0.062,0.104-0.092c0.041-0.03,0.079-0.048,0.079-0.117c0-0.07,0.027-0.078,0.065-0.104
		c0.039-0.027,0.096-0.065,0.096-0.144s-0.027-0.104-0.113-0.157c-0.086-0.051-0.157-0.077-0.157-0.144
		c0-0.065,0.057-0.09,0.057-0.155s-0.041-0.088-0.132-0.088s-0.134-0.012-0.134-0.108c0-0.095-0.008-0.183-0.071-0.313
		c-0.061-0.13-0.03-0.126-0.201-0.126c-0.169,0-0.116-0.077-0.155-0.205c-0.04-0.126-0.026-0.242-0.014-0.296
		c0.014-0.052,0-0.156,0.053-0.156c0.053,0,0.152,0.065,0.152-0.043s-0.23-0.1-0.23-0.173c0-0.075,0.061-0.145,0.113-0.222
		c0.053-0.079,0.092-0.108,0.092-0.209c0-0.1,0.018-0.122,0.092-0.122c0.073,0,0.079-0.049,0.108-0.09
		c0.03-0.045,0.087,0.055,0.087-0.071c0-0.125-0.087-0.177-0.087-0.234s0.075-0.057,0.138-0.114c0.067-0.056,0.153-0.1,0.153-0.165
		c0-0.065-0.1-0.104-0.1-0.122c0-0.018,0.053-0.053,0.095-0.07c0.045-0.017,0.12-0.031,0.12-0.078c0-0.047-0.065-0.114,0-0.218
		c0.065-0.105,0.065-0.191,0.208-0.221c0.142-0.031,0.155-0.035,0.155-0.165c0-0.13,0.053-0.169,0.179-0.226
		c0.083-0.038,0.136-0.04,0.174-0.012c0.022,0.013,0.038,0.036,0.056,0.063c0.047,0.083,0.266,0.175,0.266,0.108
		c0-0.063,0.096-0.085,0.157-0.061c0.061,0.027,0.065,0.079,0.065,0.124c0,0.043,0,0.151,0.069,0.151c0.07,0,0.16,0.13,0.16,0.065
		s-0.056-0.14-0.056-0.266s0.053-0.135,0.09-0.149c0.04-0.012,0.097-0.02,0.097-0.164s-0.114-0.162-0.114-0.191
		c0-0.032,0-0.045,0.161-0.187c0.163-0.146,0.25-0.166,0.322-0.183c0.075-0.018,0.209-0.057,0.209-0.083
		c0-0.027-0.057-0.086-0.057-0.127c0-0.04,0.043-0.056,0.075-0.135c0.031-0.081,0.087-0.129,0.14-0.129
		c0.051,0,0.144,0.126,0.183,0.126c0.038,0,0.079,0.018,0.122-0.035c0.043-0.052,0.13-0.038,0.13-0.153
		C271.885,679.843,271.807,679.782,271.649,679.682z"/>
	<text transform="matrix(1 0 0 1 246.4722 701.9199)" fill="#F26722" font-family="'HelveticaNeue'" font-size="10.5698">Finder</text>
	<g>
		<path fill="#F26722" d="M320.123,674.348c0.196-0.556,0.478-1.04,0.845-1.452c0.366-0.412,0.816-0.729,1.348-0.958
			s1.125-0.343,1.783-0.343c0.596,0,1.135,0.086,1.623,0.257c0.485,0.171,0.906,0.418,1.261,0.741
			c0.355,0.322,0.63,0.718,0.826,1.186c0.197,0.468,0.293,1.006,0.293,1.613c0,0.392-0.047,0.743-0.142,1.053
			c-0.094,0.31-0.217,0.591-0.369,0.844c-0.153,0.253-0.328,0.487-0.521,0.703c-0.198,0.214-0.395,0.422-0.6,0.625
			c-0.203,0.19-0.401,0.384-0.597,0.58c-0.197,0.196-0.374,0.404-0.532,0.625c-0.158,0.222-0.283,0.462-0.378,0.722
			c-0.096,0.259-0.142,0.554-0.142,0.883v0.74h-1.614v-0.894c0.025-0.531,0.123-0.983,0.295-1.355
			c0.169-0.374,0.378-0.706,0.625-0.996c0.245-0.292,0.505-0.561,0.776-0.808c0.272-0.246,0.526-0.504,0.762-0.776
			c0.233-0.272,0.42-0.573,0.559-0.903c0.138-0.328,0.197-0.727,0.17-1.195c-0.049-0.696-0.273-1.24-0.671-1.632
			c-0.398-0.393-0.942-0.588-1.623-0.588c-0.456,0-0.847,0.082-1.177,0.248c-0.328,0.163-0.604,0.385-0.825,0.663
			c-0.222,0.278-0.382,0.607-0.485,0.987c-0.101,0.38-0.152,0.791-0.152,1.235h-1.612
			C319.835,675.505,319.926,674.905,320.123,674.348z M325.046,683.361v2.106h-2.105v-2.106H325.046z"/>
	</g>
	<text transform="matrix(1 0 0 1 312.9341 701.9199)" fill="#F26722" font-family="'HelveticaNeue'" font-size="10.5698">Help</text>
	<path fill="#F26722" d="M142.477,677.105h-1.094v-2.901c0-2.699-2.188-4.887-4.886-4.887c-2.699,0-4.887,2.188-4.887,4.887v2.901
		h-1.095c-0.236,0-0.427,0.171-0.427,0.382v8.789c0,0.211,0.191,0.382,0.427,0.382h11.962c0.236,0,0.428-0.171,0.428-0.382v-8.789
		C142.905,677.276,142.713,677.105,142.477,677.105z M136.978,681.697v1.75h-0.963v-1.75c-0.338-0.175-0.572-0.525-0.572-0.932
		c0-0.584,0.471-1.056,1.054-1.056c0.582,0,1.055,0.472,1.055,1.056C137.552,681.171,137.316,681.521,136.978,681.697z
		 M140.42,677.105h-7.847v-2.901c0-2.163,1.76-3.923,3.924-3.923c2.163,0,3.923,1.76,3.923,3.923V677.105z"/>
</g>
</svg>
