<?xml version="1.0" encoding="utf-8"?>
<!-- Generator: Adobe Illustrator 16.0.0, SVG Export Plug-In . SVG Version: 6.00 Build 0)  -->
<!DOCTYPE svg PUBLIC "-//W3C//DTD SVG 1.1//EN" "http://www.w3.org/Graphics/SVG/1.1/DTD/svg11.dtd">
<svg version="1.1" id="Layer_1" xmlns="http://www.w3.org/2000/svg" xmlns:xlink="http://www.w3.org/1999/xlink" x="0px" y="0px"
	 width="20px" height="35px" viewBox="0 0 20 35" enable-background="new 0 0 20 35" xml:space="preserve">
<path fill-rule="evenodd" clip-rule="evenodd" fill="#D5D7D8" d="M0.871,4.396l13.098,13.098L0.699,30.765L0.7,30.766
	C0.268,31.215,0,31.826,0,32.5C0,33.881,1.119,35,2.5,35c0.674,0,1.285-0.268,1.734-0.701L4.235,34.3l15-15.001h-0.001
	C19.705,18.845,20,18.207,20,17.5c0-0.002,0-0.004,0-0.006s0-0.003,0-0.006c0-0.705-0.295-1.344-0.766-1.798l0.001-0.001l-15-15.001
	L4.229,0.695C3.779,0.265,3.171,0,2.5,0C1.119,0,0,1.119,0,2.5C0,3.259,0.338,3.938,0.871,4.396"/>
</svg>
