<?xml version="1.0" encoding="utf-8"?>
<!-- Generator: Adobe Illustrator 18.1.1, SVG Export Plug-In . SVG Version: 6.00 Build 0)  -->
<svg version="1.1" id="Layer_1" xmlns="http://www.w3.org/2000/svg" xmlns:xlink="http://www.w3.org/1999/xlink" x="0px" y="0px"
	 viewBox="0 0 50 50" enable-background="new 0 0 50 50" xml:space="preserve">
<rect opacity="0" fill="#FFFFFF" width="50" height="50"/>
<g>
	<g>
		<path fill="#FFFFFF" d="M-266.2,568.9c-0.2,0.2-0.6,0.3-0.7,0c-2.4-3.1-3.6-6.9-3.6-10.9c0-10,8.2-18.2,18.2-18.2
			c0.5,0,0.9-0.4,0.9-0.9c0-0.5-0.4-0.9-0.9-0.9c-11,0-20,9-20,20c0,4.6,1.6,9,4.5,12.6c0.1,0.2,0.1,0.4,0,0.5l-2,2.7
			c-0.2,0.3,0,0.7,0.3,0.7l9.1,1c0.3,0,0.6-0.3,0.5-0.6l-3.7-8.4c-0.1-0.3-0.6-0.4-0.8-0.1L-266.2,568.9z"/>
	</g>
	<g>
		<path fill="#FFFFFF" d="M-236.8,544.9l2-2.7c0.2-0.3,0-0.7-0.3-0.7l-9.1-1c-0.3,0-0.6,0.3-0.5,0.6l3.7,8.4
			c0.1,0.3,0.6,0.4,0.8,0.1l1.8-2.4c0.2-0.2,0.6-0.3,0.7,0c2.3,3.1,3.6,6.9,3.6,10.9c0,10-8.2,18.2-18.2,18.2
			c-0.5,0-0.9,0.4-0.9,0.9s0.4,0.9,0.9,0.9c11,0,20-9,20-20c0-4.6-1.6-9-4.5-12.6C-237,545.3-237,545.1-236.8,544.9z"/>
	</g>
</g>
<g id="Settings_3_">
	<g>
		<g>
			<path fill="#FFFFFF" d="M-939.1-624.8l0.9,0.1c1,0.1,1.8,0.5,2.6,1.1l0.8,0.5l0.5,0.7c0.6,0.8,0.9,1.7,1.1,2.6l0.1,0.9l-0.1,0.9
				c-0.1,1-0.5,1.8-1.1,2.6l-0.5,0.7l-0.7,0.5c-0.8,0.6-1.7,0.9-2.6,1.1l-0.9,0.1l-0.9-0.1c-1-0.1-1.8-0.5-2.6-1.1l-0.7-0.6
				l-0.5-0.7c-0.6-0.8-0.9-1.7-1.1-2.6l-0.1-0.9l0.1-0.9c0.1-1,0.5-1.8,1.1-2.6l0.5-0.7l0.7-0.5c0.8-0.6,1.7-0.9,2.6-1.1
				L-939.1-624.8 M-938.4-636.3h-1.5c-0.7,0-1.2,0.6-1.2,1.2v3.4c-2.1,0.3-4.1,1.2-5.7,2.4l-2.4-2.4c-0.2-0.2-0.6-0.4-0.9-0.4
				c-0.3,0-0.6,0.1-0.9,0.4l-1,1c-0.5,0.5-0.5,1.3,0,1.8l2.4,2.4c-1.2,1.6-2,3.6-2.4,5.7h-3.4l0,0c-0.7,0-1.2,0.6-1.2,1.2v1.5
				c0,0,0,0,0,0c0,0.7,0.6,1.2,1.2,1.2c0,0,0.1,0,0.2,0h3.3c0.3,2.1,1.2,4.1,2.4,5.7l-2.4,2.4c-0.5,0.5-0.5,1.3,0,1.8l1,1
				c0,0,0,0,0,0c0.2,0.2,0.6,0.4,0.9,0.4c0.3,0,0.6-0.1,0.9-0.4c0,0,0.1-0.1,0.1-0.1l2.3-2.3c1.7,1.2,3.6,2,5.7,2.4v3.4
				c0,0.7,0.6,1.2,1.2,1.2h1.5c0,0,0,0,0,0c0.7,0,1.2-0.6,1.2-1.2c0-0.1,0-0.1,0-0.2v-3.3c2.1-0.3,4.1-1.1,5.7-2.4l2.4,2.4
				c0.2,0.2,0.6,0.4,0.9,0.4c0.3,0,0.6-0.1,0.9-0.4l1-1c0,0,0,0,0,0c0.5-0.5,0.5-1.3,0-1.8c0,0-0.1-0.1-0.1-0.1l-2.3-2.3
				c1.2-1.7,2-3.6,2.4-5.7h3.4c0.7,0,1.2-0.6,1.2-1.2v-1.5c0-0.7-0.6-1.2-1.2-1.2h-3.4c-0.3-2.1-1.2-4.1-2.4-5.7l2.4-2.4
				c0.5-0.5,0.5-1.3,0-1.8l-1-1c-0.2-0.2-0.6-0.4-0.9-0.4c-0.3,0-0.6,0.1-0.9,0.4l-2.4,2.4c-1.7-1.2-3.6-2-5.7-2.4v-3.4
				C-937.1-635.8-937.7-636.3-938.4-636.3L-938.4-636.3z"/>
		</g>
	</g>
</g>
<g>
	<g>
		<g>
			<path fill="#59CD4C" d="M-753.5-243.3c-0.3,0-0.5-0.1-0.7-0.3c-0.4-0.4-0.4-1,0-1.4l18.3-18.3c0.4-0.4,1-0.4,1.4,0s0.4,1,0,1.4
				l-18.3,18.3C-753-243.4-753.3-243.3-753.5-243.3z"/>
		</g>
		<g>
			<path fill="#59CD4C" d="M-723.3-249.7c-0.3,0-0.5-0.1-0.7-0.3l-11.9-11.9c-0.4-0.4-0.4-1,0-1.4s1-0.4,1.4,0l11.9,11.9
				c0.4,0.4,0.4,1,0,1.4C-722.8-249.8-723.1-249.7-723.3-249.7z"/>
		</g>
		<g>
			<g>
				<path fill="#59CD4C" d="M-723.3-249.7c-0.3,0-0.5-0.1-0.7-0.3c-0.4-0.4-0.4-1,0-1.4l14.8-14.8c0.4-0.4,1-0.4,1.4,0s0.4,1,0,1.4
					l-14.8,14.8C-722.8-249.8-723.1-249.7-723.3-249.7z"/>
			</g>
			<g>
				<g>
					<polygon fill="#59CD4C" points="-706.1,-261 -703.5,-270.6 -713.1,-268 					"/>
				</g>
			</g>
		</g>
	</g>
</g>
<g>
	<g>
		<path fill="#59CD4C" d="M-735.8-144.6c-0.6,0-1-0.4-1-1s0.4-1,1-1c3.5,0,6.3-2.4,6.3-5.4v-19.2c0-0.6,0.4-1,1-1s1,0.4,1,1v19.2
			C-727.5-147.9-731.2-144.6-735.8-144.6z"/>
	</g>
	<g>
		<g>
			<path fill="#59CD4C" d="M-704.2-165.4c-0.6,0-1-0.4-1-1c0-12.9-10.5-23.3-23.3-23.3s-23.3,10.5-23.3,23.3c0,0.6-0.4,1-1,1
				s-1-0.4-1-1c0-14,11.4-25.3,25.3-25.3s25.3,11.4,25.3,25.3C-703.2-165.8-703.6-165.4-704.2-165.4z"/>
		</g>
		<g>
			<path fill="#59CD4C" d="M-743.1-165.4c-0.6,0-1-0.4-1-1c0-2.1-1.7-3.9-3.9-3.9s-3.9,1.7-3.9,3.9c0,0.6-0.4,1-1,1s-1-0.4-1-1
				c0-3.2,2.6-5.9,5.9-5.9c3.2,0,5.9,2.6,5.9,5.9C-742.1-165.8-742.5-165.4-743.1-165.4z"/>
		</g>
		<g>
			<line fill="none" x1="-733.4" y1="-166.4" x2="-733.4" y2="-166.4"/>
		</g>
		<g>
			<path fill="#59CD4C" d="M-743.1-165.4c-0.6,0-1-0.4-1-1c0-3.2,2.6-5.9,5.9-5.9s5.9,2.6,5.9,5.9c0,0.6-0.4,1-1,1s-1-0.4-1-1
				c0-2.1-1.7-3.9-3.9-3.9s-3.9,1.7-3.9,3.9C-742.1-165.8-742.5-165.4-743.1-165.4z"/>
		</g>
		<g>
			<path fill="#59CD4C" d="M-723.6-165.4c-0.6,0-1-0.4-1-1c0-2.1-1.7-3.9-3.9-3.9c-2.1,0-3.9,1.7-3.9,3.9c0,0.6-0.4,1-1,1l0,0
				c-0.6,0-1-0.4-1-1c0-3.2,2.6-5.9,5.9-5.9c3.2,0,5.9,2.6,5.9,5.9C-722.6-165.8-723.1-165.4-723.6-165.4z"/>
		</g>
		<g>
			<line fill="none" x1="-733.4" y1="-166.4" x2="-733.4" y2="-166.4"/>
		</g>
		<g>
			<path fill="#59CD4C" d="M-713.9-165.4c-0.6,0-1-0.4-1-1c0-2.1-1.7-3.9-3.9-3.9s-3.9,1.7-3.9,3.9c0,0.6-0.4,1-1,1s-1-0.4-1-1
				c0-3.2,2.6-5.9,5.9-5.9c3.2,0,5.9,2.6,5.9,5.9C-712.9-165.8-713.4-165.4-713.9-165.4z"/>
		</g>
		<g>
			<path fill="#59CD4C" d="M-704.2-165.4c-0.6,0-1-0.4-1-1c0-2.1-1.7-3.9-3.9-3.9s-3.9,1.7-3.9,3.9c0,0.6-0.4,1-1,1s-1-0.4-1-1
				c0-3.2,2.6-5.9,5.9-5.9c3.2,0,5.9,2.6,5.9,5.9C-703.2-165.8-703.6-165.4-704.2-165.4z"/>
		</g>
	</g>
</g>
<g>
	<g>
		<path fill="#59CD4C" d="M-704.2-321.8h-18.2c-0.6,0-1-0.4-1-1s0.4-1,1-1h17.2l0-22.9l-23.4-23.3l-23.4,23.3l0,22.9h17.2
			c0.6,0,1,0.4,1,1s-0.4,1-1,1h-18.2c-0.6,0-1-0.4-1-1l0-24.3c0-0.3,0.1-0.5,0.3-0.7l24.4-24.3c0.4-0.4,1-0.4,1.4,0l24.4,24.3
			c0.2,0.2,0.3,0.4,0.3,0.7l0,24.3C-703.2-322.2-703.6-321.8-704.2-321.8z"/>
	</g>
	<g>
		<path fill="#59CD4C" d="M-734.6-321.8c-0.3,0-0.5-0.1-0.7-0.3c-0.2-0.2-0.3-0.4-0.3-0.7c0-0.3,0.1-0.5,0.3-0.7
			c0.4-0.4,1-0.4,1.4,0c0.2,0.2,0.3,0.5,0.3,0.7c0,0.3-0.1,0.5-0.3,0.7C-734.1-321.9-734.3-321.8-734.6-321.8z"/>
	</g>
	<g>
		<line fill="none" x1="-722.4" y1="-322.8" x2="-722.4" y2="-322.8"/>
	</g>
	<g>
		<path fill="#59CD4C" d="M-722.4-321.8c-0.6,0-1-0.4-1-1v-16h-10.2v16c0,0.6-0.4,1-1,1s-1-0.4-1-1v-17c0-0.6,0.4-1,1-1h12.2
			c0.6,0,1,0.4,1,1v17C-721.4-322.2-721.9-321.8-722.4-321.8z"/>
	</g>
</g>
<g>
	<g>
		<g>
			<path fill="#59CD4C" d="M-741-442.8c-1,0-1.8,0.8-1.8,1.8s0.8,1.8,1.8,1.8s1.8-0.8,1.8-1.8S-740-442.8-741-442.8L-741-442.8z"/>
		</g>
		<g>
			<g>
				<path fill="#59CD4C" d="M-734.8-413.1h-7.1c-0.3,0-0.6-0.1-0.7-0.3s-0.3-0.5-0.3-0.8l0.7-7.8c0.1-0.6,0.5-1,1.1-0.9
					c0.5,0.1,1,0.5,0.9,1.1l-0.6,6.7h5.6l3.2-4.1c0.3-0.4,1-0.5,1.4-0.2s0.5,1,0.2,1.4l-3.5,4.5
					C-734.2-413.2-734.5-413.1-734.8-413.1z"/>
			</g>
			<g>
				<path fill="#59CD4C" d="M-711.9-413.4h-7.9c-0.3,0-0.6-0.1-0.8-0.4l-3.4-4.6c-0.3-0.4-0.2-1.1,0.2-1.4c0.4-0.3,1.1-0.2,1.4,0.2
					l3.1,4.2h6.3l-0.9-9c-0.1-0.5,0.3-1,0.9-1.1c0.6-0.1,1,0.3,1.1,0.9l1,10.1c0,0.3-0.1,0.6-0.3,0.8
					C-711.4-413.5-711.6-413.4-711.9-413.4z"/>
			</g>
			<g>
				<path fill="#59CD4C" d="M-708.9-434.3c-0.5,0-1-0.4-1-1c0-0.6,0.4-1,1-1c1.3-0.1,2.3-0.6,2.5-1.3c0.2-0.6,0-1.3-0.4-1.6
					c-0.4-0.4-0.5-1-0.1-1.4c0.4-0.4,1-0.5,1.4-0.1c1.1,0.9,1.5,2.5,1,3.8C-704.8-436.3-705.7-434.5-708.9-434.3
					C-708.8-434.3-708.8-434.3-708.9-434.3z"/>
			</g>
			<g>
				<path fill="#59CD4C" d="M-746.7-426.4c-0.2,0-0.3,0-0.5-0.1l-5-2.7c-0.3-0.2-0.5-0.5-0.5-0.9v-8.8c0-0.4,0.3-0.8,0.7-0.9l5-1.7
					c0.5-0.2,1.1,0.1,1.3,0.6c0.2,0.5-0.1,1.1-0.6,1.3l-4.3,1.4v7.5l4.4,2.4c0.5,0.3,0.7,0.9,0.4,1.4
					C-746-426.6-746.4-426.4-746.7-426.4z"/>
			</g>
			<g>
				<path fill="#59CD4C" d="M-713-423.5c-0.3,0-0.5-0.1-0.7-0.3c-0.4-0.4-0.4-1,0-1.4c2.5-2.6,3.9-5.6,3.9-8.9
					c0-8-8.5-14.6-18.9-14.6c-7.4,0-14.1,3.3-17.2,8.5c-0.3,0.5-0.9,0.6-1.4,0.3c-0.5-0.3-0.6-0.9-0.3-1.4
					c3.4-5.8,10.9-9.5,18.9-9.5c11.5,0,20.9,7.4,20.9,16.6c0,3.8-1.5,7.3-4.5,10.3C-712.4-423.6-712.7-423.5-713-423.5z"/>
			</g>
			<g>
				<path fill="#59CD4C" d="M-728.7-417.5c-0.9,0-1.8,0-2.7-0.1c-0.5-0.1-0.9-0.5-0.9-1.1c0.1-0.5,0.5-1,1.1-0.9
					c2.6,0.3,5.2,0.1,7.7-0.4c0.5-0.1,1.1,0.2,1.2,0.8c0.1,0.5-0.2,1.1-0.8,1.2C-724.9-417.7-726.8-417.5-728.7-417.5z"/>
			</g>
			<g>
				<path fill="#59CD4C" d="M-741.2-420.9c-0.2,0-0.4-0.1-0.5-0.2c-2.5-1.6-4.5-3.6-5.8-5.8c-0.3-0.5-0.1-1.1,0.3-1.4
					c0.5-0.3,1.1-0.1,1.4,0.3c1.2,2,3,3.8,5.2,5.2c0.5,0.3,0.6,0.9,0.3,1.4C-740.6-421.1-740.9-420.9-741.2-420.9z"/>
			</g>
			<g>
				<path fill="#59CD4C" d="M-735.3-447.8c-0.4,0-0.7-0.2-0.9-0.6c-1.3-2.7-4.3-4.4-7.6-4.4c-1.3,0-2.7,0.3-3.8,0.8
					c-0.5,0.2-1.1,0-1.3-0.5s0-1.1,0.5-1.3c1.4-0.7,3.1-1,4.7-1c4.1,0,7.8,2.2,9.4,5.6c0.2,0.5,0,1.1-0.5,1.3
					C-735-447.8-735.2-447.8-735.3-447.8z"/>
			</g>
			<g>
				<path fill="#59CD4C" d="M-742.4-444.3c-0.3,0-0.6-0.1-0.8-0.4l-5.7-7.5c-0.3-0.4-0.2-1.1,0.2-1.4c0.4-0.3,1.1-0.2,1.4,0.2
					l5.7,7.5c0.3,0.4,0.2,1.1-0.2,1.4C-742-444.4-742.2-444.3-742.4-444.3z"/>
			</g>
		</g>
		<g>
			<path fill="#59CD4C" d="M-717.3-449.3c-0.2,0-0.3,0-0.4-0.1c-0.5-0.2-0.7-0.8-0.4-1.3c0.5-0.9,0.7-2,0.7-3c0-3.7-3-6.8-6.8-6.8
				s-6.8,3-6.8,6.8c0,0.3,0,0.7,0.1,1c0.1,0.5-0.3,1.1-0.8,1.1c-0.5,0.1-1.1-0.3-1.1-0.8c-0.1-0.4-0.1-0.9-0.1-1.3
				c0-4.8,3.9-8.8,8.8-8.8s8.8,3.9,8.8,8.8c0,1.4-0.3,2.7-0.9,3.9C-716.6-449.5-717-449.3-717.3-449.3z"/>
		</g>
	</g>
</g>
<g>
	<path fill-rule="evenodd" clip-rule="evenodd" fill="#FFFFFF" d="M25,3.2c-13.8,0-25,11.2-25,25c0,7.3,3.2,13.9,8.2,18.5
		c3.3-1.6,2.1-0.2,6.4-2c4.4-1.8,5.4-2.4,5.4-2.4l0-4.2c0,0-1.6-1.3-2.2-5.2c-1,0.3-1.4-1.2-1.4-2.2c-0.1-0.9-0.6-3.8,0.7-3.5
		c-0.3-1.9-0.4-3.7-0.4-4.6c0.3-3.2,3.4-6.6,8.3-6.8c5.7,0.2,7.9,3.6,8.2,6.8c0.1,0.9-0.1,2.7-0.4,4.6c1.3-0.3,0.7,2.6,0.7,3.5
		c-0.1,1-0.4,2.4-1.4,2.2c-0.5,3.9-2.2,5.2-2.2,5.2l0,4.2c0,0,1,0.6,5.4,2.4c4.3,1.8,3,0.6,6.3,2.2c5.1-4.6,8.3-11.2,8.3-18.6
		C50,14.4,38.8,3.2,25,3.2z"/>
</g>
<g>
	<g>
		<path fill="#59CD4C" d="M11.1-426.3h-23c-0.2,0-0.4-0.1-0.4-0.3c-0.1-0.2-0.1-0.4,0-0.5l2-3c0.1-0.1,0.2-0.2,0.4-0.2h19
			c0.2,0,0.3,0.1,0.4,0.2l2,3c0.1,0.2,0.1,0.4,0,0.5C11.5-426.4,11.3-426.3,11.1-426.3z M-10.9-427.3h21.1l-1.3-2H-9.6L-10.9-427.3z
			"/>
	</g>
	<g>
		<g>
			<path fill="#59CD4C" d="M-7.9-429.3c-0.3,0-0.5-0.2-0.5-0.5v-10c0-0.3,0.2-0.5,0.5-0.5s0.5,0.2,0.5,0.5v10
				C-7.4-429.5-7.6-429.3-7.9-429.3z"/>
		</g>
		<g>
			<path fill="#59CD4C" d="M-5.9-429.3c-0.3,0-0.5-0.2-0.5-0.5v-10c0-0.3,0.2-0.5,0.5-0.5s0.5,0.2,0.5,0.5v10
				C-5.4-429.5-5.6-429.3-5.9-429.3z"/>
		</g>
	</g>
	<g>
		<g>
			<path fill="#59CD4C" d="M-1.3-429.3c-0.3,0-0.5-0.2-0.5-0.5v-10c0-0.3,0.2-0.5,0.5-0.5s0.5,0.2,0.5,0.5v10
				C-0.8-429.5-1.1-429.3-1.3-429.3z"/>
		</g>
		<g>
			<path fill="#59CD4C" d="M0.7-429.3c-0.3,0-0.5-0.2-0.5-0.5v-10c0-0.3,0.2-0.5,0.5-0.5s0.5,0.2,0.5,0.5v10
				C1.2-429.5,0.9-429.3,0.7-429.3z"/>
		</g>
	</g>
	<g>
		<g>
			<path fill="#59CD4C" d="M5.2-429.3c-0.3,0-0.5-0.2-0.5-0.5v-10c0-0.3,0.2-0.5,0.5-0.5s0.5,0.2,0.5,0.5v10
				C5.7-429.5,5.5-429.3,5.2-429.3z"/>
		</g>
		<g>
			<path fill="#59CD4C" d="M7.2-429.3c-0.3,0-0.5-0.2-0.5-0.5v-10c0-0.3,0.2-0.5,0.5-0.5s0.5,0.2,0.5,0.5v10
				C7.7-429.5,7.5-429.3,7.2-429.3z"/>
		</g>
	</g>
	<g>
		<path fill="#59CD4C" d="M11.3-439.3C11.3-439.3,11.2-439.3,11.3-439.3h-23.1c-0.2,0-0.4-0.1-0.5-0.3c-0.1-0.2,0-0.4,0.2-0.6
			l11.5-9.1c0.2-0.1,0.4-0.1,0.6,0l11.5,9.1c0.2,0.1,0.3,0.3,0.3,0.5C11.8-439.5,11.5-439.3,11.3-439.3z M-10.4-440.3H9.8l-10.1-8
			L-10.4-440.3z"/>
	</g>
</g>
<g>
	<g>
		<path fill="#59CD4C" d="M4.4-353.6c-1.7,0-3-1.3-3-3s1.3-3,3-3s3,1.3,3,3S6-353.6,4.4-353.6z M4.4-358.6c-1.1,0-2,0.9-2,2
			s0.9,2,2,2s2-0.9,2-2S5.5-358.6,4.4-358.6z"/>
	</g>
	<g>
		<path fill="#59CD4C" d="M4.4-334.6c-1.7,0-3-1.3-3-3s1.3-3,3-3s3,1.3,3,3S6-334.6,4.4-334.6z M4.4-339.6c-1.1,0-2,0.9-2,2
			s0.9,2,2,2s2-0.9,2-2S5.5-339.6,4.4-339.6z"/>
	</g>
	<g>
		<path fill="#59CD4C" d="M-5-344.1c-1.7,0-3-1.3-3-3s1.3-3,3-3s3,1.3,3,3S-3.4-344.1-5-344.1z M-5-349.1c-1.1,0-2,0.9-2,2
			s0.9,2,2,2s2-0.9,2-2S-3.9-349.1-5-349.1z"/>
	</g>
	<g>
		
			<rect x="-0.8" y="-356" transform="matrix(0.7071 0.7071 -0.7071 0.7071 -248.8788 -102.8154)" fill="#59CD4C" width="1" height="8.4"/>
	</g>
	<g>
		
			<rect x="-4.4" y="-342.9" transform="matrix(0.7071 0.7071 -0.7071 0.7071 -242.1904 -100.1069)" fill="#59CD4C" width="8.3" height="1"/>
	</g>
</g>
<g>
	<g>
		<path fill="#59CD4C" d="M9.7-247.5h-20c-0.3,0-0.5-0.2-0.5-0.5v-16c0-0.3,0.2-0.5,0.5-0.5h20c0.3,0,0.5,0.2,0.5,0.5v16
			C10.2-247.7,10-247.5,9.7-247.5z M-9.8-248.5h19v-15h-19V-248.5z"/>
	</g>
	<g>
		<path fill="#59CD4C" d="M-1.2-251.4c0.1,0.1,0.1,0.1,0.1,0.2c0,0.1,0,0.2-0.1,0.2s-0.1,0.1-0.2,0.1h-2.5c-0.1,0-0.2,0-0.2-0.1
			c-0.1-0.1-0.1-0.1-0.1-0.2c0-0.1,0-0.2,0.1-0.2c0.1-0.1,0.1-0.1,0.2-0.1h1v-4.1l-0.8,0.4c0,0-0.1,0-0.1,0c0,0-0.1,0-0.1,0
			s-0.1,0-0.2-0.1c-0.1-0.1-0.1-0.2-0.1-0.3s0.1-0.2,0.2-0.3l1.1-0.6c0.1,0,0.1-0.1,0.2-0.1h0.2c0.1,0,0.2,0,0.3,0.1
			c0.1,0.1,0.1,0.2,0.1,0.3v4.5h0.8C-1.3-251.5-1.3-251.5-1.2-251.4z"/>
		<path fill="#59CD4C" d="M3.9-255.1c0,0.6-0.3,1.1-1,1.3c0.5,0.1,0.9,0.4,1,0.8c0.1,0.2,0.1,0.4,0.1,0.6c0,0.3-0.1,0.5-0.2,0.7
			c-0.1,0.2-0.3,0.4-0.4,0.5c-0.4,0.3-0.9,0.4-1.5,0.4c-0.6,0-1.1-0.1-1.7-0.3c-0.1-0.1-0.2-0.2-0.2-0.3c0-0.1,0-0.2,0.1-0.2
			s0.1-0.1,0.2-0.1s0.2,0,0.3,0.1c0.3,0.1,0.7,0.2,1.2,0.2c0.7,0,1.1-0.2,1.4-0.5c0.1-0.1,0.1-0.3,0.1-0.4c0-0.7-0.6-1-1.8-1H1.5
			c-0.1,0-0.2,0-0.2-0.1c-0.1-0.1-0.1-0.1-0.1-0.2c0-0.1,0-0.2,0.1-0.2c0.1-0.1,0.1-0.1,0.2-0.1h0c1.1,0,1.6-0.3,1.6-1
			c0-0.3-0.1-0.5-0.3-0.6c-0.2-0.2-0.5-0.2-1-0.2c-0.4,0-0.9,0.1-1.2,0.3c0,0-0.1,0-0.2,0s-0.1,0-0.2-0.1s-0.1-0.1-0.1-0.2
			c0-0.1,0.1-0.2,0.2-0.2c0.5-0.3,1-0.4,1.6-0.4s1,0.1,1.4,0.4C3.7-255.9,3.9-255.5,3.9-255.1z"/>
	</g>
	<g>
		<path fill="#59CD4C" d="M2.7-262.5c-0.3,0-0.5-0.2-0.5-0.5v-4c0-0.3,0.2-0.5,0.5-0.5s0.5,0.2,0.5,0.5v4
			C3.2-262.7,3-262.5,2.7-262.5z"/>
	</g>
	<g>
		<path fill="#59CD4C" d="M-3.3-262.5c-0.3,0-0.5-0.2-0.5-0.5v-4c0-0.3,0.2-0.5,0.5-0.5s0.5,0.2,0.5,0.5v4
			C-2.8-262.7-3-262.5-3.3-262.5z"/>
	</g>
	<g>
		<path fill="#59CD4C" d="M9.7-259.5h-20c-0.3,0-0.5-0.2-0.5-0.5s0.2-0.5,0.5-0.5h20c0.3,0,0.5,0.2,0.5,0.5S10-259.5,9.7-259.5z"/>
	</g>
</g>
</svg>
