<?xml version="1.0" encoding="utf-8"?>
<!-- Generator: Adobe Illustrator 18.1.1, SVG Export Plug-In . SVG Version: 6.00 Build 0)  -->
<svg version="1.1" id="Layer_1" xmlns="http://www.w3.org/2000/svg" xmlns:xlink="http://www.w3.org/1999/xlink" x="0px" y="0px"
	 viewBox="0 0 51 51" enable-background="new 0 0 51 51" xml:space="preserve">
<rect opacity="0" fill="#FFFFFF" width="51" height="51"/>
<g>
	<g>
		<path fill="#FFFFFF" d="M-265.4,569.7c-0.2,0.2-0.6,0.3-0.7,0c-2.4-3.1-3.6-6.9-3.6-10.9c0-10,8.2-18.2,18.2-18.2
			c0.5,0,0.9-0.4,0.9-0.9c0-0.5-0.4-0.9-0.9-0.9c-11,0-20,9-20,20c0,4.6,1.6,9,4.5,12.6c0.1,0.2,0.1,0.4,0,0.5l-2,2.7
			c-0.2,0.3,0,0.7,0.3,0.7l9.1,1c0.3,0,0.6-0.3,0.5-0.6l-3.7-8.4c-0.1-0.3-0.6-0.4-0.8-0.1L-265.4,569.7z"/>
	</g>
	<g>
		<path fill="#FFFFFF" d="M-236.1,545.7l2-2.7c0.2-0.3,0-0.7-0.3-0.7l-9.1-1c-0.3,0-0.6,0.3-0.5,0.6l3.7,8.4
			c0.1,0.3,0.6,0.4,0.8,0.1l1.8-2.4c0.2-0.2,0.6-0.3,0.7,0c2.3,3.1,3.6,6.9,3.6,10.9c0,10-8.2,18.2-18.2,18.2
			c-0.5,0-0.9,0.4-0.9,0.9s0.4,0.9,0.9,0.9c11,0,20-9,20-20c0-4.6-1.6-9-4.5-12.6C-236.2,546-236.2,545.8-236.1,545.7z"/>
	</g>
</g>
<g>
	<g>
		<path fill="#59CD4C" d="M11.9-425.5h-23c-0.2,0-0.4-0.1-0.4-0.3c-0.1-0.2-0.1-0.4,0-0.5l2-3c0.1-0.1,0.2-0.2,0.4-0.2h19
			c0.2,0,0.3,0.1,0.4,0.2l2,3c0.1,0.2,0.1,0.4,0,0.5C12.2-425.6,12.1-425.5,11.9-425.5z M-10.2-426.5H11l-1.3-2H-8.8L-10.2-426.5z"
			/>
	</g>
	<g>
		<g>
			<path fill="#59CD4C" d="M-7.1-428.5c-0.3,0-0.5-0.2-0.5-0.5v-10c0-0.3,0.2-0.5,0.5-0.5s0.5,0.2,0.5,0.5v10
				C-6.6-428.8-6.8-428.5-7.1-428.5z"/>
		</g>
		<g>
			<path fill="#59CD4C" d="M-5.1-428.5c-0.3,0-0.5-0.2-0.5-0.5v-10c0-0.3,0.2-0.5,0.5-0.5s0.5,0.2,0.5,0.5v10
				C-4.6-428.8-4.8-428.5-5.1-428.5z"/>
		</g>
	</g>
	<g>
		<g>
			<path fill="#59CD4C" d="M-0.6-428.5c-0.3,0-0.5-0.2-0.5-0.5v-10c0-0.3,0.2-0.5,0.5-0.5s0.5,0.2,0.5,0.5v10
				C-0.1-428.8-0.3-428.5-0.6-428.5z"/>
		</g>
		<g>
			<path fill="#59CD4C" d="M1.4-428.5c-0.3,0-0.5-0.2-0.5-0.5v-10c0-0.3,0.2-0.5,0.5-0.5s0.5,0.2,0.5,0.5v10
				C1.9-428.8,1.7-428.5,1.4-428.5z"/>
		</g>
	</g>
	<g>
		<g>
			<path fill="#59CD4C" d="M5.9-428.5c-0.3,0-0.5-0.2-0.5-0.5v-10c0-0.3,0.2-0.5,0.5-0.5s0.5,0.2,0.5,0.5v10
				C6.4-428.8,6.2-428.5,5.9-428.5z"/>
		</g>
		<g>
			<path fill="#59CD4C" d="M7.9-428.5c-0.3,0-0.5-0.2-0.5-0.5v-10c0-0.3,0.2-0.5,0.5-0.5s0.5,0.2,0.5,0.5v10
				C8.4-428.8,8.2-428.5,7.9-428.5z"/>
		</g>
	</g>
	<g>
		<path fill="#59CD4C" d="M12-438.5C12-438.5,12-438.5,12-438.5h-23.1c-0.2,0-0.4-0.1-0.5-0.3c-0.1-0.2,0-0.4,0.2-0.6l11.5-9.1
			c0.2-0.1,0.4-0.1,0.6,0l11.5,9.1c0.2,0.1,0.3,0.3,0.3,0.5C12.5-438.8,12.3-438.5,12-438.5z M-9.7-439.5h20.2l-10.1-8L-9.7-439.5z"
			/>
	</g>
</g>
<g>
	<g>
		<path fill="#59CD4C" d="M5.1-352.8c-1.7,0-3-1.3-3-3s1.3-3,3-3s3,1.3,3,3S6.8-352.8,5.1-352.8z M5.1-357.8c-1.1,0-2,0.9-2,2
			s0.9,2,2,2s2-0.9,2-2S6.2-357.8,5.1-357.8z"/>
	</g>
	<g>
		<path fill="#59CD4C" d="M5.1-333.9c-1.7,0-3-1.3-3-3s1.3-3,3-3s3,1.3,3,3S6.8-333.9,5.1-333.9z M5.1-338.9c-1.1,0-2,0.9-2,2
			s0.9,2,2,2s2-0.9,2-2S6.2-338.9,5.1-338.9z"/>
	</g>
	<g>
		<path fill="#59CD4C" d="M-4.3-343.3c-1.7,0-3-1.3-3-3s1.3-3,3-3s3,1.3,3,3S-2.6-343.3-4.3-343.3z M-4.3-348.3c-1.1,0-2,0.9-2,2
			s0.9,2,2,2s2-0.9,2-2S-3.2-348.3-4.3-348.3z"/>
	</g>
	<g>
		
			<rect x="-0.1" y="-355.3" transform="matrix(0.7071 0.7071 -0.7071 0.7071 -248.1288 -103.1261)" fill="#59CD4C" width="1" height="8.4"/>
	</g>
	<g>
		
			<rect x="-3.7" y="-342.2" transform="matrix(0.7071 0.7071 -0.7071 0.7071 -241.4404 -100.4176)" fill="#59CD4C" width="8.3" height="1"/>
	</g>
</g>
<g>
	<g>
		<path fill="#59CD4C" d="M10.4-246.7h-20c-0.3,0-0.5-0.2-0.5-0.5v-16c0-0.3,0.2-0.5,0.5-0.5h20c0.3,0,0.5,0.2,0.5,0.5v16
			C10.9-246.9,10.7-246.7,10.4-246.7z M-9.1-247.7h19v-15h-19V-247.7z"/>
	</g>
	<g>
		<path fill="#59CD4C" d="M-0.4-250.7c0.1,0.1,0.1,0.1,0.1,0.2c0,0.1,0,0.2-0.1,0.2s-0.1,0.1-0.2,0.1h-2.5c-0.1,0-0.2,0-0.2-0.1
			c-0.1-0.1-0.1-0.1-0.1-0.2c0-0.1,0-0.2,0.1-0.2c0.1-0.1,0.1-0.1,0.2-0.1h1v-4.1l-0.8,0.4c0,0-0.1,0-0.1,0c0,0-0.1,0-0.1,0
			s-0.1,0-0.2-0.1c-0.1-0.1-0.1-0.2-0.1-0.3s0.1-0.2,0.2-0.3l1.1-0.6c0.1,0,0.1-0.1,0.2-0.1h0.2c0.1,0,0.2,0,0.3,0.1
			c0.1,0.1,0.1,0.2,0.1,0.3v4.5h0.8C-0.6-250.8-0.5-250.7-0.4-250.7z"/>
		<path fill="#59CD4C" d="M4.7-254.3c0,0.6-0.3,1.1-1,1.3c0.5,0.1,0.9,0.4,1,0.8c0.1,0.2,0.1,0.4,0.1,0.6c0,0.3-0.1,0.5-0.2,0.7
			c-0.1,0.2-0.3,0.4-0.4,0.5c-0.4,0.3-0.9,0.4-1.5,0.4c-0.6,0-1.1-0.1-1.7-0.3c-0.1-0.1-0.2-0.2-0.2-0.3c0-0.1,0-0.2,0.1-0.2
			s0.1-0.1,0.2-0.1s0.2,0,0.3,0.1c0.3,0.1,0.7,0.2,1.2,0.2c0.7,0,1.1-0.2,1.4-0.5c0.1-0.1,0.1-0.3,0.1-0.4c0-0.7-0.6-1-1.8-1H2.2
			c-0.1,0-0.2,0-0.2-0.1c-0.1-0.1-0.1-0.1-0.1-0.2c0-0.1,0-0.2,0.1-0.2c0.1-0.1,0.1-0.1,0.2-0.1h0c1.1,0,1.6-0.3,1.6-1
			c0-0.3-0.1-0.5-0.3-0.6c-0.2-0.2-0.5-0.2-1-0.2c-0.4,0-0.9,0.1-1.2,0.3c0,0-0.1,0-0.2,0s-0.1,0-0.2-0.1S1-255,1-255.1
			c0-0.1,0.1-0.2,0.2-0.2c0.5-0.3,1-0.4,1.6-0.4s1,0.1,1.4,0.4C4.5-255.1,4.7-254.8,4.7-254.3z"/>
	</g>
	<g>
		<path fill="#59CD4C" d="M3.4-261.7c-0.3,0-0.5-0.2-0.5-0.5v-4c0-0.3,0.2-0.5,0.5-0.5s0.5,0.2,0.5,0.5v4
			C3.9-261.9,3.7-261.7,3.4-261.7z"/>
	</g>
	<g>
		<path fill="#59CD4C" d="M-2.6-261.7c-0.3,0-0.5-0.2-0.5-0.5v-4c0-0.3,0.2-0.5,0.5-0.5s0.5,0.2,0.5,0.5v4
			C-2.1-261.9-2.3-261.7-2.6-261.7z"/>
	</g>
	<g>
		<path fill="#59CD4C" d="M10.4-258.7h-20c-0.3,0-0.5-0.2-0.5-0.5s0.2-0.5,0.5-0.5h20c0.3,0,0.5,0.2,0.5,0.5S10.7-258.7,10.4-258.7z
			"/>
	</g>
</g>
<g display="none">
	<g display="inline">
		<g>
			<path fill="#59CD4C" d="M1,39.1c-0.3,0-0.5-0.1-0.7-0.3c-0.4-0.4-0.4-1,0-1.4l18.3-18.3c0.4-0.4,1-0.4,1.4,0s0.4,1,0,1.4
				L1.7,38.9C1.5,39,1.2,39.1,1,39.1z"/>
		</g>
		<g>
			<path fill="#59CD4C" d="M31.1,32.7c-0.3,0-0.5-0.1-0.7-0.3L18.6,20.6c-0.4-0.4-0.4-1,0-1.4s1-0.4,1.4,0L31.9,31
				c0.4,0.4,0.4,1,0,1.4C31.7,32.6,31.4,32.7,31.1,32.7z"/>
		</g>
		<g>
			<g>
				<path fill="#59CD4C" d="M31.1,32.7c-0.3,0-0.5-0.1-0.7-0.3c-0.4-0.4-0.4-1,0-1.4l14.8-14.8c0.4-0.4,1-0.4,1.4,0s0.4,1,0,1.4
					L31.9,32.4C31.7,32.6,31.4,32.7,31.1,32.7z"/>
			</g>
			<g>
				<g>
					<polygon fill="#59CD4C" points="48.4,21.5 51,11.9 41.4,14.4 					"/>
				</g>
			</g>
		</g>
	</g>
</g>
<g display="none">
	<g display="inline">
		<path fill="#59CD4C" d="M18.2,49c-0.6,0-1-0.4-1-1s0.4-1,1-1c3.5,0,6.3-2.4,6.3-5.4V22.4c0-0.6,0.4-1,1-1s1,0.4,1,1v19.2
			C26.5,45.7,22.8,49,18.2,49z"/>
	</g>
	<g display="inline">
		<g>
			<path fill="#59CD4C" d="M49.8,28.3c-0.6,0-1-0.4-1-1C48.8,14.4,38.4,4,25.5,4S2.2,14.4,2.2,27.3c0,0.6-0.4,1-1,1s-1-0.4-1-1
				C0.2,13.3,11.5,2,25.5,2s25.3,11.4,25.3,25.3C50.8,27.8,50.4,28.3,49.8,28.3z"/>
		</g>
		<g>
			<path fill="#59CD4C" d="M10.9,28.3c-0.6,0-1-0.4-1-1c0-2.1-1.7-3.9-3.9-3.9s-3.9,1.7-3.9,3.9c0,0.6-0.4,1-1,1s-1-0.4-1-1
				c0-3.2,2.6-5.9,5.9-5.9c3.2,0,5.9,2.6,5.9,5.9C11.9,27.8,11.5,28.3,10.9,28.3z"/>
		</g>
		<g>
			<line fill="none" x1="20.6" y1="27.3" x2="20.6" y2="27.3"/>
		</g>
		<g>
			<path fill="#59CD4C" d="M10.9,28.3c-0.6,0-1-0.4-1-1c0-3.2,2.6-5.9,5.9-5.9s5.9,2.6,5.9,5.9c0,0.6-0.4,1-1,1s-1-0.4-1-1
				c0-2.1-1.7-3.9-3.9-3.9s-3.9,1.7-3.9,3.9C11.9,27.8,11.5,28.3,10.9,28.3z"/>
		</g>
		<g>
			<path fill="#59CD4C" d="M30.4,28.3c-0.6,0-1-0.4-1-1c0-2.1-1.7-3.9-3.9-3.9c-2.1,0-3.9,1.7-3.9,3.9c0,0.6-0.4,1-1,1l0,0
				c-0.6,0-1-0.4-1-1c0-3.2,2.6-5.9,5.9-5.9c3.2,0,5.9,2.6,5.9,5.9C31.4,27.8,30.9,28.3,30.4,28.3z"/>
		</g>
		<g>
			<line fill="none" x1="20.6" y1="27.3" x2="20.6" y2="27.3"/>
		</g>
		<g>
			<path fill="#59CD4C" d="M40.1,28.3c-0.6,0-1-0.4-1-1c0-2.1-1.7-3.9-3.9-3.9s-3.9,1.7-3.9,3.9c0,0.6-0.4,1-1,1s-1-0.4-1-1
				c0-3.2,2.6-5.9,5.9-5.9c3.2,0,5.9,2.6,5.9,5.9C41.1,27.8,40.6,28.3,40.1,28.3z"/>
		</g>
		<g>
			<path fill="#59CD4C" d="M49.8,28.3c-0.6,0-1-0.4-1-1c0-2.1-1.7-3.9-3.9-3.9s-3.9,1.7-3.9,3.9c0,0.6-0.4,1-1,1s-1-0.4-1-1
				c0-3.2,2.6-5.9,5.9-5.9c3.2,0,5.9,2.6,5.9,5.9C50.8,27.8,50.4,28.3,49.8,28.3z"/>
		</g>
	</g>
</g>
<g display="none">
	<g display="inline">
		<path fill="#59CD4C" d="M49.8,50.8H31.6c-0.6,0-1-0.4-1-1s0.4-1,1-1h17.2l0-22.9L25.5,2.6L2.1,25.9l0,22.9h17.2c0.6,0,1,0.4,1,1
			s-0.4,1-1,1H1.2c-0.6,0-1-0.4-1-1l0-24.3c0-0.3,0.1-0.5,0.3-0.7L24.8,0.5c0.4-0.4,1-0.4,1.4,0l24.4,24.3c0.2,0.2,0.3,0.4,0.3,0.7
			l0,24.3C50.8,50.4,50.4,50.8,49.8,50.8z"/>
	</g>
	<g display="inline">
		<path fill="#59CD4C" d="M19.4,50.8c-0.3,0-0.5-0.1-0.7-0.3c-0.2-0.2-0.3-0.4-0.3-0.7c0-0.3,0.1-0.5,0.3-0.7c0.4-0.4,1-0.4,1.4,0
			c0.2,0.2,0.3,0.5,0.3,0.7c0,0.3-0.1,0.5-0.3,0.7C19.9,50.7,19.7,50.8,19.4,50.8z"/>
	</g>
	<g display="inline">
		<line fill="none" x1="31.6" y1="49.8" x2="31.6" y2="49.8"/>
	</g>
	<g display="inline">
		<path fill="#59CD4C" d="M31.6,50.8c-0.6,0-1-0.4-1-1v-16H20.4v16c0,0.6-0.4,1-1,1s-1-0.4-1-1v-17c0-0.6,0.4-1,1-1h12.2
			c0.6,0,1,0.4,1,1v17C32.6,50.4,32.1,50.8,31.6,50.8z"/>
	</g>
</g>
<g>
	<g>
		<g>
			<path fill="#59CD4C" d="M13,20.6c-1,0-1.8,0.8-1.8,1.8s0.8,1.8,1.8,1.8s1.8-0.8,1.8-1.8S14,20.6,13,20.6L13,20.6z"/>
		</g>
		<g>
			<g>
				<path fill="#59CD4C" d="M19.2,50.3H12c-0.3,0-0.6-0.1-0.7-0.3S11,49.4,11,49.2l0.7-7.8c0.1-0.6,0.5-1,1.1-0.9
					c0.5,0.1,1,0.5,0.9,1.1l-0.6,6.7h5.6l3.2-4.1c0.3-0.4,1-0.5,1.4-0.2s0.5,1,0.2,1.4L20,49.9C19.8,50.1,19.5,50.3,19.2,50.3z"/>
			</g>
			<g>
				<path fill="#59CD4C" d="M42.1,49.9h-7.9c-0.3,0-0.6-0.1-0.8-0.4l-3.4-4.6c-0.3-0.4-0.2-1.1,0.2-1.4c0.4-0.3,1.1-0.2,1.4,0.2
					l3.1,4.2H41L40,39c-0.1-0.5,0.3-1,0.9-1.1c0.6-0.1,1,0.3,1.1,0.9l1,10.1c0,0.3-0.1,0.6-0.3,0.8C42.6,49.8,42.4,49.9,42.1,49.9z"
					/>
			</g>
			<g>
				<path fill="#59CD4C" d="M45.1,29c-0.5,0-1-0.4-1-1c0-0.6,0.4-1,1-1c1.3-0.1,2.3-0.6,2.5-1.3c0.2-0.6,0-1.3-0.4-1.6
					c-0.4-0.4-0.5-1-0.1-1.4c0.4-0.4,1-0.5,1.4-0.1c1.1,0.9,1.5,2.5,1,3.8C49.2,27.1,48.3,28.9,45.1,29C45.2,29,45.2,29,45.1,29z"/>
			</g>
			<g>
				<path fill="#59CD4C" d="M7.3,36.9c-0.2,0-0.3,0-0.5-0.1l-5-2.7c-0.3-0.2-0.5-0.5-0.5-0.9v-8.8c0-0.4,0.3-0.8,0.7-0.9l5-1.7
					c0.5-0.2,1.1,0.1,1.3,0.6c0.2,0.5-0.1,1.1-0.6,1.3l-4.3,1.4v7.5L7.7,35c0.5,0.3,0.7,0.9,0.4,1.4C8,36.7,7.6,36.9,7.3,36.9z"/>
			</g>
			<g>
				<path fill="#59CD4C" d="M41,39.9c-0.3,0-0.5-0.1-0.7-0.3c-0.4-0.4-0.4-1,0-1.4c2.5-2.6,3.9-5.6,3.9-8.9c0-8-8.5-14.6-18.9-14.6
					c-7.4,0-14.1,3.3-17.2,8.5c-0.3,0.5-0.9,0.6-1.4,0.3c-0.5-0.3-0.6-0.9-0.3-1.4c3.4-5.8,10.9-9.5,18.9-9.5
					c11.5,0,20.9,7.4,20.9,16.6c0,3.8-1.5,7.3-4.5,10.3C41.6,39.8,41.3,39.9,41,39.9z"/>
			</g>
			<g>
				<path fill="#59CD4C" d="M25.3,45.9c-0.9,0-1.8,0-2.7-0.1c-0.5-0.1-0.9-0.5-0.9-1.1c0.1-0.5,0.5-1,1.1-0.9
					c2.6,0.3,5.2,0.1,7.7-0.4c0.5-0.1,1.1,0.2,1.2,0.8c0.1,0.5-0.2,1.1-0.8,1.2C29.1,45.7,27.2,45.9,25.3,45.9z"/>
			</g>
			<g>
				<path fill="#59CD4C" d="M12.8,42.4c-0.2,0-0.4-0.1-0.5-0.2c-2.5-1.6-4.5-3.6-5.8-5.8c-0.3-0.5-0.1-1.1,0.3-1.4
					c0.5-0.3,1.1-0.1,1.4,0.3c1.2,2,3,3.8,5.2,5.2c0.5,0.3,0.6,0.9,0.3,1.4C13.4,42.3,13.1,42.4,12.8,42.4z"/>
			</g>
			<g>
				<path fill="#59CD4C" d="M18.7,15.6c-0.4,0-0.7-0.2-0.9-0.6c-1.3-2.7-4.3-4.4-7.6-4.4c-1.3,0-2.7,0.3-3.8,0.8
					c-0.5,0.2-1.1,0-1.3-0.5s0-1.1,0.5-1.3c1.4-0.7,3.1-1,4.7-1c4.1,0,7.8,2.2,9.4,5.6c0.2,0.5,0,1.1-0.5,1.3
					C19,15.6,18.8,15.6,18.7,15.6z"/>
			</g>
			<g>
				<path fill="#59CD4C" d="M11.6,19c-0.3,0-0.6-0.1-0.8-0.4l-5.7-7.5C4.8,10.7,4.8,10,5.3,9.7c0.4-0.3,1.1-0.2,1.4,0.2l5.7,7.5
					c0.3,0.4,0.2,1.1-0.2,1.4C12,18.9,11.8,19,11.6,19z"/>
			</g>
		</g>
		<g>
			<path fill="#59CD4C" d="M36.7,14c-0.2,0-0.3,0-0.4-0.1c-0.5-0.2-0.7-0.8-0.4-1.3c0.5-0.9,0.7-2,0.7-3c0-3.7-3-6.8-6.8-6.8
				s-6.8,3-6.8,6.8c0,0.3,0,0.7,0.1,1c0.1,0.5-0.3,1.1-0.8,1.1c-0.5,0.1-1.1-0.3-1.1-0.8c-0.1-0.4-0.1-0.9-0.1-1.3
				c0-4.8,3.9-8.8,8.8-8.8s8.8,3.9,8.8,8.8c0,1.4-0.3,2.7-0.9,3.9C37.4,13.8,37,14,36.7,14z"/>
		</g>
	</g>
</g>
</svg>
