<?xml version="1.0" encoding="utf-8"?>
<!-- Generator: Adobe Illustrator 16.0.3, SVG Export Plug-In . SVG Version: 6.00 Build 0)  -->
<!DOCTYPE svg PUBLIC "-//W3C//DTD SVG 1.1//EN" "http://www.w3.org/Graphics/SVG/1.1/DTD/svg11.dtd">
<svg version="1.1" id="Laag_1" xmlns="http://www.w3.org/2000/svg" xmlns:xlink="http://www.w3.org/1999/xlink" x="0px" y="0px"
	 width="26px" height="26px" viewBox="0 0 26 26" enable-background="new 0 0 26 26" xml:space="preserve">
<path fill-rule="evenodd" clip-rule="evenodd" fill="#FFFFFF" d="M25.164,21.86c0.439,0.438,0.71,1.045,0.71,1.714
	c0,1.34-1.086,2.426-2.426,2.426c-0.669,0-1.275-0.271-1.715-0.71l-7.108-7.108c-1.444,0.853-3.123,1.35-4.922,1.35
	C4.345,19.531,0,15.188,0,9.829s4.344-9.703,9.703-9.703s9.702,4.344,9.702,9.703c0,1.799-0.497,3.478-1.35,4.922L25.164,21.86z
	 M9.703,2.552c-4.019,0-7.277,3.258-7.277,7.277c0,4.019,3.258,7.276,7.277,7.276c4.02,0,7.276-3.257,7.276-7.276
	C16.979,5.811,13.723,2.552,9.703,2.552"/>
</svg>
