<?xml version="1.0" encoding="utf-8"?>
<!-- Generator: Adobe Illustrator 16.0.0, SVG Export Plug-In . SVG Version: 6.00 Build 0)  -->
<!DOCTYPE svg PUBLIC "-//W3C//DTD SVG 1.1//EN" "http://www.w3.org/Graphics/SVG/1.1/DTD/svg11.dtd">
<svg version="1.1" id="Layer_1" xmlns="http://www.w3.org/2000/svg" xmlns:xlink="http://www.w3.org/1999/xlink" x="0px" y="0px"
	 width="14.199px" height="14.219px" viewBox="0 0 14.199 14.219" enable-background="new 0 0 14.199 14.219" xml:space="preserve">
<g id="Settings_4_">
	<g>
		<path fill="#FFFFFF" d="M7.1,4.655l0.371,0.058C7.857,4.771,8.215,4.92,8.529,5.15l0.307,0.223l0.221,0.303
			c0.231,0.316,0.38,0.672,0.44,1.061l0.056,0.373L9.497,7.48c-0.061,0.387-0.209,0.746-0.44,1.063L8.836,8.844L8.532,9.066
			c-0.317,0.232-0.675,0.38-1.062,0.439L7.1,9.562L6.729,9.505c-0.388-0.06-0.745-0.208-1.062-0.438L5.364,8.842L5.141,8.539
			C4.91,8.224,4.763,7.867,4.704,7.48L4.648,7.107l0.056-0.371C4.764,6.35,4.91,5.993,5.143,5.678l0.222-0.303l0.303-0.223
			c0.316-0.232,0.674-0.38,1.062-0.439L7.1,4.655 M7.396,0H6.799c-0.28,0-0.506,0.225-0.506,0.503v1.384
			c-0.858,0.132-1.646,0.47-2.318,0.961l-0.98-0.977C2.896,1.773,2.769,1.725,2.639,1.725c-0.129,0-0.259,0.049-0.355,0.146
			L1.86,2.296c-0.2,0.196-0.2,0.516-0.001,0.712l0.979,0.979C2.348,4.655,2.01,5.445,1.879,6.303H0.494l0,0
			c-0.279,0-0.504,0.227-0.504,0.504v0.601c0,0.001,0,0.001,0,0.003c0,0.278,0.225,0.503,0.504,0.504
			c0.02,0,0.044-0.002,0.064-0.004h1.32c0.131,0.859,0.467,1.65,0.959,2.321l-0.979,0.979C1.66,11.407,1.66,11.727,1.86,11.924
			l0.423,0.423c0,0,0.003,0.001,0.003,0.003c0.097,0.098,0.226,0.148,0.355,0.148c0.128,0,0.258-0.051,0.357-0.148
			c0.014-0.015,0.029-0.031,0.042-0.049l0.932-0.934c0.672,0.494,1.462,0.832,2.32,0.963v1.385c0,0.277,0.226,0.504,0.506,0.504
			h0.598c0.002,0,0.004,0,0.006,0c0.277,0,0.504-0.227,0.504-0.504c0-0.021-0.003-0.043-0.006-0.063v-1.32
			c0.86-0.131,1.65-0.468,2.322-0.96L11.2,12.35c0.099,0.098,0.229,0.148,0.355,0.148c0.129,0,0.258-0.051,0.359-0.148l0.423-0.424
			c0.002-0.001,0.002-0.001,0.002-0.002c0.196-0.197,0.196-0.517,0-0.713c-0.016-0.016-0.031-0.03-0.048-0.043l-0.933-0.932
			c0.496-0.674,0.832-1.465,0.963-2.326h1.385c0.277,0,0.502-0.227,0.502-0.506V6.807c0-0.277-0.225-0.504-0.502-0.504h-1.386
			c-0.13-0.859-0.469-1.65-0.962-2.32l0.979-0.979c0.196-0.197,0.196-0.516,0-0.711l-0.425-0.425
			c-0.1-0.099-0.229-0.147-0.357-0.147c-0.127,0-0.257,0.049-0.355,0.147l-0.978,0.978C9.551,2.354,8.761,2.018,7.9,1.887V0.502
			C7.9,0.225,7.675,0,7.396,0L7.396,0z"/>
	</g>
</g>
</svg>
