<?xml version="1.0" encoding="utf-8"?>
<!-- Generator: Adobe Illustrator 16.0.3, SVG Export Plug-In . SVG Version: 6.00 Build 0)  -->
<!DOCTYPE svg PUBLIC "-//W3C//DTD SVG 1.1//EN" "http://www.w3.org/Graphics/SVG/1.1/DTD/svg11.dtd">
<svg version="1.1" id="Laag_1" xmlns="http://www.w3.org/2000/svg" xmlns:xlink="http://www.w3.org/1999/xlink" x="0px" y="0px"
	 width="480px" height="30px" viewBox="0 0 480 30" enable-background="new 0 0 480 30" xml:space="preserve">
<rect y="0" fill="#FFFFFF" width="480" height="800"/>
<rect y="0" fill="#EB5D0B" width="480" height="30"/>
<text transform="matrix(1 0 0 1 378.791 21.7891)" fill="#FFFFFF" font-family="'HelveticaNeue-Light'" font-size="18.3503">100%</text>
<path fill="#FFFFFF" d="M462.201,21.977h-28.373c-1.336,0-2.422-1.09-2.422-2.424v-8.682c0-1.336,1.086-2.423,2.422-2.423h28.373
	c1.336,0,2.422,1.087,2.422,2.423v8.682C464.623,20.887,463.537,21.977,462.201,21.977z M433.828,8.822
	c-1.131,0-2.051,0.92-2.051,2.049v8.682c0,1.131,0.92,2.049,2.051,2.049h28.373c1.131,0,2.049-0.918,2.049-2.049v-8.682
	c0-1.129-0.918-2.049-2.049-2.049H433.828z"/>
<path fill="#FFFFFF" d="M451.084,20.935h-17.34c-0.52,0-0.941-0.669-0.941-1.491v-8.246c0-0.823,0.422-1.491,0.941-1.491h17.34
	V20.935z"/>
<path fill="#FFFFFF" d="M467.721,15.368c0,1.22-0.99,2.21-2.213,2.21v-4.421C466.73,13.157,467.721,14.146,467.721,15.368z"/>
<text transform="matrix(1 0 0 1 218.8218 21.9082)" fill="#FFFFFF" font-family="'HelveticaNeueMedium'" font-size="18.75">20:56</text>
<g>
	<text transform="matrix(1 0 0 1 72.0361 21.9082)" fill="#FFFFFF" font-family="'HelveticaNeueMedium'" font-size="18">AT&amp;T</text>
</g>
<circle fill="#FFFFFF" cx="15.976" cy="15.406" r="3.976"/>
<circle fill="#FFFFFF" cx="26.442" cy="15.406" r="3.976"/>
<circle fill="#FFFFFF" cx="36.909" cy="15.406" r="3.976"/>
<path fill="#FFFFFF" d="M57.844,12.176c1.781,0,3.23,1.448,3.23,3.229c0,1.782-1.449,3.231-3.23,3.231s-3.23-1.449-3.23-3.231
	C54.613,13.625,56.063,12.176,57.844,12.176 M57.844,11.43c-2.195,0-3.977,1.78-3.977,3.976c0,2.196,1.781,3.975,3.977,3.975
	c2.194,0,3.976-1.779,3.976-3.975C61.819,13.21,60.038,11.43,57.844,11.43L57.844,11.43z"/>
<path fill="#FFFFFF" d="M47.377,12.176c1.781,0,3.229,1.448,3.229,3.229c0,1.782-1.448,3.231-3.229,3.231s-3.23-1.449-3.23-3.231
	C44.146,13.625,45.596,12.176,47.377,12.176 M47.377,11.43c-2.196,0-3.977,1.78-3.977,3.976c0,2.196,1.78,3.975,3.977,3.975
	c2.194,0,3.976-1.779,3.976-3.975C51.353,13.21,49.571,11.43,47.377,11.43L47.377,11.43z"/>
<g>
	<g>
		<g id="Wifi__x7C__Top_10_">
			<g>
				<path fill-rule="evenodd" clip-rule="evenodd" fill="#FFFFFF" d="M123.113,13.638c2.039-2.044,4.857-3.31,7.972-3.31
					c3.034,0,5.782,1.206,7.806,3.157l1.539-1.745C137.994,9.428,134.709,8,131.085,8c-3.757,0-7.158,1.526-9.618,3.992
					L123.113,13.638z"/>
			</g>
		</g>
		<g id="Wifi__x7C__Middle_10_">
			<g>
				<path fill-rule="evenodd" clip-rule="evenodd" fill="#FFFFFF" d="M124.761,15.285l1.646,1.647
					c1.195-1.201,2.849-1.946,4.678-1.946c1.853,0,3.524,0.766,4.722,1.995l1.545-1.75c-1.611-1.589-3.824-2.573-6.267-2.573
					C128.613,12.657,126.377,13.662,124.761,15.285z"/>
			</g>
		</g>
		<g id="Wifi__x7C__Bottom_9_">
			<path fill-rule="evenodd" clip-rule="evenodd" fill="#FFFFFF" d="M127.716,18.629l3.369,3.369l3.258-3.462
				c-0.882-0.751-2.009-1.222-3.258-1.222C129.783,17.314,128.611,17.82,127.716,18.629z"/>
		</g>
	</g>
</g>
</svg>
