<?xml version="1.0" encoding="utf-8"?>
<!-- Generator: Adobe Illustrator 18.1.1, SVG Export Plug-In . SVG Version: 6.00 Build 0)  -->
<svg version="1.1" id="Layer_1" xmlns="http://www.w3.org/2000/svg" xmlns:xlink="http://www.w3.org/1999/xlink" x="0px" y="0px"
	 viewBox="0 0 25 25" enable-background="new 0 0 25 25" xml:space="preserve">
<rect opacity="0" fill="#FFFFFF" width="25" height="25"/>
<g display="none">
	<g display="inline">
		<path fill="#59CD4C" d="M23.9,24.1h-23c-0.2,0-0.4-0.1-0.4-0.3c-0.1-0.2-0.1-0.4,0-0.5l2-3c0.1-0.1,0.2-0.2,0.4-0.2h19
			c0.2,0,0.3,0.1,0.4,0.2l2,3c0.1,0.2,0.1,0.4,0,0.5C24.3,24,24.1,24.1,23.9,24.1z M1.9,23.1H23l-1.3-2H3.2L1.9,23.1z"/>
	</g>
	<g display="inline">
		<g>
			<path fill="#59CD4C" d="M4.9,21.1c-0.3,0-0.5-0.2-0.5-0.5v-10c0-0.3,0.2-0.5,0.5-0.5s0.5,0.2,0.5,0.5v10
				C5.4,20.8,5.2,21.1,4.9,21.1z"/>
		</g>
		<g>
			<path fill="#59CD4C" d="M6.9,21.1c-0.3,0-0.5-0.2-0.5-0.5v-10c0-0.3,0.2-0.5,0.5-0.5s0.5,0.2,0.5,0.5v10
				C7.4,20.8,7.2,21.1,6.9,21.1z"/>
		</g>
	</g>
	<g display="inline">
		<g>
			<path fill="#59CD4C" d="M11.5,21.1c-0.3,0-0.5-0.2-0.5-0.5v-10c0-0.3,0.2-0.5,0.5-0.5s0.5,0.2,0.5,0.5v10
				C12,20.8,11.7,21.1,11.5,21.1z"/>
		</g>
		<g>
			<path fill="#59CD4C" d="M13.5,21.1c-0.3,0-0.5-0.2-0.5-0.5v-10c0-0.3,0.2-0.5,0.5-0.5s0.5,0.2,0.5,0.5v10
				C14,20.8,13.7,21.1,13.5,21.1z"/>
		</g>
	</g>
	<g display="inline">
		<g>
			<path fill="#59CD4C" d="M18,21.1c-0.3,0-0.5-0.2-0.5-0.5v-10c0-0.3,0.2-0.5,0.5-0.5s0.5,0.2,0.5,0.5v10
				C18.5,20.8,18.3,21.1,18,21.1z"/>
		</g>
		<g>
			<path fill="#59CD4C" d="M20,21.1c-0.3,0-0.5-0.2-0.5-0.5v-10c0-0.3,0.2-0.5,0.5-0.5s0.5,0.2,0.5,0.5v10
				C20.5,20.8,20.3,21.1,20,21.1z"/>
		</g>
	</g>
	<g display="inline">
		<path fill="#59CD4C" d="M24.1,11.1C24.1,11.1,24,11.1,24.1,11.1H0.9c-0.2,0-0.4-0.1-0.5-0.3c-0.1-0.2,0-0.4,0.2-0.6L12.2,1
			c0.2-0.1,0.4-0.1,0.6,0l11.5,9.1c0.2,0.1,0.3,0.3,0.3,0.5C24.6,10.8,24.3,11.1,24.1,11.1z M2.4,10.1h20.2l-10.1-8L2.4,10.1z"/>
	</g>
</g>
<g>
	<g>
		<path fill="#59CD4C" d="M17.2,6c-1.7,0-3-1.3-3-3s1.3-3,3-3s3,1.3,3,3S18.9,6,17.2,6z M17.2,1c-1.1,0-2,0.9-2,2s0.9,2,2,2
			s2-0.9,2-2S18.3,1,17.2,1z"/>
	</g>
	<g>
		<path fill="#59CD4C" d="M17.2,25c-1.7,0-3-1.3-3-3s1.3-3,3-3s3,1.3,3,3S18.9,25,17.2,25z M17.2,20c-1.1,0-2,0.9-2,2s0.9,2,2,2
			s2-0.9,2-2S18.3,20,17.2,20z"/>
	</g>
	<g>
		<path fill="#59CD4C" d="M7.8,15.5c-1.7,0-3-1.3-3-3s1.3-3,3-3s3,1.3,3,3S9.5,15.5,7.8,15.5z M7.8,10.5c-1.1,0-2,0.9-2,2s0.9,2,2,2
			s2-0.9,2-2S8.9,10.5,7.8,10.5z"/>
	</g>
	<g>
		<rect x="12" y="3.6" transform="matrix(0.7071 0.7071 -0.7071 0.7071 9.1405 -6.551)" fill="#59CD4C" width="1" height="8.4"/>
	</g>
	<g>
		
			<rect x="8.4" y="16.7" transform="matrix(0.7071 0.7071 -0.7071 0.7071 15.8288 -3.8425)" fill="#59CD4C" width="8.3" height="1"/>
	</g>
</g>
<g display="none">
	<g display="inline">
		<path fill="#59CD4C" d="M22.5,22.5h-20C2.2,22.5,2,22.3,2,22V6c0-0.3,0.2-0.5,0.5-0.5h20C22.8,5.5,23,5.7,23,6v16
			C23,22.3,22.8,22.5,22.5,22.5z M3,21.5h19v-15H3V21.5z"/>
	</g>
	<g display="inline">
		<path fill="#59CD4C" d="M11.6,18.5c0.1,0.1,0.1,0.1,0.1,0.2c0,0.1,0,0.2-0.1,0.2s-0.1,0.1-0.2,0.1H8.9c-0.1,0-0.2,0-0.2-0.1
			c-0.1-0.1-0.1-0.1-0.1-0.2c0-0.1,0-0.2,0.1-0.2c0.1-0.1,0.1-0.1,0.2-0.1h1v-4.1L9,14.8c0,0-0.1,0-0.1,0c0,0-0.1,0-0.1,0
			s-0.1,0-0.2-0.1c-0.1-0.1-0.1-0.2-0.1-0.3s0.1-0.2,0.2-0.3l1.1-0.6c0.1,0,0.1-0.1,0.2-0.1h0.2c0.1,0,0.2,0,0.3,0.1
			c0.1,0.1,0.1,0.2,0.1,0.3v4.5h0.8C11.5,18.4,11.5,18.5,11.6,18.5z"/>
		<path fill="#59CD4C" d="M16.7,14.9c0,0.6-0.3,1.1-1,1.3c0.5,0.1,0.9,0.4,1,0.8c0.1,0.2,0.1,0.4,0.1,0.6c0,0.3-0.1,0.5-0.2,0.7
			c-0.1,0.2-0.3,0.4-0.4,0.5c-0.4,0.3-0.9,0.4-1.5,0.4c-0.6,0-1.1-0.1-1.7-0.3C13,18.8,13,18.7,13,18.6c0-0.1,0-0.2,0.1-0.2
			s0.1-0.1,0.2-0.1s0.2,0,0.3,0.1c0.3,0.1,0.7,0.2,1.2,0.2c0.7,0,1.1-0.2,1.4-0.5c0.1-0.1,0.1-0.3,0.1-0.4c0-0.7-0.6-1-1.8-1h-0.1
			c-0.1,0-0.2,0-0.2-0.1C14,16.4,14,16.4,14,16.3c0-0.1,0-0.2,0.1-0.2c0.1-0.1,0.1-0.1,0.2-0.1h0c1.1,0,1.6-0.3,1.6-1
			c0-0.3-0.1-0.5-0.3-0.6c-0.2-0.2-0.5-0.2-1-0.2c-0.4,0-0.9,0.1-1.2,0.3c0,0-0.1,0-0.2,0s-0.1,0-0.2-0.1s-0.1-0.1-0.1-0.2
			c0-0.1,0.1-0.2,0.2-0.2c0.5-0.3,1-0.4,1.6-0.4s1,0.1,1.4,0.4C16.6,14.1,16.7,14.4,16.7,14.9z"/>
	</g>
	<g display="inline">
		<path fill="#59CD4C" d="M15.5,7.5C15.2,7.5,15,7.3,15,7V3c0-0.3,0.2-0.5,0.5-0.5S16,2.7,16,3v4C16,7.3,15.8,7.5,15.5,7.5z"/>
	</g>
	<g display="inline">
		<path fill="#59CD4C" d="M9.5,7.5C9.2,7.5,9,7.3,9,7V3c0-0.3,0.2-0.5,0.5-0.5S10,2.7,10,3v4C10,7.3,9.8,7.5,9.5,7.5z"/>
	</g>
	<g display="inline">
		<path fill="#59CD4C" d="M22.5,10.5h-20C2.2,10.5,2,10.3,2,10s0.2-0.5,0.5-0.5h20c0.3,0,0.5,0.2,0.5,0.5S22.8,10.5,22.5,10.5z"/>
	</g>
</g>
</svg>
